<?xml version="1.0" standalone="no"?>
 <!DOCTYPE svg PUBLIC "-//W3C//DTD SVG 1.1//EN" 
 "http://www.w3.org/Graphics/SVG/1.1/DTD/svg11.dtd"> 
<svg xmlns="http://www.w3.org/2000/svg" version="1.1" 
    width="29.7002cm" height="21.0007cm" viewBox="0 0 116930 82680 ">
<title>SVG Picture created as 555-doorbell.sch.svg date 2017/05/28 13:49:03 </title>
  <desc>Picture generated by Eeschema-SVG </desc>
<g style="fill:#000000; fill-opacity:1;stroke:#000000; stroke-opacity:1;
stroke-linecap:round; stroke-linejoin:round; "
 transform="translate(0 0) scale(1 1)">
</g>
<g style="fill:#000000; fill-opacity:0.0; 
stroke:#000000; stroke-width:-10; stroke-opacity:1; 
stroke-linecap:round; stroke-linejoin:round;">
</g>
<g style="fill:#840000; fill-opacity:0.0; 
stroke:#840000; stroke-width:-10; stroke-opacity:1; 
stroke-linecap:round; stroke-linejoin:round;">
</g>
<g style="fill:#840000; fill-opacity:0.0; 
stroke:#840000; stroke-width:100; stroke-opacity:1; 
stroke-linecap:round; stroke-linejoin:round;">
</g>
<g style="fill:#840000; fill-opacity:0.0; 
stroke:#840000; stroke-width:60; stroke-opacity:1; 
stroke-linecap:round; stroke-linejoin:round;">
<rect x="69690" y="65360" width="42520" height="12600" rx="0" />
</g>
<g style="fill:#840000; fill-opacity:0.0; 
stroke:#840000; stroke-width:100; stroke-opacity:1; 
stroke-linecap:round; stroke-linejoin:round;">
</g>
<g style="fill:#840000; fill-opacity:0.0; 
stroke:#840000; stroke-width:60; stroke-opacity:1; 
stroke-linecap:round; stroke-linejoin:round;">
<rect x="3940" y="3940" width="109050" height="74800" rx="0" />
</g>
<g style="fill:#840000; fill-opacity:0.0; 
stroke:#840000; stroke-width:100; stroke-opacity:1; 
stroke-linecap:round; stroke-linejoin:round;">
</g>
<g style="fill:#840000; fill-opacity:0.0; 
stroke:#840000; stroke-width:60; stroke-opacity:1; 
stroke-linecap:round; stroke-linejoin:round;">
<rect x="4720" y="4720" width="107490" height="73240" rx="0" />
</g>
<g style="fill:#840000; fill-opacity:0.0; 
stroke:#840000; stroke-width:100; stroke-opacity:1; 
stroke-linecap:round; stroke-linejoin:round;">
</g>
<g style="fill:#840000; fill-opacity:0.0; 
stroke:#840000; stroke-width:60; stroke-opacity:1; 
stroke-linecap:round; stroke-linejoin:round;">
<path d="M23620 4720
L23620 3940
" />
</g>
<g style="fill:#840000; fill-opacity:0.0; 
stroke:#840000; stroke-width:100; stroke-opacity:1; 
stroke-linecap:round; stroke-linejoin:round;">
</g>
<g style="fill:#840000; fill-opacity:0.0; 
stroke:#840000; stroke-width:60; stroke-opacity:1; 
stroke-linecap:round; stroke-linejoin:round;">
<path d="M43310 4720
L43310 3940
" />
</g>
<g style="fill:#840000; fill-opacity:0.0; 
stroke:#840000; stroke-width:100; stroke-opacity:1; 
stroke-linecap:round; stroke-linejoin:round;">
</g>
<g style="fill:#840000; fill-opacity:0.0; 
stroke:#840000; stroke-width:60; stroke-opacity:1; 
stroke-linecap:round; stroke-linejoin:round;">
<path d="M62990 4720
L62990 3940
" />
</g>
<g style="fill:#840000; fill-opacity:0.0; 
stroke:#840000; stroke-width:100; stroke-opacity:1; 
stroke-linecap:round; stroke-linejoin:round;">
</g>
<g style="fill:#840000; fill-opacity:0.0; 
stroke:#840000; stroke-width:60; stroke-opacity:1; 
stroke-linecap:round; stroke-linejoin:round;">
<path d="M82680 4720
L82680 3940
" />
</g>
<g style="fill:#840000; fill-opacity:0.0; 
stroke:#840000; stroke-width:100; stroke-opacity:1; 
stroke-linecap:round; stroke-linejoin:round;">
</g>
<g style="fill:#840000; fill-opacity:0.0; 
stroke:#840000; stroke-width:60; stroke-opacity:1; 
stroke-linecap:round; stroke-linejoin:round;">
<path d="M102360 4720
L102360 3940
" />
</g>
<g style="fill:#840000; fill-opacity:0.0; 
stroke:#840000; stroke-width:100; stroke-opacity:1; 
stroke-linecap:round; stroke-linejoin:round;">
</g>
<g style="fill:#840000; fill-opacity:0.0; 
stroke:#840000; stroke-width:60; stroke-opacity:1; 
stroke-linecap:round; stroke-linejoin:round;">
<path d="M14170 4560
L13880 4560
" />
<path d="M14020 4560
L14020 4050
L13970 4120
L13930 4170
L13880 4190
" />
</g>
<g style="fill:#840000; fill-opacity:0.0; 
stroke:#840000; stroke-width:100; stroke-opacity:1; 
stroke-linecap:round; stroke-linejoin:round;">
</g>
<g style="fill:#840000; fill-opacity:0.0; 
stroke:#840000; stroke-width:60; stroke-opacity:1; 
stroke-linecap:round; stroke-linejoin:round;">
<path d="M33560 4090
L33580 4070
L33630 4050
L33750 4050
L33800 4070
L33820 4090
L33850 4140
L33850 4190
L33820 4260
L33530 4560
L33850 4560
" />
</g>
<g style="fill:#840000; fill-opacity:0.0; 
stroke:#840000; stroke-width:100; stroke-opacity:1; 
stroke-linecap:round; stroke-linejoin:round;">
</g>
<g style="fill:#840000; fill-opacity:0.0; 
stroke:#840000; stroke-width:60; stroke-opacity:1; 
stroke-linecap:round; stroke-linejoin:round;">
<path d="M53220 4050
L53540 4050
L53370 4240
L53440 4240
L53490 4260
L53510 4290
L53540 4340
L53540 4460
L53510 4510
L53490 4530
L53440 4560
L53300 4560
L53250 4530
L53220 4510
" />
</g>
<g style="fill:#840000; fill-opacity:0.0; 
stroke:#840000; stroke-width:100; stroke-opacity:1; 
stroke-linecap:round; stroke-linejoin:round;">
</g>
<g style="fill:#840000; fill-opacity:0.0; 
stroke:#840000; stroke-width:60; stroke-opacity:1; 
stroke-linecap:round; stroke-linejoin:round;">
<path d="M73170 4220
L73170 4560
" />
<path d="M73050 4020
L72930 4390
L73240 4390
" />
</g>
<g style="fill:#840000; fill-opacity:0.0; 
stroke:#840000; stroke-width:100; stroke-opacity:1; 
stroke-linecap:round; stroke-linejoin:round;">
</g>
<g style="fill:#840000; fill-opacity:0.0; 
stroke:#840000; stroke-width:60; stroke-opacity:1; 
stroke-linecap:round; stroke-linejoin:round;">
<path d="M92880 4050
L92640 4050
L92620 4290
L92640 4260
L92690 4240
L92810 4240
L92860 4260
L92880 4290
L92910 4340
L92910 4460
L92880 4510
L92860 4530
L92810 4560
L92690 4560
L92640 4530
L92620 4510
" />
</g>
<g style="fill:#840000; fill-opacity:0.0; 
stroke:#840000; stroke-width:100; stroke-opacity:1; 
stroke-linecap:round; stroke-linejoin:round;">
</g>
<g style="fill:#840000; fill-opacity:0.0; 
stroke:#840000; stroke-width:60; stroke-opacity:1; 
stroke-linecap:round; stroke-linejoin:round;">
<path d="M112540 4050
L112440 4050
L112390 4070
L112370 4090
L112320 4170
L112300 4260
L112300 4460
L112320 4510
L112350 4530
L112390 4560
L112490 4560
L112540 4530
L112560 4510
L112590 4460
L112590 4340
L112560 4290
L112540 4260
L112490 4240
L112390 4240
L112350 4260
L112320 4290
L112300 4340
" />
</g>
<g style="fill:#840000; fill-opacity:0.0; 
stroke:#840000; stroke-width:100; stroke-opacity:1; 
stroke-linecap:round; stroke-linejoin:round;">
</g>
<g style="fill:#840000; fill-opacity:0.0; 
stroke:#840000; stroke-width:60; stroke-opacity:1; 
stroke-linecap:round; stroke-linejoin:round;">
<path d="M23620 77960
L23620 78740
" />
</g>
<g style="fill:#840000; fill-opacity:0.0; 
stroke:#840000; stroke-width:100; stroke-opacity:1; 
stroke-linecap:round; stroke-linejoin:round;">
</g>
<g style="fill:#840000; fill-opacity:0.0; 
stroke:#840000; stroke-width:60; stroke-opacity:1; 
stroke-linecap:round; stroke-linejoin:round;">
<path d="M43310 77960
L43310 78740
" />
</g>
<g style="fill:#840000; fill-opacity:0.0; 
stroke:#840000; stroke-width:100; stroke-opacity:1; 
stroke-linecap:round; stroke-linejoin:round;">
</g>
<g style="fill:#840000; fill-opacity:0.0; 
stroke:#840000; stroke-width:60; stroke-opacity:1; 
stroke-linecap:round; stroke-linejoin:round;">
<path d="M62990 77960
L62990 78740
" />
</g>
<g style="fill:#840000; fill-opacity:0.0; 
stroke:#840000; stroke-width:100; stroke-opacity:1; 
stroke-linecap:round; stroke-linejoin:round;">
</g>
<g style="fill:#840000; fill-opacity:0.0; 
stroke:#840000; stroke-width:60; stroke-opacity:1; 
stroke-linecap:round; stroke-linejoin:round;">
<path d="M82680 77960
L82680 78740
" />
</g>
<g style="fill:#840000; fill-opacity:0.0; 
stroke:#840000; stroke-width:100; stroke-opacity:1; 
stroke-linecap:round; stroke-linejoin:round;">
</g>
<g style="fill:#840000; fill-opacity:0.0; 
stroke:#840000; stroke-width:60; stroke-opacity:1; 
stroke-linecap:round; stroke-linejoin:round;">
<path d="M102360 77960
L102360 78740
" />
</g>
<g style="fill:#840000; fill-opacity:0.0; 
stroke:#840000; stroke-width:100; stroke-opacity:1; 
stroke-linecap:round; stroke-linejoin:round;">
</g>
<g style="fill:#840000; fill-opacity:0.0; 
stroke:#840000; stroke-width:60; stroke-opacity:1; 
stroke-linecap:round; stroke-linejoin:round;">
<path d="M14170 78580
L13880 78580
" />
<path d="M14020 78580
L14020 78070
L13970 78140
L13930 78190
L13880 78210
" />
</g>
<g style="fill:#840000; fill-opacity:0.0; 
stroke:#840000; stroke-width:100; stroke-opacity:1; 
stroke-linecap:round; stroke-linejoin:round;">
</g>
<g style="fill:#840000; fill-opacity:0.0; 
stroke:#840000; stroke-width:60; stroke-opacity:1; 
stroke-linecap:round; stroke-linejoin:round;">
<path d="M33560 78110
L33580 78090
L33630 78070
L33750 78070
L33800 78090
L33820 78110
L33850 78160
L33850 78210
L33820 78280
L33530 78580
L33850 78580
" />
</g>
<g style="fill:#840000; fill-opacity:0.0; 
stroke:#840000; stroke-width:100; stroke-opacity:1; 
stroke-linecap:round; stroke-linejoin:round;">
</g>
<g style="fill:#840000; fill-opacity:0.0; 
stroke:#840000; stroke-width:60; stroke-opacity:1; 
stroke-linecap:round; stroke-linejoin:round;">
<path d="M53220 78070
L53540 78070
L53370 78260
L53440 78260
L53490 78280
L53510 78310
L53540 78360
L53540 78480
L53510 78530
L53490 78550
L53440 78580
L53300 78580
L53250 78550
L53220 78530
" />
</g>
<g style="fill:#840000; fill-opacity:0.0; 
stroke:#840000; stroke-width:100; stroke-opacity:1; 
stroke-linecap:round; stroke-linejoin:round;">
</g>
<g style="fill:#840000; fill-opacity:0.0; 
stroke:#840000; stroke-width:60; stroke-opacity:1; 
stroke-linecap:round; stroke-linejoin:round;">
<path d="M73170 78240
L73170 78580
" />
<path d="M73050 78040
L72930 78410
L73240 78410
" />
</g>
<g style="fill:#840000; fill-opacity:0.0; 
stroke:#840000; stroke-width:100; stroke-opacity:1; 
stroke-linecap:round; stroke-linejoin:round;">
</g>
<g style="fill:#840000; fill-opacity:0.0; 
stroke:#840000; stroke-width:60; stroke-opacity:1; 
stroke-linecap:round; stroke-linejoin:round;">
<path d="M92880 78070
L92640 78070
L92620 78310
L92640 78280
L92690 78260
L92810 78260
L92860 78280
L92880 78310
L92910 78360
L92910 78480
L92880 78530
L92860 78550
L92810 78580
L92690 78580
L92640 78550
L92620 78530
" />
</g>
<g style="fill:#840000; fill-opacity:0.0; 
stroke:#840000; stroke-width:100; stroke-opacity:1; 
stroke-linecap:round; stroke-linejoin:round;">
</g>
<g style="fill:#840000; fill-opacity:0.0; 
stroke:#840000; stroke-width:60; stroke-opacity:1; 
stroke-linecap:round; stroke-linejoin:round;">
<path d="M112540 78070
L112440 78070
L112390 78090
L112370 78110
L112320 78190
L112300 78280
L112300 78480
L112320 78530
L112350 78550
L112390 78580
L112490 78580
L112540 78550
L112560 78530
L112590 78480
L112590 78360
L112560 78310
L112540 78280
L112490 78260
L112390 78260
L112350 78280
L112320 78310
L112300 78360
" />
</g>
<g style="fill:#840000; fill-opacity:0.0; 
stroke:#840000; stroke-width:100; stroke-opacity:1; 
stroke-linecap:round; stroke-linejoin:round;">
</g>
<g style="fill:#840000; fill-opacity:0.0; 
stroke:#840000; stroke-width:60; stroke-opacity:1; 
stroke-linecap:round; stroke-linejoin:round;">
<path d="M3940 23620
L4720 23620
" />
</g>
<g style="fill:#840000; fill-opacity:0.0; 
stroke:#840000; stroke-width:100; stroke-opacity:1; 
stroke-linecap:round; stroke-linejoin:round;">
</g>
<g style="fill:#840000; fill-opacity:0.0; 
stroke:#840000; stroke-width:60; stroke-opacity:1; 
stroke-linecap:round; stroke-linejoin:round;">
<path d="M3940 43310
L4720 43310
" />
</g>
<g style="fill:#840000; fill-opacity:0.0; 
stroke:#840000; stroke-width:100; stroke-opacity:1; 
stroke-linecap:round; stroke-linejoin:round;">
</g>
<g style="fill:#840000; fill-opacity:0.0; 
stroke:#840000; stroke-width:60; stroke-opacity:1; 
stroke-linecap:round; stroke-linejoin:round;">
<path d="M3940 62990
L4720 62990
" />
</g>
<g style="fill:#840000; fill-opacity:0.0; 
stroke:#840000; stroke-width:100; stroke-opacity:1; 
stroke-linecap:round; stroke-linejoin:round;">
</g>
<g style="fill:#840000; fill-opacity:0.0; 
stroke:#840000; stroke-width:60; stroke-opacity:1; 
stroke-linecap:round; stroke-linejoin:round;">
<path d="M4210 13860
L4450 13860
" />
<path d="M4160 14010
L4330 13500
L4500 14010
" />
</g>
<g style="fill:#840000; fill-opacity:0.0; 
stroke:#840000; stroke-width:100; stroke-opacity:1; 
stroke-linecap:round; stroke-linejoin:round;">
</g>
<g style="fill:#840000; fill-opacity:0.0; 
stroke:#840000; stroke-width:60; stroke-opacity:1; 
stroke-linecap:round; stroke-linejoin:round;">
<path d="M4370 33420
L4440 33440
L4470 33470
L4490 33520
L4490 33590
L4470 33640
L4440 33660
L4400 33690
L4200 33690
L4200 33180
L4370 33180
L4420 33200
L4440 33220
L4470 33270
L4470 33320
L4440 33370
L4420 33390
L4370 33420
L4200 33420
" />
</g>
<g style="fill:#840000; fill-opacity:0.0; 
stroke:#840000; stroke-width:100; stroke-opacity:1; 
stroke-linecap:round; stroke-linejoin:round;">
</g>
<g style="fill:#840000; fill-opacity:0.0; 
stroke:#840000; stroke-width:60; stroke-opacity:1; 
stroke-linecap:round; stroke-linejoin:round;">
<path d="M4490 53330
L4470 53350
L4400 53380
L4350 53380
L4270 53350
L4230 53300
L4200 53250
L4180 53160
L4180 53080
L4200 52990
L4230 52940
L4270 52890
L4350 52870
L4400 52870
L4470 52890
L4490 52910
" />
</g>
<g style="fill:#840000; fill-opacity:0.0; 
stroke:#840000; stroke-width:100; stroke-opacity:1; 
stroke-linecap:round; stroke-linejoin:round;">
</g>
<g style="fill:#840000; fill-opacity:0.0; 
stroke:#840000; stroke-width:60; stroke-opacity:1; 
stroke-linecap:round; stroke-linejoin:round;">
<path d="M4200 73060
L4200 72550
L4320 72550
L4400 72570
L4440 72620
L4470 72670
L4490 72760
L4490 72840
L4470 72930
L4440 72980
L4400 73030
L4320 73060
L4200 73060
" />
</g>
<g style="fill:#840000; fill-opacity:0.0; 
stroke:#840000; stroke-width:100; stroke-opacity:1; 
stroke-linecap:round; stroke-linejoin:round;">
</g>
<g style="fill:#840000; fill-opacity:0.0; 
stroke:#840000; stroke-width:60; stroke-opacity:1; 
stroke-linecap:round; stroke-linejoin:round;">
<path d="M112990 23620
L112210 23620
" />
</g>
<g style="fill:#840000; fill-opacity:0.0; 
stroke:#840000; stroke-width:100; stroke-opacity:1; 
stroke-linecap:round; stroke-linejoin:round;">
</g>
<g style="fill:#840000; fill-opacity:0.0; 
stroke:#840000; stroke-width:60; stroke-opacity:1; 
stroke-linecap:round; stroke-linejoin:round;">
<path d="M112990 43310
L112210 43310
" />
</g>
<g style="fill:#840000; fill-opacity:0.0; 
stroke:#840000; stroke-width:100; stroke-opacity:1; 
stroke-linecap:round; stroke-linejoin:round;">
</g>
<g style="fill:#840000; fill-opacity:0.0; 
stroke:#840000; stroke-width:60; stroke-opacity:1; 
stroke-linecap:round; stroke-linejoin:round;">
<path d="M112990 62990
L112210 62990
" />
</g>
<g style="fill:#840000; fill-opacity:0.0; 
stroke:#840000; stroke-width:100; stroke-opacity:1; 
stroke-linecap:round; stroke-linejoin:round;">
</g>
<g style="fill:#840000; fill-opacity:0.0; 
stroke:#840000; stroke-width:60; stroke-opacity:1; 
stroke-linecap:round; stroke-linejoin:round;">
<path d="M112480 13860
L112720 13860
" />
<path d="M112430 14010
L112600 13500
L112770 14010
" />
</g>
<g style="fill:#840000; fill-opacity:0.0; 
stroke:#840000; stroke-width:100; stroke-opacity:1; 
stroke-linecap:round; stroke-linejoin:round;">
</g>
<g style="fill:#840000; fill-opacity:0.0; 
stroke:#840000; stroke-width:60; stroke-opacity:1; 
stroke-linecap:round; stroke-linejoin:round;">
<path d="M112640 33420
L112710 33440
L112740 33470
L112760 33520
L112760 33590
L112740 33640
L112710 33660
L112670 33690
L112470 33690
L112470 33180
L112640 33180
L112690 33200
L112710 33220
L112740 33270
L112740 33320
L112710 33370
L112690 33390
L112640 33420
L112470 33420
" />
</g>
<g style="fill:#840000; fill-opacity:0.0; 
stroke:#840000; stroke-width:100; stroke-opacity:1; 
stroke-linecap:round; stroke-linejoin:round;">
</g>
<g style="fill:#840000; fill-opacity:0.0; 
stroke:#840000; stroke-width:60; stroke-opacity:1; 
stroke-linecap:round; stroke-linejoin:round;">
<path d="M112760 53330
L112740 53350
L112670 53380
L112620 53380
L112540 53350
L112500 53300
L112470 53250
L112450 53160
L112450 53080
L112470 52990
L112500 52940
L112540 52890
L112620 52870
L112670 52870
L112740 52890
L112760 52910
" />
</g>
<g style="fill:#840000; fill-opacity:0.0; 
stroke:#840000; stroke-width:100; stroke-opacity:1; 
stroke-linecap:round; stroke-linejoin:round;">
</g>
<g style="fill:#840000; fill-opacity:0.0; 
stroke:#840000; stroke-width:60; stroke-opacity:1; 
stroke-linecap:round; stroke-linejoin:round;">
<path d="M112470 73060
L112470 72550
L112590 72550
L112670 72570
L112710 72620
L112740 72670
L112760 72760
L112760 72840
L112740 72930
L112710 72980
L112670 73030
L112590 73060
L112470 73060
" />
</g>
<g style="fill:#840000; fill-opacity:0.0; 
stroke:#840000; stroke-width:100; stroke-opacity:1; 
stroke-linecap:round; stroke-linejoin:round;">
</g>
<g style="fill:#840000; fill-opacity:0.0; 
stroke:#840000; stroke-width:60; stroke-opacity:1; 
stroke-linecap:round; stroke-linejoin:round;">
<path d="M78880 76290
L78880 75700
L79020 75700
L79110 75730
L79160 75790
L79190 75840
L79220 75950
L79220 76040
L79190 76150
L79160 76210
L79110 76260
L79020 76290
L78880 76290
" />
<path d="M79720 76290
L79720 75980
L79700 75930
L79640 75900
L79530 75900
L79470 75930
" />
<path d="M79720 76260
L79670 76290
L79530 76290
L79470 76260
L79440 76210
L79440 76150
L79470 76100
L79530 76070
L79670 76070
L79720 76040
" />
<path d="M79920 75900
L80140 75900
" />
<path d="M80000 75700
L80000 76210
L80030 76260
L80080 76290
L80140 76290
" />
<path d="M80570 76260
L80510 76290
L80400 76290
L80340 76260
L80310 76210
L80310 75980
L80340 75930
L80400 75900
L80510 75900
L80570 75930
L80590 75980
L80590 76040
L80310 76100
" />
<path d="M80850 76240
L80880 76260
L80850 76290
L80820 76260
L80850 76240
L80850 76290
" />
<path d="M80850 75930
L80880 75950
L80850 75980
L80820 75950
L80850 75930
L80850 75980
" />
<path d="M81550 75760
L81580 75730
L81640 75700
L81780 75700
L81830 75730
L81860 75760
L81890 75810
L81890 75870
L81860 75950
L81520 76290
L81890 76290
" />
<path d="M82250 75700
L82310 75700
L82370 75730
L82390 75760
L82420 75810
L82450 75930
L82450 76070
L82420 76180
L82390 76240
L82370 76260
L82310 76290
L82250 76290
L82200 76260
L82170 76240
L82140 76180
L82110 76070
L82110 75930
L82140 75810
L82170 75760
L82200 75730
L82250 75700
" />
<path d="M83010 76290
L82670 76290
" />
<path d="M82840 76290
L82840 75700
L82780 75790
L82730 75840
L82670 75870
" />
<path d="M83200 75700
L83600 75700
L83340 76290
" />
<path d="M83820 76070
L84270 76070
" />
<path d="M84660 75700
L84720 75700
L84780 75730
L84800 75760
L84830 75810
L84860 75930
L84860 76070
L84830 76180
L84800 76240
L84780 76260
L84720 76290
L84660 76290
L84610 76260
L84580 76240
L84550 76180
L84520 76070
L84520 75930
L84550 75810
L84580 75760
L84610 75730
L84660 75700
" />
<path d="M85390 75700
L85110 75700
L85080 75980
L85110 75950
L85170 75930
L85310 75930
L85360 75950
L85390 75980
L85420 76040
L85420 76180
L85390 76240
L85360 76260
L85310 76290
L85170 76290
L85110 76260
L85080 76240
" />
<path d="M85670 76070
L86120 76070
" />
<path d="M86370 75760
L86400 75730
L86460 75700
L86600 75700
L86650 75730
L86680 75760
L86710 75810
L86710 75870
L86680 75950
L86340 76290
L86710 76290
" />
<path d="M86900 75700
L87300 75700
L87040 76290
" />
</g>
<g style="fill:#840000; fill-opacity:0.0; 
stroke:#840000; stroke-width:100; stroke-opacity:1; 
stroke-linecap:round; stroke-linejoin:round;">
</g>
<g style="fill:#840000; fill-opacity:0.0; 
stroke:#840000; stroke-width:60; stroke-opacity:1; 
stroke-linecap:round; stroke-linejoin:round;">
<path d="M69690 76580
L112210 76580
" />
</g>
<g style="fill:#840000; fill-opacity:0.0; 
stroke:#840000; stroke-width:100; stroke-opacity:1; 
stroke-linecap:round; stroke-linejoin:round;">
</g>
<g style="fill:#840000; fill-opacity:0.0; 
stroke:#840000; stroke-width:60; stroke-opacity:1; 
stroke-linecap:round; stroke-linejoin:round;">
<path d="M70220 77390
L70220 76800
" />
<path d="M70560 77390
L70300 77050
" />
<path d="M70560 76800
L70220 77140
" />
<path d="M70810 77390
L70810 77000
" />
<path d="M70810 76800
L70780 76830
L70810 76860
L70840 76830
L70810 76800
L70810 76860
" />
<path d="M71430 77340
L71400 77360
L71320 77390
L71260 77390
L71170 77360
L71120 77310
L71090 77250
L71060 77140
L71060 77050
L71090 76940
L71120 76890
L71170 76830
L71260 76800
L71320 76800
L71400 76830
L71430 76860
" />
<path d="M71930 77390
L71930 77080
L71910 77030
L71850 77000
L71740 77000
L71680 77030
" />
<path d="M71930 77360
L71880 77390
L71740 77390
L71680 77360
L71650 77310
L71650 77250
L71680 77200
L71740 77170
L71880 77170
L71930 77140
" />
<path d="M72460 77390
L72460 76800
" />
<path d="M72460 77360
L72410 77390
L72290 77390
L72240 77360
L72210 77340
L72180 77280
L72180 77110
L72210 77050
L72240 77030
L72290 77000
L72410 77000
L72460 77030
" />
<path d="M73190 77080
L73390 77080
" />
<path d="M73470 77390
L73190 77390
L73190 76800
L73470 76800
" />
<path d="M73720 77340
L73750 77360
L73720 77390
L73690 77360
L73720 77340
L73720 77390
" />
<path d="M74000 77390
L74000 76800
L74140 76800
L74230 76830
L74280 76890
L74310 76940
L74340 77050
L74340 77140
L74310 77250
L74280 77310
L74230 77360
L74140 77390
L74000 77390
" />
<path d="M74590 77340
L74620 77360
L74590 77390
L74560 77360
L74590 77340
L74590 77390
" />
<path d="M74840 77220
L75120 77220
" />
<path d="M74790 77390
L74980 76800
L75180 77390
" />
<path d="M75380 77340
L75410 77360
L75380 77390
L75350 77360
L75380 77340
L75380 77390
" />
<path d="M76560 77390
L76560 76800
" />
<path d="M76620 77170
L76790 77390
" />
<path d="M76790 77000
L76560 77220
" />
<path d="M77040 77390
L77040 77000
" />
<path d="M77040 76800
L77010 76830
L77040 76860
L77070 76830
L77040 76800
L77040 76860
" />
<path d="M77570 77360
L77520 77390
L77400 77390
L77350 77360
L77320 77340
L77290 77280
L77290 77110
L77320 77050
L77350 77030
L77400 77000
L77520 77000
L77570 77030
" />
<path d="M78080 77390
L78080 77080
L78060 77030
L78000 77000
L77890 77000
L77830 77030
" />
<path d="M78080 77360
L78030 77390
L77890 77390
L77830 77360
L77800 77310
L77800 77250
L77830 77200
L77890 77170
L78030 77170
L78080 77140
" />
<path d="M78610 77390
L78610 76800
" />
<path d="M78610 77360
L78560 77390
L78440 77390
L78390 77360
L78360 77340
L78330 77280
L78330 77110
L78360 77050
L78390 77030
L78440 77000
L78560 77000
L78610 77030
" />
<path d="M79590 77000
L79590 77390
" />
<path d="M79450 76770
L79310 77200
L79680 77200
" />
<path d="M79900 77340
L79930 77360
L79900 77390
L79870 77360
L79900 77340
L79900 77390
" />
<path d="M80290 76800
L80350 76800
L80410 76830
L80430 76860
L80460 76910
L80490 77030
L80490 77170
L80460 77280
L80430 77340
L80410 77360
L80350 77390
L80290 77390
L80240 77360
L80210 77340
L80180 77280
L80150 77170
L80150 77030
L80180 76910
L80210 76860
L80240 76830
L80290 76800
" />
<path d="M80740 77340
L80770 77360
L80740 77390
L80710 77360
L80740 77340
L80740 77390
" />
<path d="M81270 77000
L81270 77390
" />
<path d="M81130 76770
L80990 77200
L81360 77200
" />
<path d="M81580 77170
L82030 77170
" />
<path d="M82280 77360
L82340 77390
L82450 77390
L82510 77360
L82540 77310
L82540 77280
L82510 77220
L82450 77200
L82370 77200
L82310 77170
L82280 77110
L82280 77080
L82310 77030
L82370 77000
L82450 77000
L82510 77030
" />
<path d="M82710 77000
L82930 77000
" />
<path d="M82790 76800
L82790 77310
L82820 77360
L82870 77390
L82930 77390
" />
<path d="M83380 77390
L83380 77080
L83360 77030
L83300 77000
L83190 77000
L83130 77030
" />
<path d="M83380 77360
L83330 77390
L83190 77390
L83130 77360
L83100 77310
L83100 77250
L83130 77200
L83190 77170
L83330 77170
L83380 77140
" />
<path d="M83660 77390
L83660 76800
" />
<path d="M83660 77030
L83720 77000
L83830 77000
L83890 77030
L83910 77050
L83940 77110
L83940 77280
L83910 77340
L83890 77360
L83830 77390
L83720 77390
L83660 77360
" />
<path d="M84270 77390
L84220 77360
L84190 77310
L84190 76800
" />
<path d="M84730 77360
L84670 77390
L84560 77390
L84500 77360
L84470 77310
L84470 77080
L84500 77030
L84560 77000
L84670 77000
L84730 77030
L84750 77080
L84750 77140
L84470 77200
" />
</g>
<g style="fill:#840000; fill-opacity:0.0; 
stroke:#840000; stroke-width:100; stroke-opacity:1; 
stroke-linecap:round; stroke-linejoin:round;">
</g>
<g style="fill:#840000; fill-opacity:0.0; 
stroke:#840000; stroke-width:60; stroke-opacity:1; 
stroke-linecap:round; stroke-linejoin:round;">
<path d="M69690 75400
L112210 75400
" />
</g>
<g style="fill:#840000; fill-opacity:0.0; 
stroke:#840000; stroke-width:100; stroke-opacity:1; 
stroke-linecap:round; stroke-linejoin:round;">
</g>
<g style="fill:#840000; fill-opacity:0.0; 
stroke:#840000; stroke-width:120; stroke-opacity:1; 
stroke-linecap:round; stroke-linejoin:round;">
<path d="M104020 76290
L103820 76010
" />
<path d="M103680 76290
L103680 75700
L103910 75700
L103960 75730
L103990 75760
L104020 75810
L104020 75900
L103990 75950
L103960 75980
L103910 76010
L103680 76010
" />
<path d="M104500 76260
L104440 76290
L104330 76290
L104270 76260
L104240 76210
L104240 75980
L104270 75930
L104330 75900
L104440 75900
L104500 75930
L104520 75980
L104520 76040
L104240 76100
" />
<path d="M104720 75900
L104860 76290
L105010 75900
" />
<path d="M105230 76240
L105260 76260
L105230 76290
L105200 76260
L105230 76240
L105230 76290
" />
<path d="M105230 75930
L105260 75950
L105230 75980
L105200 75950
L105230 75930
L105230 75980
" />
<path d="M105900 75900
L106040 76290
L106190 75900
" />
<path d="M106720 76290
L106380 76290
" />
<path d="M106550 76290
L106550 75700
L106490 75790
L106440 75840
L106380 75870
" />
</g>
<g style="fill:#840000; fill-opacity:0.0; 
stroke:#840000; stroke-width:100; stroke-opacity:1; 
stroke-linecap:round; stroke-linejoin:round;">
</g>
<g style="fill:#840000; fill-opacity:0.0; 
stroke:#840000; stroke-width:60; stroke-opacity:1; 
stroke-linecap:round; stroke-linejoin:round;">
<path d="M70190 76260
L70280 76290
L70420 76290
L70470 76260
L70500 76240
L70530 76180
L70530 76120
L70500 76070
L70470 76040
L70420 76010
L70300 75980
L70250 75950
L70220 75930
L70190 75870
L70190 75810
L70220 75760
L70250 75730
L70300 75700
L70450 75700
L70530 75730
" />
<path d="M70780 76290
L70780 75900
" />
<path d="M70780 75700
L70750 75730
L70780 75760
L70810 75730
L70780 75700
L70780 75760
" />
<path d="M71000 75900
L71310 75900
L71000 76290
L71310 76290
" />
<path d="M71770 76260
L71710 76290
L71600 76290
L71540 76260
L71510 76210
L71510 75980
L71540 75930
L71600 75900
L71710 75900
L71770 75930
L71790 75980
L71790 76040
L71510 76100
" />
<path d="M72050 76240
L72080 76260
L72050 76290
L72020 76260
L72050 76240
L72050 76290
" />
<path d="M72050 75930
L72080 75950
L72050 75980
L72020 75950
L72050 75930
L72050 75980
" />
<path d="M72750 76120
L73030 76120
" />
<path d="M72700 76290
L72890 75700
L73090 76290
" />
<path d="M73540 75900
L73540 76290
" />
<path d="M73400 75670
L73260 76100
L73630 76100
" />
</g>
<g style="fill:#840000; fill-opacity:0.0; 
stroke:#840000; stroke-width:100; stroke-opacity:1; 
stroke-linecap:round; stroke-linejoin:round;">
</g>
<g style="fill:#840000; fill-opacity:0.0; 
stroke:#840000; stroke-width:60; stroke-opacity:1; 
stroke-linecap:round; stroke-linejoin:round;">
<path d="M103680 77390
L103680 76800
" />
<path d="M104210 77390
L104210 76800
" />
<path d="M104210 77360
L104160 77390
L104040 77390
L103990 77360
L103960 77340
L103930 77280
L103930 77110
L103960 77050
L103990 77030
L104040 77000
L104160 77000
L104210 77030
" />
<path d="M104490 77340
L104520 77360
L104490 77390
L104460 77360
L104490 77340
L104490 77390
" />
<path d="M104490 77030
L104520 77050
L104490 77080
L104460 77050
L104490 77030
L104490 77080
" />
<path d="M105530 77390
L105190 77390
" />
<path d="M105360 77390
L105360 76800
L105300 76890
L105250 76940
L105190 76970
" />
<path d="M106200 76770
L105700 77530
" />
<path d="M106710 77390
L106370 77390
" />
<path d="M106540 77390
L106540 76800
L106480 76890
L106430 76940
L106370 76970
" />
</g>
<g style="fill:#840000; fill-opacity:0.0; 
stroke:#840000; stroke-width:100; stroke-opacity:1; 
stroke-linecap:round; stroke-linejoin:round;">
</g>
<g style="fill:#840000; fill-opacity:0.0; 
stroke:#840000; stroke-width:60; stroke-opacity:1; 
stroke-linecap:round; stroke-linejoin:round;">
<path d="M69690 73820
L112210 73820
" />
</g>
<g style="fill:#840000; fill-opacity:0.0; 
stroke:#840000; stroke-width:100; stroke-opacity:1; 
stroke-linecap:round; stroke-linejoin:round;">
</g>
<g style="fill:#840000; fill-opacity:0.0; 
stroke:#840000; stroke-width:160; stroke-opacity:1; 
stroke-linecap:round; stroke-linejoin:round;">
<path d="M70260 74090
L70710 74090
" />
<path d="M70390 74880
L70480 74090
" />
<path d="M70880 74880
L70940 74360
" />
<path d="M70970 74090
L70930 74130
L70960 74170
L71010 74130
L70970 74090
L70960 74170
" />
<path d="M71210 74360
L71510 74360
" />
<path d="M71350 74090
L71270 74770
L71300 74840
L71370 74880
L71450 74880
" />
<path d="M71820 74880
L71750 74840
L71720 74770
L71800 74090
" />
<path d="M72420 74840
L72340 74880
L72190 74880
L72120 74840
L72090 74770
L72130 74470
L72180 74390
L72250 74360
L72400 74360
L72480 74390
L72510 74470
L72500 74540
L72110 74620
" />
<path d="M72800 74810
L72840 74840
L72800 74880
L72760 74840
L72800 74810
L72800 74880
" />
<path d="M72860 74390
L72890 74430
L72850 74470
L72810 74430
L72860 74390
L72850 74470
" />
<path d="M74240 74090
L73870 74090
L73790 74470
L73830 74430
L73910 74390
L74100 74390
L74170 74430
L74200 74470
L74230 74540
L74200 74730
L74150 74810
L74120 74840
L74040 74880
L73850 74880
L73780 74840
L73740 74810
" />
<path d="M74990 74090
L74620 74090
L74540 74470
L74580 74430
L74660 74390
L74850 74390
L74920 74430
L74950 74470
L74980 74540
L74950 74730
L74900 74810
L74870 74840
L74790 74880
L74600 74880
L74530 74840
L74490 74810
" />
<path d="M75740 74090
L75370 74090
L75290 74470
L75330 74430
L75410 74390
L75600 74390
L75670 74430
L75700 74470
L75730 74540
L75700 74730
L75650 74810
L75620 74840
L75540 74880
L75350 74880
L75280 74840
L75240 74810
" />
<path d="M76630 74880
L76720 74090
L76910 74090
L77020 74130
L77080 74210
L77110 74280
L77130 74430
L77120 74540
L77060 74690
L77010 74770
L76930 74840
L76820 74880
L76630 74880
" />
<path d="M77660 74090
L77810 74090
L77880 74130
L77950 74210
L77970 74360
L77940 74620
L77880 74770
L77790 74840
L77720 74880
L77570 74880
L77490 74840
L77430 74770
L77410 74620
L77440 74360
L77500 74210
L77580 74130
L77660 74090
" />
<path d="M78490 74090
L78640 74090
L78710 74130
L78780 74210
L78800 74360
L78770 74620
L78710 74770
L78620 74840
L78550 74880
L78400 74880
L78320 74840
L78260 74770
L78240 74620
L78270 74360
L78330 74210
L78410 74130
L78490 74090
" />
<path d="M79530 74880
L79310 74510
" />
<path d="M79080 74880
L79170 74090
L79470 74090
L79540 74130
L79570 74170
L79610 74240
L79590 74360
L79540 74430
L79500 74470
L79420 74510
L79120 74510
" />
<path d="M80780 74470
L80880 74510
L80920 74540
L80950 74620
L80930 74730
L80880 74810
L80840 74840
L80770 74880
L80470 74880
L80560 74090
L80820 74090
L80900 74130
L80920 74170
L80960 74240
L80950 74320
L80900 74390
L80860 74430
L80780 74470
L80520 74470
" />
<path d="M81310 74470
L81570 74470
" />
<path d="M81630 74880
L81260 74880
L81350 74090
L81720 74090
" />
<path d="M82340 74880
L81970 74880
L82060 74090
" />
<path d="M82980 74880
L82610 74880
L82700 74090
" />
</g>
<g style="fill:#840000; fill-opacity:0.0; 
stroke:#840000; stroke-width:100; stroke-opacity:1; 
stroke-linecap:round; stroke-linejoin:round;">
</g>
<g style="fill:#840000; fill-opacity:0.0; 
stroke:#840000; stroke-width:60; stroke-opacity:1; 
stroke-linecap:round; stroke-linejoin:round;">
<path d="M70420 73060
L70220 73060
" />
<path d="M70220 73370
L70220 72780
L70500 72780
" />
<path d="M70730 73370
L70730 72980
" />
<path d="M70730 72780
L70700 72810
L70730 72840
L70760 72810
L70730 72780
L70730 72840
" />
<path d="M71090 73370
L71040 73340
L71010 73290
L71010 72780
" />
<path d="M71550 73340
L71490 73370
L71380 73370
L71320 73340
L71290 73290
L71290 73060
L71320 73010
L71380 72980
L71490 72980
L71550 73010
L71570 73060
L71570 73120
L71290 73180
" />
<path d="M71830 73320
L71860 73340
L71830 73370
L71800 73340
L71830 73320
L71830 73370
" />
<path d="M71830 73010
L71860 73030
L71830 73060
L71800 73030
L71830 73010
L71830 73060
" />
<path d="M72840 72780
L72560 72780
L72530 73060
L72560 73030
L72620 73010
L72760 73010
L72810 73030
L72840 73060
L72870 73120
L72870 73260
L72840 73320
L72810 73340
L72760 73370
L72620 73370
L72560 73340
L72530 73320
" />
<path d="M73400 72780
L73120 72780
L73090 73060
L73120 73030
L73180 73010
L73320 73010
L73370 73030
L73400 73060
L73430 73120
L73430 73260
L73400 73320
L73370 73340
L73320 73370
L73180 73370
L73120 73340
L73090 73320
" />
<path d="M73960 72780
L73680 72780
L73650 73060
L73680 73030
L73740 73010
L73880 73010
L73930 73030
L73960 73060
L73990 73120
L73990 73260
L73960 73320
L73930 73340
L73880 73370
L73740 73370
L73680 73340
L73650 73320
" />
<path d="M74240 73150
L74690 73150
" />
<path d="M75220 73370
L75220 72780
" />
<path d="M75220 73340
L75170 73370
L75050 73370
L75000 73340
L74970 73320
L74940 73260
L74940 73090
L74970 73030
L75000 73010
L75050 72980
L75170 72980
L75220 73010
" />
<path d="M75580 73370
L75530 73340
L75500 73320
L75470 73260
L75470 73090
L75500 73030
L75530 73010
L75580 72980
L75670 72980
L75730 73010
L75750 73030
L75780 73090
L75780 73260
L75750 73320
L75730 73340
L75670 73370
L75580 73370
" />
<path d="M76110 73370
L76060 73340
L76030 73320
L76000 73260
L76000 73090
L76030 73030
L76060 73010
L76110 72980
L76200 72980
L76260 73010
L76280 73030
L76310 73090
L76310 73260
L76280 73320
L76260 73340
L76200 73370
L76110 73370
" />
<path d="M76560 73370
L76560 72980
" />
<path d="M76560 73090
L76590 73030
L76620 73010
L76670 72980
L76730 72980
" />
<path d="M76930 73370
L76930 72780
" />
<path d="M76930 73010
L76990 72980
L77100 72980
L77160 73010
L77180 73030
L77210 73090
L77210 73260
L77180 73320
L77160 73340
L77100 73370
L76990 73370
L76930 73340
" />
<path d="M77690 73340
L77630 73370
L77520 73370
L77460 73340
L77430 73290
L77430 73060
L77460 73010
L77520 72980
L77630 72980
L77690 73010
L77710 73060
L77710 73120
L77430 73180
" />
<path d="M78050 73370
L78000 73340
L77970 73290
L77970 72780
" />
<path d="M78360 73370
L78310 73340
L78280 73290
L78280 72780
" />
<path d="M78590 73320
L78620 73340
L78590 73370
L78560 73340
L78590 73320
L78590 73370
" />
<path d="M78840 73340
L78900 73370
L79010 73370
L79070 73340
L79100 73290
L79100 73260
L79070 73200
L79010 73180
L78930 73180
L78870 73150
L78840 73090
L78840 73060
L78870 73010
L78930 72980
L79010 72980
L79070 73010
" />
<path d="M79600 73340
L79550 73370
L79430 73370
L79380 73340
L79350 73320
L79320 73260
L79320 73090
L79350 73030
L79380 73010
L79430 72980
L79550 72980
L79600 73010
" />
<path d="M79860 73370
L79860 72780
" />
<path d="M80110 73370
L80110 73060
L80090 73010
L80030 72980
L79940 72980
L79890 73010
L79860 73030
" />
</g>
<g style="fill:#840000; fill-opacity:0.0; 
stroke:#840000; stroke-width:100; stroke-opacity:1; 
stroke-linecap:round; stroke-linejoin:round;">
</g>
<g style="fill:#840000; fill-opacity:0.0; 
stroke:#840000; stroke-width:60; stroke-opacity:1; 
stroke-linecap:round; stroke-linejoin:round;">
<path d="M69690 71460
L112210 71460
" />
</g>
<g style="fill:#840000; fill-opacity:0.0; 
stroke:#840000; stroke-width:100; stroke-opacity:1; 
stroke-linecap:round; stroke-linejoin:round;">
</g>
<g style="fill:#840000; fill-opacity:0.0; 
stroke:#840000; stroke-width:60; stroke-opacity:1; 
stroke-linecap:round; stroke-linejoin:round;">
<path d="M70190 72280
L70280 72310
L70420 72310
L70470 72280
L70500 72260
L70530 72200
L70530 72140
L70500 72090
L70470 72060
L70420 72030
L70300 72000
L70250 71970
L70220 71950
L70190 71890
L70190 71830
L70220 71780
L70250 71750
L70300 71720
L70450 71720
L70530 71750
" />
<path d="M70780 72310
L70780 71720
" />
<path d="M71030 72310
L71030 72000
L71010 71950
L70950 71920
L70860 71920
L70810 71950
L70780 71970
" />
<path d="M71540 72280
L71480 72310
L71370 72310
L71310 72280
L71280 72230
L71280 72000
L71310 71950
L71370 71920
L71480 71920
L71540 71950
L71560 72000
L71560 72060
L71280 72120
" />
<path d="M72050 72280
L71990 72310
L71880 72310
L71820 72280
L71790 72230
L71790 72000
L71820 71950
L71880 71920
L71990 71920
L72050 71950
L72070 72000
L72070 72060
L71790 72120
" />
<path d="M72250 71920
L72470 71920
" />
<path d="M72330 71720
L72330 72230
L72360 72280
L72410 72310
L72470 72310
" />
<path d="M72670 72260
L72700 72280
L72670 72310
L72640 72280
L72670 72260
L72670 72310
" />
<path d="M72670 71950
L72700 71970
L72670 72000
L72640 71970
L72670 71950
L72670 72000
" />
<path d="M73820 71690
L73320 72450
" />
</g>
<g style="fill:#840000; fill-opacity:0.0; 
stroke:#840000; stroke-width:100; stroke-opacity:1; 
stroke-linecap:round; stroke-linejoin:round;">
</g>
<g style="fill:#840000; fill-opacity:0.0; 
stroke:#840000; stroke-width:120; stroke-opacity:1; 
stroke-linecap:round; stroke-linejoin:round;">
<path d="M70390 70540
L70390 70960
L70360 71050
L70300 71100
L70220 71130
L70160 71130
" />
<path d="M70920 71130
L70920 70820
L70900 70770
L70840 70740
L70730 70740
L70670 70770
" />
<path d="M70920 71100
L70870 71130
L70730 71130
L70670 71100
L70640 71050
L70640 70990
L70670 70940
L70730 70910
L70870 70910
L70920 70880
" />
<path d="M71200 71130
L71200 70740
" />
<path d="M71200 70540
L71170 70570
L71200 70600
L71230 70570
L71200 70540
L71200 70600
" />
<path d="M71480 71130
L71480 70740
" />
<path d="M71480 70790
L71510 70770
L71560 70740
L71650 70740
L71710 70770
L71730 70820
L71730 71130
" />
<path d="M71730 70820
L71760 70770
L71820 70740
L71900 70740
L71960 70770
L71990 70820
L71990 71130
" />
<path d="M72500 71100
L72440 71130
L72330 71130
L72270 71100
L72240 71050
L72240 70820
L72270 70770
L72330 70740
L72440 70740
L72500 70770
L72520 70820
L72520 70880
L72240 70940
" />
<path d="M73510 71130
L73230 71130
L73230 70540
" />
<path d="M73960 71130
L73960 70820
L73940 70770
L73880 70740
L73770 70740
L73710 70770
" />
<path d="M73960 71100
L73910 71130
L73770 71130
L73710 71100
L73680 71050
L73680 70990
L73710 70940
L73770 70910
L73910 70910
L73960 70880
" />
<path d="M74240 71130
L74240 70540
" />
<path d="M74240 70770
L74300 70740
L74410 70740
L74470 70770
L74490 70790
L74520 70850
L74520 71020
L74490 71080
L74470 71100
L74410 71130
L74300 71130
L74240 71100
" />
<path d="M74850 71130
L74800 71100
L74770 71080
L74740 71020
L74740 70850
L74770 70790
L74800 70770
L74850 70740
L74940 70740
L75000 70770
L75020 70790
L75050 70850
L75050 71020
L75020 71080
L75000 71100
L74940 71130
L74850 71130
" />
<path d="M75300 71130
L75300 70740
" />
<path d="M75300 70850
L75330 70790
L75360 70770
L75410 70740
L75470 70740
" />
<path d="M75920 71130
L75920 70540
" />
<path d="M75920 71100
L75870 71130
L75750 71130
L75700 71100
L75670 71080
L75640 71020
L75640 70850
L75670 70790
L75700 70770
L75750 70740
L75870 70740
L75920 70770
" />
<path d="M76450 71130
L76450 70820
L76430 70770
L76370 70740
L76260 70740
L76200 70770
" />
<path d="M76450 71100
L76400 71130
L76260 71130
L76200 71100
L76170 71050
L76170 70990
L76200 70940
L76260 70910
L76400 70910
L76450 70880
" />
</g>
<g style="fill:#840000; fill-opacity:0.0; 
stroke:#840000; stroke-width:100; stroke-opacity:1; 
stroke-linecap:round; stroke-linejoin:round;">
</g>
<g style="fill:#840000; fill-opacity:0.0; 
stroke:#840000; stroke-width:60; stroke-opacity:1; 
stroke-linecap:round; stroke-linejoin:round;">
<path d="M77560 75400
L77560 76580
" />
</g>
<g style="fill:#840000; fill-opacity:0.0; 
stroke:#840000; stroke-width:100; stroke-opacity:1; 
stroke-linecap:round; stroke-linejoin:round;">
</g>
<g style="fill:#840000; fill-opacity:0.0; 
stroke:#840000; stroke-width:60; stroke-opacity:1; 
stroke-linecap:round; stroke-linejoin:round;">
<path d="M102760 75400
L102760 77960
" />
</g>
<g style="fill:#840000; fill-opacity:0.0; 
stroke:#840000; stroke-width:0; stroke-opacity:1; 
stroke-linecap:round; stroke-linejoin:round;">
</g>
<g style="fill:#FFFFC2; fill-opacity:0.0; 
stroke:#FFFFC2; stroke-width:0; stroke-opacity:1; 
stroke-linecap:round; stroke-linejoin:round;">
</g>
<g style="fill:#FFFFC2; fill-opacity:0.6; 
stroke:#FFFFC2; stroke-width:0; stroke-opacity:1; 
stroke-linecap:round; stroke-linejoin:round;">
<rect x="54200" y="31400" width="7000" height="10900" rx="0" />
</g>
<g style="fill:#840000; fill-opacity:0.6; 
stroke:#840000; stroke-width:0; stroke-opacity:1; 
stroke-linecap:round; stroke-linejoin:round;">
</g>
<g style="fill:#840000; fill-opacity:0.0; 
stroke:#840000; stroke-width:100; stroke-opacity:1; 
stroke-linecap:round; stroke-linejoin:round;">
<rect x="54200" y="31400" width="7000" height="10900" rx="0" />
</g>
<g style="fill:#840000; fill-opacity:0.0; 
stroke:#840000; stroke-width:60; stroke-opacity:1; 
stroke-linecap:round; stroke-linejoin:round;">
<path d="M55700 42300
L55700 43300
" />
</g>
<g style="fill:#008484; fill-opacity:0.0; 
stroke:#008484; stroke-width:60; stroke-opacity:1; 
stroke-linecap:round; stroke-linejoin:round;">
<path d="M55450 41520
L55430 41570
L55430 41640
L55450 41710
L55500 41760
L55550 41780
L55640 41800
L55710 41800
L55810 41780
L55850 41760
L55900 41710
L55930 41640
L55930 41590
L55900 41520
L55880 41500
L55710 41500
L55710 41590
" />
<path d="M55930 41280
L55430 41280
L55930 41000
L55430 41000
" />
<path d="M55930 40760
L55430 40760
L55430 40640
L55450 40570
L55500 40520
L55550 40500
L55640 40480
L55710 40480
L55810 40500
L55850 40520
L55900 40570
L55930 40640
L55930 40760
" />
</g>
<g style="fill:#840000; fill-opacity:0.0; 
stroke:#840000; stroke-width:60; stroke-opacity:1; 
stroke-linecap:round; stroke-linejoin:round;">
<path d="M55580 42660
L55580 42940
" />
<path d="M55580 42800
L55080 42800
L55150 42850
L55200 42900
L55220 42940
" />
<path d="M57700 31400
L57700 30400
" />
</g>
<g style="fill:#008484; fill-opacity:0.0; 
stroke:#008484; stroke-width:60; stroke-opacity:1; 
stroke-linecap:round; stroke-linejoin:round;">
<path d="M57430 33180
L57930 33020
L57430 32850
" />
<path d="M57880 32400
L57900 32420
L57930 32490
L57930 32540
L57900 32610
L57850 32660
L57810 32680
L57710 32700
L57640 32700
L57550 32680
L57500 32660
L57450 32610
L57430 32540
L57430 32490
L57450 32420
L57470 32400
" />
<path d="M57880 31900
L57900 31920
L57930 31990
L57930 32040
L57900 32110
L57850 32160
L57810 32180
L57710 32200
L57640 32200
L57550 32180
L57500 32160
L57450 32110
L57430 32040
L57430 31990
L57450 31920
L57470 31900
" />
</g>
<g style="fill:#840000; fill-opacity:0.0; 
stroke:#840000; stroke-width:60; stroke-opacity:1; 
stroke-linecap:round; stroke-linejoin:round;">
<path d="M57290 30950
L57270 31000
L57240 31020
L57200 31040
L57170 31040
L57120 31020
L57100 31000
L57080 30950
L57080 30850
L57100 30810
L57120 30780
L57170 30760
L57200 30760
L57240 30780
L57270 30810
L57290 30850
L57290 30950
L57310 31000
L57340 31020
L57390 31040
L57480 31040
L57530 31020
L57550 31000
L57580 30950
L57580 30850
L57550 30810
L57530 30780
L57480 30760
L57390 30760
L57340 30780
L57310 30810
L57290 30850
" />
<path d="M54200 40000
L52700 40000
" />
</g>
<g style="fill:#008484; fill-opacity:0.0; 
stroke:#008484; stroke-width:60; stroke-opacity:1; 
stroke-linecap:round; stroke-linejoin:round;">
<path d="M54650 39730
L54930 39730
" />
<path d="M54790 40230
L54790 39730
" />
<path d="M55380 40230
L55220 39990
" />
<path d="M55100 40230
L55100 39730
L55290 39730
L55340 39750
L55360 39770
L55380 39820
L55380 39890
L55360 39940
L55340 39960
L55290 39990
L55100 39990
" />
</g>
<g style="fill:#840000; fill-opacity:0.0; 
stroke:#840000; stroke-width:60; stroke-opacity:1; 
stroke-linecap:round; stroke-linejoin:round;">
<path d="M53310 39420
L53330 39400
L53380 39380
L53500 39380
L53540 39400
L53570 39420
L53590 39470
L53590 39520
L53570 39590
L53280 39880
L53590 39880
" />
<path d="M61200 36500
L62700 36500
" />
</g>
<g style="fill:#008484; fill-opacity:0.0; 
stroke:#008484; stroke-width:60; stroke-opacity:1; 
stroke-linecap:round; stroke-linejoin:round;">
<path d="M60730 36770
L60680 36750
L60640 36700
L60570 36630
L60520 36610
L60470 36610
" />
<path d="M60490 36730
L60450 36700
L60400 36650
L60380 36560
L60380 36390
L60400 36300
L60450 36250
L60490 36230
L60590 36230
L60640 36250
L60680 36300
L60710 36390
L60710 36560
L60680 36650
L60640 36700
L60590 36730
L60490 36730
" />
</g>
<g style="fill:#840000; fill-opacity:0.0; 
stroke:#840000; stroke-width:60; stroke-opacity:1; 
stroke-linecap:round; stroke-linejoin:round;">
<path d="M61780 35880
L62090 35880
L61920 36070
L62000 36070
L62040 36090
L62070 36110
L62090 36160
L62090 36280
L62070 36330
L62040 36350
L62000 36380
L61850 36380
L61810 36350
L61780 36330
" />
<circle cx="53950" cy="41000" r="250" /> 
<path d="M53700 41000
L52700 41000
" />
</g>
<g style="fill:#008484; fill-opacity:0.0; 
stroke:#008484; stroke-width:60; stroke-opacity:1; 
stroke-linecap:round; stroke-linejoin:round;">
<path d="M55000 41230
L54840 40990
" />
<path d="M54720 41230
L54720 40730
L54910 40730
L54960 40750
L54980 40770
L55000 40820
L55000 40890
L54980 40940
L54960 40960
L54910 40990
L54720 40990
" />
</g>
<g style="fill:#840000; fill-opacity:0.0; 
stroke:#840000; stroke-width:60; stroke-opacity:1; 
stroke-linecap:round; stroke-linejoin:round;">
<path d="M53540 40540
L53540 40880
" />
<path d="M53420 40350
L53310 40710
L53610 40710
" />
<path d="M59200 42300
L59200 43300
" />
</g>
<g style="fill:#008484; fill-opacity:0.0; 
stroke:#008484; stroke-width:60; stroke-opacity:1; 
stroke-linecap:round; stroke-linejoin:round;">
<path d="M59380 41500
L59400 41520
L59430 41590
L59430 41640
L59400 41710
L59350 41760
L59310 41780
L59210 41800
L59140 41800
L59050 41780
L59000 41760
L58950 41710
L58930 41640
L58930 41590
L58950 41520
L58970 41500
" />
<path d="M58930 41350
L59430 41190
L58930 41020
" />
</g>
<g style="fill:#840000; fill-opacity:0.0; 
stroke:#840000; stroke-width:60; stroke-opacity:1; 
stroke-linecap:round; stroke-linejoin:round;">
<path d="M58580 42680
L58580 42920
L58810 42940
L58790 42920
L58770 42870
L58770 42750
L58790 42710
L58810 42680
L58860 42660
L58980 42660
L59030 42680
L59050 42710
L59080 42750
L59080 42870
L59050 42920
L59030 42940
" />
<path d="M54200 39000
L52700 39000
" />
</g>
<g style="fill:#008484; fill-opacity:0.0; 
stroke:#008484; stroke-width:60; stroke-opacity:1; 
stroke-linecap:round; stroke-linejoin:round;">
<path d="M54650 38730
L54930 38730
" />
<path d="M54790 39230
L54790 38730
" />
<path d="M55100 39230
L55100 38730
" />
<path d="M55100 38960
L55380 38960
" />
<path d="M55380 39230
L55380 38730
" />
<path d="M55900 39230
L55740 38990
" />
<path d="M55620 39230
L55620 38730
L55810 38730
L55860 38750
L55880 38770
L55900 38820
L55900 38890
L55880 38940
L55860 38960
L55810 38990
L55620 38990
" />
</g>
<g style="fill:#840000; fill-opacity:0.0; 
stroke:#840000; stroke-width:60; stroke-opacity:1; 
stroke-linecap:round; stroke-linejoin:round;">
<path d="M53540 38380
L53450 38380
L53400 38400
L53380 38420
L53330 38500
L53310 38590
L53310 38780
L53330 38830
L53350 38850
L53400 38880
L53500 38880
L53540 38850
L53570 38830
L53590 38780
L53590 38660
L53570 38610
L53540 38590
L53500 38570
L53400 38570
L53350 38590
L53330 38610
L53310 38660
" />
<path d="M54200 36000
L52700 36000
" />
</g>
<g style="fill:#008484; fill-opacity:0.0; 
stroke:#008484; stroke-width:60; stroke-opacity:1; 
stroke-linecap:round; stroke-linejoin:round;">
<path d="M54720 36230
L54720 35730
L54840 35730
L54910 35750
L54960 35800
L54980 35850
L55000 35940
L55000 36010
L54980 36110
L54960 36150
L54910 36200
L54840 36230
L54720 36230
" />
<path d="M55220 36230
L55220 35730
" />
<path d="M55440 36200
L55510 36230
L55630 36230
L55670 36200
L55700 36180
L55720 36130
L55720 36080
L55700 36040
L55670 36010
L55630 35990
L55530 35960
L55480 35940
L55460 35920
L55440 35870
L55440 35820
L55460 35770
L55480 35750
L55530 35730
L55650 35730
L55720 35750
" />
</g>
<g style="fill:#840000; fill-opacity:0.0; 
stroke:#840000; stroke-width:60; stroke-opacity:1; 
stroke-linecap:round; stroke-linejoin:round;">
<path d="M53280 35380
L53610 35380
L53400 35880
" />
</g>
<g style="fill:#008484; fill-opacity:0.0; 
stroke:#008484; stroke-width:60; stroke-opacity:1; 
stroke-linecap:round; stroke-linejoin:round;">
<path d="M53220 31560
L53220 31960
L53240 32010
L53270 32030
L53310 32060
L53410 32060
L53460 32030
L53480 32010
L53500 31960
L53500 31560
" />
<path d="M54000 32060
L53720 32060
" />
<path d="M53860 32060
L53860 31560
L53810 31630
L53760 31680
L53720 31700
" />
<path d="M58100 38740
L58100 39110
L57310 39110
" />
<path d="M58100 38470
L57310 38470
L57880 38210
L57310 37950
L58100 37950
" />
<path d="M57310 37200
L57310 37570
L57690 37610
L57650 37570
L57610 37500
L57610 37310
L57650 37230
L57690 37200
L57760 37160
L57950 37160
L58030 37200
L58060 37230
L58100 37310
L58100 37500
L58060 37570
L58030 37610
" />
<path d="M57310 36450
L57310 36820
L57690 36860
L57650 36820
L57610 36750
L57610 36560
L57650 36480
L57690 36450
L57760 36410
L57950 36410
L58030 36450
L58060 36480
L58100 36560
L58100 36750
L58060 36820
L58030 36860
" />
<path d="M57310 35700
L57310 36070
L57690 36110
L57650 36070
L57610 36000
L57610 35810
L57650 35730
L57690 35700
L57760 35660
L57950 35660
L58030 35700
L58060 35730
L58100 35810
L58100 36000
L58060 36070
L58030 36110
" />
<path d="M58100 35320
L57310 35320
L58100 34870
L57310 34870
" />
</g>
<g style="fill:#008484; fill-opacity:0.0; 
stroke:#008484; stroke-width:0; stroke-opacity:1; 
stroke-linecap:round; stroke-linejoin:round;">
</g>
<g style="fill:#840000; fill-opacity:0.0; 
stroke:#840000; stroke-width:0; stroke-opacity:1; 
stroke-linecap:round; stroke-linejoin:round;">
</g>
<g style="fill:#840000; fill-opacity:0.0; 
stroke:#840000; stroke-width:60; stroke-opacity:1; 
stroke-linecap:round; stroke-linejoin:round;">
<circle cx="36700" cy="26750" r="250" /> 
<polyline fill="none;"
points="36700,27500
36700,27000
" /> 
</g>
<g style="fill:#008484; fill-opacity:0.0; 
stroke:#008484; stroke-width:60; stroke-opacity:1; 
stroke-linecap:round; stroke-linejoin:round;">
<path d="M36040 25760
L36200 26260
L36370 25760
" />
<path d="M36820 26210
L36800 26230
L36730 26260
L36680 26260
L36610 26230
L36560 26180
L36540 26140
L36520 26040
L36520 25970
L36540 25880
L36560 25830
L36610 25780
L36680 25760
L36730 25760
L36800 25780
L36820 25800
" />
<path d="M37320 26210
L37300 26230
L37230 26260
L37180 26260
L37110 26230
L37060 26180
L37040 26140
L37020 26040
L37020 25970
L37040 25880
L37060 25830
L37110 25780
L37180 25760
L37230 25760
L37300 25780
L37320 25800
" />
</g>
<g style="fill:#008484; fill-opacity:0.0; 
stroke:#008484; stroke-width:0; stroke-opacity:1; 
stroke-linecap:round; stroke-linejoin:round;">
</g>
<g style="fill:#840000; fill-opacity:0.0; 
stroke:#840000; stroke-width:0; stroke-opacity:1; 
stroke-linecap:round; stroke-linejoin:round;">
</g>
<g style="fill:#840000; fill-opacity:0.0; 
stroke:#840000; stroke-width:60; stroke-opacity:1; 
stroke-linecap:round; stroke-linejoin:round;">
<polyline fill="none;"
points="36700,47100
36700,47600
37200,47600
36700,48100
36200,47600
36700,47600
" /> 
</g>
<g style="fill:#008484; fill-opacity:0.0; 
stroke:#008484; stroke-width:60; stroke-opacity:1; 
stroke-linecap:round; stroke-linejoin:round;">
<path d="M36320 48380
L36270 48360
L36200 48360
L36130 48380
L36080 48430
L36060 48480
L36040 48570
L36040 48640
L36060 48740
L36080 48780
L36130 48830
L36200 48860
L36250 48860
L36320 48830
L36340 48810
L36340 48640
L36250 48640
" />
<path d="M36560 48860
L36560 48360
L36840 48860
L36840 48360
" />
<path d="M37080 48860
L37080 48360
L37200 48360
L37270 48380
L37320 48430
L37340 48480
L37360 48570
L37360 48640
L37340 48740
L37320 48780
L37270 48830
L37200 48860
L37080 48860
" />
</g>
<g style="fill:#008484; fill-opacity:0.0; 
stroke:#008484; stroke-width:0; stroke-opacity:1; 
stroke-linecap:round; stroke-linejoin:round;">
</g>
<g style="fill:#840000; fill-opacity:0.0; 
stroke:#840000; stroke-width:0; stroke-opacity:1; 
stroke-linecap:round; stroke-linejoin:round;">
</g>
<g style="fill:#840000; fill-opacity:0.0; 
stroke:#840000; stroke-width:130; stroke-opacity:1; 
stroke-linecap:round; stroke-linejoin:round;">
<polyline fill="none;"
points="36100,35200
37300,35200
" /> 
</g>
<g style="fill:#840000; fill-opacity:0.0; 
stroke:#840000; stroke-width:120; stroke-opacity:1; 
stroke-linecap:round; stroke-linejoin:round;">
<polyline fill="none;"
points="36100,34800
37300,34800
" /> 
</g>
<g style="fill:#840000; fill-opacity:0.0; 
stroke:#840000; stroke-width:60; stroke-opacity:1; 
stroke-linecap:round; stroke-linejoin:round;">
<path d="M36700 34750
L36700 34000
" />
<path d="M36700 35200
L36700 36000
" />
</g>
<g style="fill:#008484; fill-opacity:0.0; 
stroke:#008484; stroke-width:60; stroke-opacity:1; 
stroke-linecap:round; stroke-linejoin:round;">
<path d="M37200 34510
L37180 34530
L37110 34560
L37060 34560
L36990 34530
L36940 34480
L36920 34440
L36900 34340
L36900 34270
L36920 34180
L36940 34130
L36990 34080
L37060 34060
L37110 34060
L37180 34080
L37200 34100
" />
<path d="M37680 34560
L37400 34560
" />
<path d="M37540 34560
L37540 34060
L37490 34130
L37440 34180
L37400 34200
" />
<path d="M35480 36060
L35200 36060
" />
<path d="M35340 36060
L35340 35560
L35290 35630
L35240 35680
L35200 35700
" />
<path d="M35790 35560
L35840 35560
L35890 35580
L35910 35600
L35940 35650
L35960 35750
L35960 35870
L35940 35960
L35910 36010
L35890 36030
L35840 36060
L35790 36060
L35750 36030
L35720 36010
L35700 35960
L35680 35870
L35680 35750
L35700 35650
L35720 35600
L35750 35580
L35790 35560
" />
<path d="M36180 35720
L36180 36060
" />
<path d="M36180 35770
L36200 35750
L36250 35720
L36320 35720
L36370 35750
L36390 35790
L36390 36060
" />
</g>
<g style="fill:#008484; fill-opacity:0.0; 
stroke:#008484; stroke-width:0; stroke-opacity:1; 
stroke-linecap:round; stroke-linejoin:round;">
</g>
<g style="fill:#840000; fill-opacity:0.0; 
stroke:#840000; stroke-width:0; stroke-opacity:1; 
stroke-linecap:round; stroke-linejoin:round;">
</g>
<g style="fill:#840000; fill-opacity:0.0; 
stroke:#840000; stroke-width:60; stroke-opacity:1; 
stroke-linecap:round; stroke-linejoin:round;">
<circle cx="41700" cy="30100" r="100" /> 
<circle cx="41700" cy="31900" r="100" /> 
<polyline fill="none;"
points="42000,29900
42000,32100
" /> 
<polyline fill="none;"
points="42000,29900
42100,29900
42100,32100
42000,32100
" /> 
<polyline fill="none;"
points="42100,30500
42300,30600
42300,31400
42100,31500
" /> 
<path d="M41700 30000
L41700 29500
" />
<path d="M41700 32000
L41700 32500
" />
</g>
<g style="fill:#008484; fill-opacity:0.0; 
stroke:#008484; stroke-width:60; stroke-opacity:1; 
stroke-linecap:round; stroke-linejoin:round;">
<path d="M42540 30430
L42610 30460
L42730 30460
L42770 30430
L42800 30410
L42820 30360
L42820 30310
L42800 30270
L42770 30240
L42730 30220
L42630 30190
L42580 30170
L42560 30150
L42540 30100
L42540 30050
L42560 30000
L42580 29980
L42630 29960
L42750 29960
L42820 29980
" />
<path d="M42990 29960
L43110 30460
L43210 30100
L43300 30460
L43420 29960
" />
<path d="M43870 30460
L43590 30460
" />
<path d="M43730 30460
L43730 29960
L43680 30030
L43630 30080
L43590 30100
" />
</g>
<g style="fill:#008484; fill-opacity:0.0; 
stroke:#008484; stroke-width:0; stroke-opacity:1; 
stroke-linecap:round; stroke-linejoin:round;">
</g>
<g style="fill:#840000; fill-opacity:0.0; 
stroke:#840000; stroke-width:0; stroke-opacity:1; 
stroke-linecap:round; stroke-linejoin:round;">
</g>
<g style="fill:#840000; fill-opacity:0.0; 
stroke:#840000; stroke-width:60; stroke-opacity:1; 
stroke-linecap:round; stroke-linejoin:round;">
<polyline fill="none;"
points="45500,32600
45500,33400
" /> 
</g>
<g style="fill:#840000; fill-opacity:1.0; 
stroke:#840000; stroke-width:60; stroke-opacity:1; 
stroke-linecap:round; stroke-linejoin:round;">
<polyline style="fill-rule:evenodd;"
points="44900,32600
45500,33000
44900,33400
44900,32600
" /> 
</g>
<g style="fill:#840000; fill-opacity:0.0; 
stroke:#840000; stroke-width:60; stroke-opacity:1; 
stroke-linecap:round; stroke-linejoin:round;">
<path d="M45500 33000
L46200 33000
" />
<path d="M44900 33000
L44200 33000
" />
</g>
<g style="fill:#008484; fill-opacity:0.0; 
stroke:#008484; stroke-width:60; stroke-opacity:1; 
stroke-linecap:round; stroke-linejoin:round;">
<path d="M44840 33990
L44840 33490
L44960 33490
L45030 33510
L45080 33560
L45100 33610
L45120 33700
L45120 33770
L45100 33870
L45080 33910
L45030 33960
L44960 33990
L44840 33990
" />
<path d="M45320 33530
L45340 33510
L45390 33490
L45510 33490
L45550 33510
L45580 33530
L45600 33580
L45600 33630
L45580 33700
L45290 33990
L45600 33990
" />
<path d="M44160 32390
L43880 32390
" />
<path d="M44020 32390
L44020 31890
L43970 31960
L43920 32010
L43880 32030
" />
<path d="M44380 32390
L44380 31890
L44660 32390
L44660 31890
" />
<path d="M45110 32050
L45110 32390
" />
<path d="M44990 31860
L44880 32220
L45180 32220
" />
<path d="M45640 32390
L45360 32390
" />
<path d="M45500 32390
L45500 31890
L45450 31960
L45400 32010
L45360 32030
" />
<path d="M46070 32050
L46070 32390
" />
<path d="M45950 31860
L45840 32220
L46140 32220
" />
<path d="M46410 32100
L46360 32080
L46340 32050
L46320 32010
L46320 31980
L46340 31930
L46360 31910
L46410 31890
L46510 31890
L46550 31910
L46580 31930
L46600 31980
L46600 32010
L46580 32050
L46550 32080
L46510 32100
L46410 32100
L46360 32120
L46340 32150
L46320 32200
L46320 32290
L46340 32340
L46360 32360
L46410 32390
L46510 32390
L46550 32360
L46580 32340
L46600 32290
L46600 32200
L46580 32150
L46550 32120
L46510 32100
" />
</g>
<g style="fill:#008484; fill-opacity:0.0; 
stroke:#008484; stroke-width:0; stroke-opacity:1; 
stroke-linecap:round; stroke-linejoin:round;">
</g>
<g style="fill:#840000; fill-opacity:0.0; 
stroke:#840000; stroke-width:0; stroke-opacity:1; 
stroke-linecap:round; stroke-linejoin:round;">
</g>
<g style="fill:#840000; fill-opacity:0.0; 
stroke:#840000; stroke-width:60; stroke-opacity:1; 
stroke-linecap:round; stroke-linejoin:round;">
<polyline fill="none;"
points="42100,36300
41300,36300
" /> 
</g>
<g style="fill:#840000; fill-opacity:1.0; 
stroke:#840000; stroke-width:60; stroke-opacity:1; 
stroke-linecap:round; stroke-linejoin:round;">
<polyline style="fill-rule:evenodd;"
points="42100,35700
41700,36300
41300,35700
42100,35700
" /> 
</g>
<g style="fill:#840000; fill-opacity:0.0; 
stroke:#840000; stroke-width:60; stroke-opacity:1; 
stroke-linecap:round; stroke-linejoin:round;">
<path d="M41700 36300
L41700 37000
" />
<path d="M41700 35700
L41700 35000
" />
</g>
<g style="fill:#008484; fill-opacity:0.0; 
stroke:#008484; stroke-width:60; stroke-opacity:1; 
stroke-linecap:round; stroke-linejoin:round;">
<path d="M40140 36290
L40140 35790
L40260 35790
L40330 35810
L40380 35860
L40400 35910
L40420 36000
L40420 36070
L40400 36170
L40380 36210
L40330 36260
L40260 36290
L40140 36290
" />
<path d="M40900 36290
L40620 36290
" />
<path d="M40760 36290
L40760 35790
L40710 35860
L40660 35910
L40620 35930
" />
<path d="M42760 37120
L42760 37400
" />
<path d="M42760 37260
L42260 37260
L42330 37310
L42380 37360
L42400 37400
" />
<path d="M42760 36900
L42260 36900
L42760 36620
L42260 36620
" />
<path d="M42420 36170
L42760 36170
" />
<path d="M42230 36290
L42590 36400
L42590 36100
" />
<path d="M42760 35640
L42760 35920
" />
<path d="M42760 35780
L42260 35780
L42330 35830
L42380 35880
L42400 35920
" />
<path d="M42420 35210
L42760 35210
" />
<path d="M42230 35330
L42590 35440
L42590 35140
" />
<path d="M42470 34870
L42450 34920
L42420 34940
L42380 34960
L42350 34960
L42300 34940
L42280 34920
L42260 34870
L42260 34770
L42280 34730
L42300 34700
L42350 34680
L42380 34680
L42420 34700
L42450 34730
L42470 34770
L42470 34870
L42490 34920
L42520 34940
L42570 34960
L42660 34960
L42710 34940
L42730 34920
L42760 34870
L42760 34770
L42730 34730
L42710 34700
L42660 34680
L42570 34680
L42520 34700
L42490 34730
L42470 34770
" />
</g>
<g style="fill:#008484; fill-opacity:0.0; 
stroke:#008484; stroke-width:0; stroke-opacity:1; 
stroke-linecap:round; stroke-linejoin:round;">
</g>
<g style="fill:#840000; fill-opacity:0.0; 
stroke:#840000; stroke-width:0; stroke-opacity:1; 
stroke-linecap:round; stroke-linejoin:round;">
</g>
<g style="fill:#840000; fill-opacity:1.0; 
stroke:#840000; stroke-width:60; stroke-opacity:1; 
stroke-linecap:round; stroke-linejoin:round;">
<rect x="41100" y="42620" width="1200" height="150" rx="0" />
</g>
<g style="fill:#840000; fill-opacity:0.0; 
stroke:#840000; stroke-width:60; stroke-opacity:1; 
stroke-linecap:round; stroke-linejoin:round;">
<rect x="41100" y="42230" width="1200" height="150" rx="0" />
<polyline fill="none;"
points="41200,41900
41400,41900
" /> 
<polyline fill="none;"
points="41300,42000
41300,41800
" /> 
<path d="M41700 42230
L41700 41500
" />
<path d="M41700 42770
L41700 43500
" />
</g>
<g style="fill:#008484; fill-opacity:0.0; 
stroke:#008484; stroke-width:60; stroke-opacity:1; 
stroke-linecap:round; stroke-linejoin:round;">
<path d="M42200 42010
L42180 42030
L42110 42060
L42060 42060
L41990 42030
L41940 41980
L41920 41940
L41900 41840
L41900 41770
L41920 41680
L41940 41630
L41990 41580
L42060 41560
L42110 41560
L42180 41580
L42200 41600
" />
<path d="M42400 41600
L42420 41580
L42470 41560
L42590 41560
L42630 41580
L42660 41600
L42680 41650
L42680 41700
L42660 41770
L42370 42060
L42680 42060
" />
<path d="M42180 43560
L41900 43560
" />
<path d="M42040 43560
L42040 43060
L41990 43130
L41940 43180
L41900 43200
" />
<path d="M42490 43060
L42540 43060
L42590 43080
L42610 43100
L42640 43150
L42660 43250
L42660 43370
L42640 43460
L42610 43510
L42590 43530
L42540 43560
L42490 43560
L42450 43530
L42420 43510
L42400 43460
L42380 43370
L42380 43250
L42400 43150
L42420 43100
L42450 43080
L42490 43060
" />
<path d="M43090 43220
L43090 43560
" />
<path d="M42880 43220
L42880 43480
L42900 43530
L42950 43560
L43020 43560
L43070 43530
L43090 43510
" />
</g>
<g style="fill:#008484; fill-opacity:0.0; 
stroke:#008484; stroke-width:0; stroke-opacity:1; 
stroke-linecap:round; stroke-linejoin:round;">
</g>
<g style="fill:#840000; fill-opacity:0.0; 
stroke:#840000; stroke-width:0; stroke-opacity:1; 
stroke-linecap:round; stroke-linejoin:round;">
</g>
<g style="fill:#840000; fill-opacity:0.0; 
stroke:#840000; stroke-width:80; stroke-opacity:1; 
stroke-linecap:round; stroke-linejoin:round;">
<rect x="38900" y="41800" width="600" height="1400" rx="0" />
</g>
<g style="fill:#840000; fill-opacity:0.0; 
stroke:#840000; stroke-width:60; stroke-opacity:1; 
stroke-linecap:round; stroke-linejoin:round;">
<path d="M39200 41800
L39200 41500
" />
<path d="M39200 43200
L39200 43500
" />
</g>
<g style="fill:#008484; fill-opacity:0.0; 
stroke:#008484; stroke-width:60; stroke-opacity:1; 
stroke-linecap:round; stroke-linejoin:round;">
<path d="M39900 42560
L39740 42320
" />
<path d="M39620 42560
L39620 42060
L39810 42060
L39860 42080
L39880 42100
L39900 42150
L39900 42220
L39880 42270
L39860 42290
L39810 42320
L39620 42320
" />
<path d="M40380 42560
L40100 42560
" />
<path d="M40240 42560
L40240 42060
L40190 42130
L40140 42180
L40100 42200
" />
<path d="M39830 42820
L39830 43160
" />
<path d="M39710 42630
L39600 42990
L39900 42990
" />
<path d="M40050 42660
L40380 42660
L40170 43160
" />
<path d="M40580 43160
L40580 42660
" />
<path d="M40630 42970
L40770 43160
" />
<path d="M40770 42820
L40580 43010
" />
</g>
<g style="fill:#008484; fill-opacity:0.0; 
stroke:#008484; stroke-width:0; stroke-opacity:1; 
stroke-linecap:round; stroke-linejoin:round;">
</g>
<g style="fill:#840000; fill-opacity:0.0; 
stroke:#840000; stroke-width:0; stroke-opacity:1; 
stroke-linecap:round; stroke-linejoin:round;">
</g>
<g style="fill:#840000; fill-opacity:0.0; 
stroke:#840000; stroke-width:80; stroke-opacity:1; 
stroke-linecap:round; stroke-linejoin:round;">
<rect x="47900" y="30300" width="600" height="1400" rx="0" />
</g>
<g style="fill:#840000; fill-opacity:0.0; 
stroke:#840000; stroke-width:60; stroke-opacity:1; 
stroke-linecap:round; stroke-linejoin:round;">
<path d="M48200 30300
L48200 30000
" />
<path d="M48200 31700
L48200 32000
" />
</g>
<g style="fill:#008484; fill-opacity:0.0; 
stroke:#008484; stroke-width:60; stroke-opacity:1; 
stroke-linecap:round; stroke-linejoin:round;">
<path d="M48900 31060
L48740 30820
" />
<path d="M48620 31060
L48620 30560
L48810 30560
L48860 30580
L48880 30600
L48900 30650
L48900 30720
L48880 30770
L48860 30790
L48810 30820
L48620 30820
" />
<path d="M49100 30600
L49120 30580
L49170 30560
L49290 30560
L49330 30580
L49360 30600
L49380 30650
L49380 30700
L49360 30770
L49070 31060
L49380 31060
" />
<path d="M48830 31320
L48830 31660
" />
<path d="M48710 31130
L48600 31490
L48900 31490
" />
<path d="M49050 31160
L49380 31160
L49170 31660
" />
<path d="M49580 31660
L49580 31160
" />
<path d="M49630 31470
L49770 31660
" />
<path d="M49770 31320
L49580 31510
" />
</g>
<g style="fill:#008484; fill-opacity:0.0; 
stroke:#008484; stroke-width:0; stroke-opacity:1; 
stroke-linecap:round; stroke-linejoin:round;">
</g>
<g style="fill:#840000; fill-opacity:0.0; 
stroke:#840000; stroke-width:0; stroke-opacity:1; 
stroke-linecap:round; stroke-linejoin:round;">
</g>
<g style="fill:#840000; fill-opacity:0.0; 
stroke:#840000; stroke-width:80; stroke-opacity:1; 
stroke-linecap:round; stroke-linejoin:round;">
<rect x="47900" y="33800" width="600" height="1400" rx="0" />
</g>
<g style="fill:#840000; fill-opacity:0.0; 
stroke:#840000; stroke-width:60; stroke-opacity:1; 
stroke-linecap:round; stroke-linejoin:round;">
<path d="M48200 33800
L48200 33500
" />
<path d="M48200 35200
L48200 35500
" />
</g>
<g style="fill:#008484; fill-opacity:0.0; 
stroke:#008484; stroke-width:60; stroke-opacity:1; 
stroke-linecap:round; stroke-linejoin:round;">
<path d="M48900 34560
L48740 34320
" />
<path d="M48620 34560
L48620 34060
L48810 34060
L48860 34080
L48880 34100
L48900 34150
L48900 34220
L48880 34270
L48860 34290
L48810 34320
L48620 34320
" />
<path d="M49070 34060
L49380 34060
L49210 34250
L49290 34250
L49330 34270
L49360 34290
L49380 34340
L49380 34460
L49360 34510
L49330 34530
L49290 34560
L49140 34560
L49100 34530
L49070 34510
" />
<path d="M48830 34820
L48830 35160
" />
<path d="M48710 34630
L48600 34990
L48900 34990
" />
<path d="M49050 34660
L49380 34660
L49170 35160
" />
<path d="M49580 35160
L49580 34660
" />
<path d="M49630 34970
L49770 35160
" />
<path d="M49770 34820
L49580 35010
" />
</g>
<g style="fill:#008484; fill-opacity:0.0; 
stroke:#008484; stroke-width:0; stroke-opacity:1; 
stroke-linecap:round; stroke-linejoin:round;">
</g>
<g style="fill:#840000; fill-opacity:0.0; 
stroke:#840000; stroke-width:0; stroke-opacity:1; 
stroke-linecap:round; stroke-linejoin:round;">
</g>
<g style="fill:#840000; fill-opacity:0.0; 
stroke:#840000; stroke-width:80; stroke-opacity:1; 
stroke-linecap:round; stroke-linejoin:round;">
<rect x="47900" y="36800" width="600" height="1400" rx="0" />
</g>
<g style="fill:#840000; fill-opacity:0.0; 
stroke:#840000; stroke-width:60; stroke-opacity:1; 
stroke-linecap:round; stroke-linejoin:round;">
<path d="M48200 36800
L48200 36500
" />
<path d="M48200 38200
L48200 38500
" />
</g>
<g style="fill:#008484; fill-opacity:0.0; 
stroke:#008484; stroke-width:60; stroke-opacity:1; 
stroke-linecap:round; stroke-linejoin:round;">
<path d="M48900 37560
L48740 37320
" />
<path d="M48620 37560
L48620 37060
L48810 37060
L48860 37080
L48880 37100
L48900 37150
L48900 37220
L48880 37270
L48860 37290
L48810 37320
L48620 37320
" />
<path d="M49330 37220
L49330 37560
" />
<path d="M49210 37030
L49100 37390
L49400 37390
" />
<path d="M48830 37820
L48830 38160
" />
<path d="M48710 37630
L48600 37990
L48900 37990
" />
<path d="M49050 37660
L49380 37660
L49170 38160
" />
<path d="M49580 38160
L49580 37660
" />
<path d="M49630 37970
L49770 38160
" />
<path d="M49770 37820
L49580 38010
" />
</g>
<g style="fill:#008484; fill-opacity:0.0; 
stroke:#008484; stroke-width:0; stroke-opacity:1; 
stroke-linecap:round; stroke-linejoin:round;">
</g>
<g style="fill:#840000; fill-opacity:0.0; 
stroke:#840000; stroke-width:0; stroke-opacity:1; 
stroke-linecap:round; stroke-linejoin:round;">
</g>
<g style="fill:#840000; fill-opacity:0.0; 
stroke:#840000; stroke-width:130; stroke-opacity:1; 
stroke-linecap:round; stroke-linejoin:round;">
<polyline fill="none;"
points="47600,45100
48800,45100
" /> 
</g>
<g style="fill:#840000; fill-opacity:0.0; 
stroke:#840000; stroke-width:120; stroke-opacity:1; 
stroke-linecap:round; stroke-linejoin:round;">
<polyline fill="none;"
points="47600,44700
48800,44700
" /> 
</g>
<g style="fill:#840000; fill-opacity:0.0; 
stroke:#840000; stroke-width:60; stroke-opacity:1; 
stroke-linecap:round; stroke-linejoin:round;">
<path d="M48200 44650
L48200 43900
" />
<path d="M48200 45100
L48200 45900
" />
</g>
<g style="fill:#008484; fill-opacity:0.0; 
stroke:#008484; stroke-width:60; stroke-opacity:1; 
stroke-linecap:round; stroke-linejoin:round;">
<path d="M48700 44410
L48680 44430
L48610 44460
L48560 44460
L48490 44430
L48440 44380
L48420 44340
L48400 44240
L48400 44170
L48420 44080
L48440 44030
L48490 43980
L48560 43960
L48610 43960
L48680 43980
L48700 44000
" />
<path d="M48870 43960
L49180 43960
L49010 44150
L49090 44150
L49130 44170
L49160 44190
L49180 44240
L49180 44360
L49160 44410
L49130 44430
L49090 44460
L48940 44460
L48900 44430
L48870 44410
" />
<path d="M48680 45960
L48400 45960
" />
<path d="M48540 45960
L48540 45460
L48490 45530
L48440 45580
L48400 45600
" />
<path d="M48990 45460
L49040 45460
L49090 45480
L49110 45500
L49140 45550
L49160 45650
L49160 45770
L49140 45860
L49110 45910
L49090 45930
L49040 45960
L48990 45960
L48950 45930
L48920 45910
L48900 45860
L48880 45770
L48880 45650
L48900 45550
L48920 45500
L48950 45480
L48990 45460
" />
<path d="M49380 45620
L49380 45960
" />
<path d="M49380 45670
L49400 45650
L49450 45620
L49520 45620
L49570 45650
L49590 45690
L49590 45960
" />
</g>
<g style="fill:#008484; fill-opacity:0.0; 
stroke:#008484; stroke-width:0; stroke-opacity:1; 
stroke-linecap:round; stroke-linejoin:round;">
</g>
<g style="fill:#840000; fill-opacity:0.0; 
stroke:#840000; stroke-width:0; stroke-opacity:1; 
stroke-linecap:round; stroke-linejoin:round;">
</g>
<g style="fill:#840000; fill-opacity:1.0; 
stroke:#840000; stroke-width:60; stroke-opacity:1; 
stroke-linecap:round; stroke-linejoin:round;">
<rect x="66320" y="35900" width="150" height="1200" rx="0" />
</g>
<g style="fill:#840000; fill-opacity:0.0; 
stroke:#840000; stroke-width:60; stroke-opacity:1; 
stroke-linecap:round; stroke-linejoin:round;">
<rect x="65930" y="35900" width="150" height="1200" rx="0" />
<polyline fill="none;"
points="65600,37000
65600,36800
" /> 
<polyline fill="none;"
points="65700,36900
65500,36900
" /> 
<path d="M65930 36500
L65200 36500
" />
<path d="M66470 36500
L67200 36500
" />
</g>
<g style="fill:#008484; fill-opacity:0.0; 
stroke:#008484; stroke-width:60; stroke-opacity:1; 
stroke-linecap:round; stroke-linejoin:round;">
<path d="M65120 35740
L65100 35760
L65030 35790
L64980 35790
L64910 35760
L64860 35710
L64840 35670
L64820 35570
L64820 35500
L64840 35410
L64860 35360
L64910 35310
L64980 35290
L65030 35290
L65100 35310
L65120 35330
" />
<path d="M65580 35290
L65340 35290
L65320 35520
L65340 35500
L65390 35480
L65510 35480
L65550 35500
L65580 35520
L65600 35570
L65600 35690
L65580 35740
L65550 35760
L65510 35790
L65390 35790
L65340 35760
L65320 35740
" />
<path d="M65770 37790
L65490 37790
" />
<path d="M65630 37790
L65630 37290
L65580 37360
L65530 37410
L65490 37430
" />
<path d="M66080 37290
L66130 37290
L66180 37310
L66200 37330
L66230 37380
L66250 37480
L66250 37600
L66230 37690
L66200 37740
L66180 37760
L66130 37790
L66080 37790
L66040 37760
L66010 37740
L65990 37690
L65970 37600
L65970 37480
L65990 37380
L66010 37330
L66040 37310
L66080 37290
" />
<path d="M66680 37450
L66680 37790
" />
<path d="M66470 37450
L66470 37710
L66490 37760
L66540 37790
L66610 37790
L66660 37760
L66680 37740
" />
</g>
<g style="fill:#008484; fill-opacity:0.0; 
stroke:#008484; stroke-width:0; stroke-opacity:1; 
stroke-linecap:round; stroke-linejoin:round;">
</g>
<g style="fill:#840000; fill-opacity:0.0; 
stroke:#840000; stroke-width:0; stroke-opacity:1; 
stroke-linecap:round; stroke-linejoin:round;">
</g>
<g style="fill:#840000; fill-opacity:0.0; 
stroke:#840000; stroke-width:60; stroke-opacity:1; 
stroke-linecap:round; stroke-linejoin:round;">
<polyline fill="none;"
points="74700,36000
76200,34500
76200,40500
74700,39000
" /> 
</g>
<g style="fill:#840000; fill-opacity:1.0; 
stroke:#840000; stroke-width:60; stroke-opacity:1; 
stroke-linecap:round; stroke-linejoin:round;">
<polyline style="fill-rule:evenodd;"
points="72700,36000
74700,36000
74700,39000
72700,39000
72700,36000
" /> 
</g>
<g style="fill:#840000; fill-opacity:0.0; 
stroke:#840000; stroke-width:60; stroke-opacity:1; 
stroke-linecap:round; stroke-linejoin:round;">
<path d="M72700 36500
L70700 36500
" />
</g>
<g style="fill:#008484; fill-opacity:0.0; 
stroke:#008484; stroke-width:60; stroke-opacity:1; 
stroke-linecap:round; stroke-linejoin:round;">
<path d="M71810 36380
L71590 36380
" />
<path d="M71700 36380
L71700 35980
L71660 36040
L71620 36080
L71590 36100
" />
</g>
<g style="fill:#840000; fill-opacity:0.0; 
stroke:#840000; stroke-width:60; stroke-opacity:1; 
stroke-linecap:round; stroke-linejoin:round;">
<path d="M72700 38500
L70700 38500
" />
</g>
<g style="fill:#008484; fill-opacity:0.0; 
stroke:#008484; stroke-width:60; stroke-opacity:1; 
stroke-linecap:round; stroke-linejoin:round;">
<path d="M71590 38020
L71610 38000
L71640 37980
L71740 37980
L71780 38000
L71800 38020
L71810 38060
L71810 38100
L71800 38150
L71570 38380
L71810 38380
" />
<path d="M72070 35230
L72140 35260
L72260 35260
L72300 35230
L72330 35210
L72350 35160
L72350 35110
L72330 35070
L72300 35040
L72260 35020
L72160 34990
L72110 34970
L72090 34950
L72070 34900
L72070 34850
L72090 34800
L72110 34780
L72160 34760
L72280 34760
L72350 34780
" />
<path d="M72570 35260
L72570 34760
L72760 34760
L72810 34780
L72830 34800
L72850 34850
L72850 34920
L72830 34970
L72810 34990
L72760 35020
L72570 35020
" />
<path d="M73330 35260
L73050 35260
" />
<path d="M73190 35260
L73190 34760
L73140 34830
L73090 34880
L73050 34900
" />
<path d="M71150 40230
L71220 40260
L71340 40260
L71380 40230
L71410 40210
L71430 40160
L71430 40110
L71410 40070
L71380 40040
L71340 40020
L71240 39990
L71190 39970
L71170 39950
L71150 39900
L71150 39850
L71170 39800
L71190 39780
L71240 39760
L71360 39760
L71430 39780
" />
<path d="M71650 40260
L71650 39760
L71840 39760
L71890 39780
L71910 39800
L71930 39850
L71930 39920
L71910 39970
L71890 39990
L71840 40020
L71650 40020
" />
<path d="M72150 39990
L72320 39990
" />
<path d="M72390 40260
L72150 40260
L72150 39760
L72390 39760
" />
<path d="M72580 40110
L72810 40110
" />
<path d="M72530 40260
L72690 39760
L72860 40260
" />
<path d="M73030 40260
L73030 39760
" />
<path d="M73310 40260
L73100 39970
" />
<path d="M73310 39760
L73030 40040
" />
<path d="M73530 39990
L73700 39990
" />
<path d="M73770 40260
L73530 40260
L73530 39760
L73770 39760
" />
<path d="M74260 40260
L74100 40020
" />
<path d="M73980 40260
L73980 39760
L74170 39760
L74220 39780
L74240 39800
L74260 39850
L74260 39920
L74240 39970
L74220 39990
L74170 40020
L73980 40020
" />
</g>
<g style="fill:#008400; fill-opacity:0.0; 
stroke:#008400; stroke-width:60; stroke-opacity:1; 
stroke-linecap:round; stroke-linejoin:round;">
<path d="M70700 36500
L67200 36500
" />
<path d="M48200 29500
L48200 30000
" />
</g>
<g style="fill:#008400; fill-opacity:0.0; 
stroke:#008400; stroke-width:0; stroke-opacity:1; 
stroke-linecap:round; stroke-linejoin:round;">
</g>
<g style="fill:#008400; fill-opacity:1.0; 
stroke:#008400; stroke-width:100; stroke-opacity:1; 
stroke-linecap:round; stroke-linejoin:round;">
<circle cx="41700" cy="29500" r="200" /> 
</g>
<g style="fill:#008400; fill-opacity:1.0; 
stroke:#008400; stroke-width:0; stroke-opacity:1; 
stroke-linecap:round; stroke-linejoin:round;">
</g>
<g style="fill:#008400; fill-opacity:1.0; 
stroke:#008400; stroke-width:100; stroke-opacity:1; 
stroke-linecap:round; stroke-linejoin:round;">
<circle cx="48200" cy="29500" r="200" /> 
</g>
<g style="fill:#008400; fill-opacity:1.0; 
stroke:#008400; stroke-width:0; stroke-opacity:1; 
stroke-linecap:round; stroke-linejoin:round;">
</g>
<g style="fill:#008400; fill-opacity:1.0; 
stroke:#008400; stroke-width:100; stroke-opacity:1; 
stroke-linecap:round; stroke-linejoin:round;">
<circle cx="36700" cy="29500" r="200" /> 
</g>
<g style="fill:#008400; fill-opacity:1.0; 
stroke:#008400; stroke-width:60; stroke-opacity:1; 
stroke-linecap:round; stroke-linejoin:round;">
</g>
<g style="fill:#008400; fill-opacity:0.0; 
stroke:#008400; stroke-width:60; stroke-opacity:1; 
stroke-linecap:round; stroke-linejoin:round;">
<path d="M36700 27500
L36700 34000
" />
<path d="M36700 36000
L36700 47100
" />
<path d="M41700 32500
L41700 35000
" />
<path d="M44200 33000
L41700 33000
" />
</g>
<g style="fill:#008400; fill-opacity:0.0; 
stroke:#008400; stroke-width:0; stroke-opacity:1; 
stroke-linecap:round; stroke-linejoin:round;">
</g>
<g style="fill:#008400; fill-opacity:1.0; 
stroke:#008400; stroke-width:100; stroke-opacity:1; 
stroke-linecap:round; stroke-linejoin:round;">
<circle cx="41700" cy="33000" r="200" /> 
</g>
<g style="fill:#008400; fill-opacity:1.0; 
stroke:#008400; stroke-width:60; stroke-opacity:1; 
stroke-linecap:round; stroke-linejoin:round;">
</g>
<g style="fill:#008400; fill-opacity:0.0; 
stroke:#008400; stroke-width:60; stroke-opacity:1; 
stroke-linecap:round; stroke-linejoin:round;">
<path d="M46200 33000
L48200 33000
" />
<path d="M48200 32000
L48200 33500
" />
</g>
<g style="fill:#008400; fill-opacity:0.0; 
stroke:#008400; stroke-width:0; stroke-opacity:1; 
stroke-linecap:round; stroke-linejoin:round;">
</g>
<g style="fill:#008400; fill-opacity:1.0; 
stroke:#008400; stroke-width:100; stroke-opacity:1; 
stroke-linecap:round; stroke-linejoin:round;">
<circle cx="48200" cy="33000" r="200" /> 
</g>
<g style="fill:#008400; fill-opacity:1.0; 
stroke:#008400; stroke-width:60; stroke-opacity:1; 
stroke-linecap:round; stroke-linejoin:round;">
</g>
<g style="fill:#008400; fill-opacity:0.0; 
stroke:#008400; stroke-width:60; stroke-opacity:1; 
stroke-linecap:round; stroke-linejoin:round;">
<path d="M36700 29500
L57700 29500
" />
<path d="M48200 35500
L48200 36500
" />
<path d="M48200 36000
L52700 36000
" />
<path d="M48200 39000
L52700 39000
" />
<path d="M48200 38500
L48200 43900
" />
<path d="M52700 40000
L52200 40000
" />
<path d="M52200 40000
L52200 39000
" />
</g>
<g style="fill:#008400; fill-opacity:0.0; 
stroke:#008400; stroke-width:0; stroke-opacity:1; 
stroke-linecap:round; stroke-linejoin:round;">
</g>
<g style="fill:#008400; fill-opacity:1.0; 
stroke:#008400; stroke-width:100; stroke-opacity:1; 
stroke-linecap:round; stroke-linejoin:round;">
<circle cx="52200" cy="39000" r="200" /> 
</g>
<g style="fill:#008400; fill-opacity:1.0; 
stroke:#008400; stroke-width:60; stroke-opacity:1; 
stroke-linecap:round; stroke-linejoin:round;">
</g>
<g style="fill:#008400; fill-opacity:0.0; 
stroke:#008400; stroke-width:60; stroke-opacity:1; 
stroke-linecap:round; stroke-linejoin:round;">
<path d="M39200 41000
L52700 41000
" />
</g>
<g style="fill:#008400; fill-opacity:0.0; 
stroke:#008400; stroke-width:0; stroke-opacity:1; 
stroke-linecap:round; stroke-linejoin:round;">
</g>
<g style="fill:#008400; fill-opacity:1.0; 
stroke:#008400; stroke-width:100; stroke-opacity:1; 
stroke-linecap:round; stroke-linejoin:round;">
<circle cx="48200" cy="36000" r="200" /> 
</g>
<g style="fill:#008400; fill-opacity:1.0; 
stroke:#008400; stroke-width:60; stroke-opacity:1; 
stroke-linecap:round; stroke-linejoin:round;">
</g>
<g style="fill:#008400; fill-opacity:0.0; 
stroke:#008400; stroke-width:60; stroke-opacity:1; 
stroke-linecap:round; stroke-linejoin:round;">
<path d="M41700 37000
L41700 41500
" />
<path d="M39200 41500
L39200 41000
" />
</g>
<g style="fill:#008400; fill-opacity:0.0; 
stroke:#008400; stroke-width:0; stroke-opacity:1; 
stroke-linecap:round; stroke-linejoin:round;">
</g>
<g style="fill:#008400; fill-opacity:1.0; 
stroke:#008400; stroke-width:100; stroke-opacity:1; 
stroke-linecap:round; stroke-linejoin:round;">
<circle cx="41700" cy="41000" r="200" /> 
</g>
<g style="fill:#008400; fill-opacity:1.0; 
stroke:#008400; stroke-width:60; stroke-opacity:1; 
stroke-linecap:round; stroke-linejoin:round;">
</g>
<g style="fill:#008400; fill-opacity:0.0; 
stroke:#008400; stroke-width:60; stroke-opacity:1; 
stroke-linecap:round; stroke-linejoin:round;">
<path d="M39200 43500
L39200 46600
" />
<path d="M36700 46600
L70700 46600
" />
</g>
<g style="fill:#008400; fill-opacity:0.0; 
stroke:#008400; stroke-width:0; stroke-opacity:1; 
stroke-linecap:round; stroke-linejoin:round;">
</g>
<g style="fill:#008400; fill-opacity:1.0; 
stroke:#008400; stroke-width:100; stroke-opacity:1; 
stroke-linecap:round; stroke-linejoin:round;">
<circle cx="36700" cy="46600" r="200" /> 
</g>
<g style="fill:#008400; fill-opacity:1.0; 
stroke:#008400; stroke-width:60; stroke-opacity:1; 
stroke-linecap:round; stroke-linejoin:round;">
</g>
<g style="fill:#008400; fill-opacity:0.0; 
stroke:#008400; stroke-width:60; stroke-opacity:1; 
stroke-linecap:round; stroke-linejoin:round;">
<path d="M41700 43500
L41700 46600
" />
</g>
<g style="fill:#008400; fill-opacity:0.0; 
stroke:#008400; stroke-width:0; stroke-opacity:1; 
stroke-linecap:round; stroke-linejoin:round;">
</g>
<g style="fill:#008400; fill-opacity:1.0; 
stroke:#008400; stroke-width:100; stroke-opacity:1; 
stroke-linecap:round; stroke-linejoin:round;">
<circle cx="39200" cy="46600" r="200" /> 
</g>
<g style="fill:#008400; fill-opacity:1.0; 
stroke:#008400; stroke-width:0; stroke-opacity:1; 
stroke-linecap:round; stroke-linejoin:round;">
</g>
<g style="fill:#008400; fill-opacity:1.0; 
stroke:#008400; stroke-width:100; stroke-opacity:1; 
stroke-linecap:round; stroke-linejoin:round;">
<circle cx="41700" cy="46600" r="200" /> 
</g>
<g style="fill:#008400; fill-opacity:1.0; 
stroke:#008400; stroke-width:0; stroke-opacity:1; 
stroke-linecap:round; stroke-linejoin:round;">
</g>
<g style="fill:#008400; fill-opacity:1.0; 
stroke:#008400; stroke-width:100; stroke-opacity:1; 
stroke-linecap:round; stroke-linejoin:round;">
<circle cx="55700" cy="46600" r="200" /> 
</g>
<g style="fill:#008400; fill-opacity:1.0; 
stroke:#008400; stroke-width:60; stroke-opacity:1; 
stroke-linecap:round; stroke-linejoin:round;">
</g>
<g style="fill:#008400; fill-opacity:0.0; 
stroke:#008400; stroke-width:60; stroke-opacity:1; 
stroke-linecap:round; stroke-linejoin:round;">
<path d="M62700 36500
L65200 36500
" />
<path d="M70700 46600
L70700 38500
" />
</g>
<g style="fill:#008400; fill-opacity:0.0; 
stroke:#008400; stroke-width:0; stroke-opacity:1; 
stroke-linecap:round; stroke-linejoin:round;">
</g>
<g style="fill:#008400; fill-opacity:1.0; 
stroke:#008400; stroke-width:100; stroke-opacity:1; 
stroke-linecap:round; stroke-linejoin:round;">
<circle cx="59200" cy="46600" r="200" /> 
</g>
<g style="fill:#008400; fill-opacity:1.0; 
stroke:#008400; stroke-width:0; stroke-opacity:1; 
stroke-linecap:round; stroke-linejoin:round;">
</g>
<g style="fill:#008400; fill-opacity:1.0; 
stroke:#008400; stroke-width:100; stroke-opacity:1; 
stroke-linecap:round; stroke-linejoin:round;">
<circle cx="48200" cy="39000" r="200" /> 
</g>
<g style="fill:#008400; fill-opacity:1.0; 
stroke:#008400; stroke-width:60; stroke-opacity:1; 
stroke-linecap:round; stroke-linejoin:round;">
</g>
<g style="fill:#008400; fill-opacity:0.0; 
stroke:#008400; stroke-width:60; stroke-opacity:1; 
stroke-linecap:round; stroke-linejoin:round;">
<path d="M48200 45900
L48200 46600
" />
</g>
<g style="fill:#008400; fill-opacity:0.0; 
stroke:#008400; stroke-width:0; stroke-opacity:1; 
stroke-linecap:round; stroke-linejoin:round;">
</g>
<g style="fill:#008400; fill-opacity:1.0; 
stroke:#008400; stroke-width:100; stroke-opacity:1; 
stroke-linecap:round; stroke-linejoin:round;">
<circle cx="48200" cy="46600" r="200" /> 
</g>
<g style="fill:#008400; fill-opacity:1.0; 
stroke:#008400; stroke-width:60; stroke-opacity:1; 
stroke-linecap:round; stroke-linejoin:round;">
</g>
<g style="fill:#008400; fill-opacity:0.0; 
stroke:#008400; stroke-width:60; stroke-opacity:1; 
stroke-linecap:round; stroke-linejoin:round;">
<path d="M57700 29500
L57700 30400
" />
</g>
<g style="fill:#008400; fill-opacity:0.0; 
stroke:#008400; stroke-width:0; stroke-opacity:1; 
stroke-linecap:round; stroke-linejoin:round;">
</g>
<g style="fill:#840000; fill-opacity:0.0; 
stroke:#840000; stroke-width:0; stroke-opacity:1; 
stroke-linecap:round; stroke-linejoin:round;">
</g>
<g style="fill:#840000; fill-opacity:0.0; 
stroke:#840000; stroke-width:130; stroke-opacity:1; 
stroke-linecap:round; stroke-linejoin:round;">
<polyline fill="none;"
points="58600,45200
59800,45200
" /> 
</g>
<g style="fill:#840000; fill-opacity:0.0; 
stroke:#840000; stroke-width:120; stroke-opacity:1; 
stroke-linecap:round; stroke-linejoin:round;">
<polyline fill="none;"
points="58600,44800
59800,44800
" /> 
</g>
<g style="fill:#840000; fill-opacity:0.0; 
stroke:#840000; stroke-width:60; stroke-opacity:1; 
stroke-linecap:round; stroke-linejoin:round;">
<path d="M59200 44750
L59200 44000
" />
<path d="M59200 45200
L59200 46000
" />
</g>
<g style="fill:#008484; fill-opacity:0.0; 
stroke:#008484; stroke-width:60; stroke-opacity:1; 
stroke-linecap:round; stroke-linejoin:round;">
<path d="M59700 44510
L59680 44530
L59610 44560
L59560 44560
L59490 44530
L59440 44480
L59420 44440
L59400 44340
L59400 44270
L59420 44180
L59440 44130
L59490 44080
L59560 44060
L59610 44060
L59680 44080
L59700 44100
" />
<path d="M60130 44220
L60130 44560
" />
<path d="M60010 44030
L59900 44390
L60200 44390
" />
<path d="M59680 46060
L59400 46060
" />
<path d="M59540 46060
L59540 45560
L59490 45630
L59440 45680
L59400 45700
" />
<path d="M59990 45560
L60040 45560
L60090 45580
L60110 45600
L60140 45650
L60160 45750
L60160 45870
L60140 45960
L60110 46010
L60090 46030
L60040 46060
L59990 46060
L59950 46030
L59920 46010
L59900 45960
L59880 45870
L59880 45750
L59900 45650
L59920 45600
L59950 45580
L59990 45560
" />
<path d="M60380 45720
L60380 46060
" />
<path d="M60380 45770
L60400 45750
L60450 45720
L60520 45720
L60570 45750
L60590 45790
L60590 46060
" />
</g>
<g style="fill:#008400; fill-opacity:0.0; 
stroke:#008400; stroke-width:60; stroke-opacity:1; 
stroke-linecap:round; stroke-linejoin:round;">
<path d="M59200 44000
L59200 43300
" />
<path d="M59200 46000
L59200 46600
" />
<path d="M55700 43300
L55700 46600
" />
</g>
<g style="fill:#008400; fill-opacity:0.0; 
stroke:#008400; stroke-width:0; stroke-opacity:1; 
stroke-linecap:round; stroke-linejoin:round;">
</g>
<g style="fill:#840000; fill-opacity:0.0; 
stroke:#840000; stroke-width:0; stroke-opacity:1; 
stroke-linecap:round; stroke-linejoin:round;">
</g>
<g style="fill:#840000; fill-opacity:0.0; 
stroke:#840000; stroke-width:60; stroke-opacity:1; 
stroke-linecap:round; stroke-linejoin:round;">
<rect x="19600" y="62350" width="600" height="100" rx="0" />
<rect x="19600" y="63350" width="600" height="100" rx="0" />
<rect x="19200" y="61900" width="1000" height="2000" rx="0" />
<path d="M20200 63400
L21700 63400
" />
<path d="M21090 63280
L20810 63280
" />
<path d="M20950 63280
L20950 62780
L20900 62850
L20850 62900
L20810 62920
" />
<path d="M20200 62400
L21700 62400
" />
<path d="M20810 61820
L20830 61800
L20880 61780
L21000 61780
L21040 61800
L21070 61820
L21090 61870
L21090 61920
L21070 61990
L20780 62280
L21090 62280
" />
</g>
<g style="fill:#008484; fill-opacity:0.0; 
stroke:#008484; stroke-width:60; stroke-opacity:1; 
stroke-linecap:round; stroke-linejoin:round;">
<path d="M19330 64590
L19330 64090
L19520 64090
L19570 64110
L19590 64130
L19610 64180
L19610 64250
L19590 64300
L19570 64320
L19520 64350
L19330 64350
" />
<path d="M20090 64590
L19810 64590
" />
<path d="M19950 64590
L19950 64090
L19900 64160
L19850 64210
L19810 64230
" />
<path d="M17580 61340
L17560 61360
L17490 61390
L17440 61390
L17370 61360
L17320 61310
L17300 61270
L17280 61170
L17280 61100
L17300 61010
L17320 60960
L17370 60910
L17440 60890
L17490 60890
L17560 60910
L17580 60930
" />
<path d="M17890 60890
L17990 60890
L18040 60910
L18080 60960
L18110 61050
L18110 61220
L18080 61310
L18040 61360
L17990 61390
L17890 61390
L17850 61360
L17800 61310
L17780 61220
L17780 61050
L17800 60960
L17850 60910
L17890 60890
" />
<path d="M18320 61390
L18320 60890
L18600 61390
L18600 60890
" />
<path d="M18840 61390
L18840 60890
L19120 61390
L19120 60890
" />
<path d="M19240 61430
L19620 61430
" />
<path d="M19830 60890
L19880 60890
L19930 60910
L19950 60930
L19980 60980
L20000 61080
L20000 61200
L19980 61290
L19950 61340
L19930 61360
L19880 61390
L19830 61390
L19790 61360
L19760 61340
L19740 61290
L19720 61200
L19720 61080
L19740 60980
L19760 60930
L19790 60910
L19830 60890
" />
<path d="M20480 61390
L20200 61390
" />
<path d="M20340 61390
L20340 60890
L20290 60960
L20240 61010
L20200 61030
" />
<path d="M20650 60890
L20980 61390
" />
<path d="M20980 60890
L20650 61390
" />
<path d="M21270 60890
L21320 60890
L21370 60910
L21390 60930
L21420 60980
L21440 61080
L21440 61200
L21420 61290
L21390 61340
L21370 61360
L21320 61390
L21270 61390
L21230 61360
L21200 61340
L21180 61290
L21160 61200
L21160 61080
L21180 60980
L21200 60930
L21230 60910
L21270 60890
" />
<path d="M21640 60930
L21660 60910
L21710 60890
L21830 60890
L21870 60910
L21900 60930
L21920 60980
L21920 61030
L21900 61100
L21610 61390
L21920 61390
" />
</g>
<g style="fill:#008484; fill-opacity:0.0; 
stroke:#008484; stroke-width:0; stroke-opacity:1; 
stroke-linecap:round; stroke-linejoin:round;">
</g>
<g style="fill:#840000; fill-opacity:0.0; 
stroke:#840000; stroke-width:0; stroke-opacity:1; 
stroke-linecap:round; stroke-linejoin:round;">
</g>
<g style="fill:#840000; fill-opacity:0.0; 
stroke:#840000; stroke-width:60; stroke-opacity:1; 
stroke-linecap:round; stroke-linejoin:round;">
<circle cx="25100" cy="58750" r="250" /> 
<polyline fill="none;"
points="25100,59500
25100,59000
" /> 
</g>
<g style="fill:#008484; fill-opacity:0.0; 
stroke:#008484; stroke-width:60; stroke-opacity:1; 
stroke-linecap:round; stroke-linejoin:round;">
<path d="M24440 57760
L24600 58260
L24770 57760
" />
<path d="M25220 58210
L25200 58230
L25130 58260
L25080 58260
L25010 58230
L24960 58180
L24940 58140
L24920 58040
L24920 57970
L24940 57880
L24960 57830
L25010 57780
L25080 57760
L25130 57760
L25200 57780
L25220 57800
" />
<path d="M25720 58210
L25700 58230
L25630 58260
L25580 58260
L25510 58230
L25460 58180
L25440 58140
L25420 58040
L25420 57970
L25440 57880
L25460 57830
L25510 57780
L25580 57760
L25630 57760
L25700 57780
L25720 57800
" />
</g>
<g style="fill:#008484; fill-opacity:0.0; 
stroke:#008484; stroke-width:0; stroke-opacity:1; 
stroke-linecap:round; stroke-linejoin:round;">
</g>
<g style="fill:#840000; fill-opacity:0.0; 
stroke:#840000; stroke-width:0; stroke-opacity:1; 
stroke-linecap:round; stroke-linejoin:round;">
</g>
<g style="fill:#840000; fill-opacity:0.0; 
stroke:#840000; stroke-width:60; stroke-opacity:1; 
stroke-linecap:round; stroke-linejoin:round;">
<polyline fill="none;"
points="25100,66600
25100,67100
25600,67100
25100,67600
24600,67100
25100,67100
" /> 
</g>
<g style="fill:#008484; fill-opacity:0.0; 
stroke:#008484; stroke-width:60; stroke-opacity:1; 
stroke-linecap:round; stroke-linejoin:round;">
<path d="M24720 67880
L24670 67860
L24600 67860
L24530 67880
L24480 67930
L24460 67980
L24440 68070
L24440 68140
L24460 68240
L24480 68280
L24530 68330
L24600 68360
L24650 68360
L24720 68330
L24740 68310
L24740 68140
L24650 68140
" />
<path d="M24960 68360
L24960 67860
L25240 68360
L25240 67860
" />
<path d="M25480 68360
L25480 67860
L25600 67860
L25670 67880
L25720 67930
L25740 67980
L25760 68070
L25760 68140
L25740 68240
L25720 68280
L25670 68330
L25600 68360
L25480 68360
" />
</g>
<g style="fill:#008400; fill-opacity:0.0; 
stroke:#008400; stroke-width:60; stroke-opacity:1; 
stroke-linecap:round; stroke-linejoin:round;">
<path d="M21700 62400
L25100 62400
" />
<path d="M25100 62400
L25100 59500
" />
<path d="M21700 63400
L25100 63400
" />
<path d="M25100 63400
L25100 66600
" />
</g> 
</svg>
