<?xml version="1.0" standalone="no"?>
 <!DOCTYPE svg PUBLIC "-//W3C//DTD SVG 1.1//EN" 
 "http://www.w3.org/Graphics/SVG/1.1/DTD/svg11.dtd"> 
<svg xmlns="http://www.w3.org/2000/svg" version="1.1" 
    width="29.7002cm" height="21.0007cm" viewBox="0 0 116930 82680 ">
<title>SVG Picture created as 555-doorbell-brd.svg date 2017/05/29 20:34:14 </title>
  <desc>Picture generated by PCBNEW </desc>
<g style="fill:#000000; fill-opacity:1;stroke:#000000; stroke-opacity:1;
stroke-linecap:round; stroke-linejoin:round; "
 transform="translate(0 0) scale(1 1)">
</g>
<g style="fill:#000000; fill-opacity:0.0; 
stroke:#000000; stroke-width:-0.000393701; stroke-opacity:1; 
stroke-linecap:round; stroke-linejoin:round;">
</g>
<g style="fill:#000000; fill-opacity:0.0; 
stroke:#000000; stroke-width:118.11; stroke-opacity:1; 
stroke-linecap:round; stroke-linejoin:round;">
<path d="M48376 39242
L48376 38961
L48657 38933
L48629 38961
L48601 39017
L48601 39158
L48629 39214
L48657 39242
L48714 39270
L48854 39270
L48910 39242
L48939 39214
L48967 39158
L48967 39017
L48939 38961
L48910 38933
" />
<path d="M48376 39804
L48376 39523
L48657 39495
L48629 39523
L48601 39579
L48601 39720
L48629 39776
L48657 39804
L48714 39833
L48854 39833
L48910 39804
L48939 39776
L48967 39720
L48967 39579
L48939 39523
L48910 39495
" />
<path d="M48376 40367
L48376 40086
L48657 40058
L48629 40086
L48601 40142
L48601 40283
L48629 40339
L48657 40367
L48714 40395
L48854 40395
L48910 40367
L48939 40339
L48967 40283
L48967 40142
L48939 40086
L48910 40058
" />
<path d="M48742 40648
L48742 41098
" />
<path d="M48967 41379
L48376 41379
L48376 41520
L48404 41604
L48460 41660
L48517 41689
L48629 41717
L48714 41717
L48826 41689
L48882 41660
L48939 41604
L48967 41520
L48967 41379
" />
<path d="M48967 42054
L48939 41998
L48910 41970
L48854 41942
L48685 41942
L48629 41970
L48601 41998
L48573 42054
L48573 42139
L48601 42195
L48629 42223
L48685 42251
L48854 42251
L48910 42223
L48939 42195
L48967 42139
L48967 42054
" />
<path d="M48967 42588
L48939 42532
L48910 42504
L48854 42476
L48685 42476
L48629 42504
L48601 42532
L48573 42588
L48573 42673
L48601 42729
L48629 42757
L48685 42785
L48854 42785
L48910 42757
L48939 42729
L48967 42673
L48967 42588
" />
<path d="M48967 43038
L48573 43038
" />
<path d="M48685 43038
L48629 43067
L48601 43095
L48573 43151
L48573 43207
" />
<path d="M48657 43601
L48685 43685
L48714 43713
L48770 43741
L48854 43741
L48910 43713
L48939 43685
L48967 43629
L48967 43404
L48376 43404
L48376 43601
L48404 43657
L48432 43685
L48489 43713
L48545 43713
L48601 43685
L48629 43657
L48657 43601
L48657 43404
" />
<path d="M48939 44220
L48967 44163
L48967 44051
L48939 43995
L48882 43966
L48657 43966
L48601 43995
L48573 44051
L48573 44163
L48601 44220
L48657 44248
L48714 44248
L48770 43966
" />
<path d="M48967 44585
L48939 44529
L48882 44501
L48376 44501
" />
<path d="M48967 44894
L48939 44838
L48882 44810
L48376 44810
" />
<path d="M55094 48967
L55094 48376
" />
<path d="M55094 48601
L55038 48573
L54926 48573
L54869 48601
L54841 48629
L54813 48685
L54813 48854
L54841 48910
L54869 48939
L54926 48967
L55038 48967
L55094 48939
" />
<path d="M54616 48573
L54476 48967
" />
<path d="M54335 48573
L54476 48967
L54532 49107
L54560 49135
L54616 49164
" />
<path d="M53660 48573
L53660 49079
L53688 49135
L53745 49164
L53773 49164
" />
<path d="M53660 48376
L53688 48404
L53660 48432
L53632 48404
L53660 48376
L53660 48432
" />
<path d="M53126 48967
L53126 48657
L53154 48601
L53210 48573
L53323 48573
L53379 48601
" />
<path d="M53126 48939
L53182 48967
L53323 48967
L53379 48939
L53407 48882
L53407 48826
L53379 48770
L53323 48742
L53182 48742
L53126 48714
" />
<path d="M52845 48967
L52845 48573
" />
<path d="M52845 48376
L52873 48404
L52845 48432
L52817 48404
L52845 48376
L52845 48432
" />
<path d="M52563 48967
L52563 48573
" />
<path d="M52563 48629
L52535 48601
L52479 48573
L52395 48573
L52338 48601
L52310 48657
L52310 48967
" />
<path d="M52310 48657
L52282 48601
L52226 48573
L52142 48573
L52085 48601
L52057 48657
L52057 48967
" />
<path d="M51551 48939
L51607 48967
L51720 48967
L51776 48939
L51804 48882
L51804 48657
L51776 48601
L51720 48573
L51607 48573
L51551 48601
L51523 48657
L51523 48714
L51804 48770
" />
<path d="M51185 48967
L51242 48939
L51270 48882
L51270 48376
" />
<path d="M50707 48967
L50707 48657
L50736 48601
L50792 48573
L50904 48573
L50961 48601
" />
<path d="M50707 48939
L50764 48967
L50904 48967
L50961 48939
L50989 48882
L50989 48826
L50961 48770
L50904 48742
L50764 48742
L50707 48714
" />
<path d="M50426 48967
L50426 48376
" />
<path d="M50426 48601
L50370 48573
L50257 48573
L50201 48601
L50173 48629
L50145 48685
L50145 48854
L50173 48910
L50201 48939
L50257 48967
L50370 48967
L50426 48939
" />
<path d="M49808 48967
L49864 48939
L49892 48910
L49920 48854
L49920 48685
L49892 48629
L49864 48601
L49808 48573
L49723 48573
L49667 48601
L49639 48629
L49611 48685
L49611 48854
L49639 48910
L49667 48939
L49723 48967
L49808 48967
" />
<path d="M49358 48967
L49358 48573
" />
<path d="M49358 48685
L49329 48629
L49301 48601
L49245 48573
L49189 48573
" />
<path d="M48739 48967
L48739 48376
" />
<path d="M48739 48939
L48795 48967
L48908 48967
L48964 48939
L48992 48910
L49020 48854
L49020 48685
L48992 48629
L48964 48601
L48908 48573
L48795 48573
L48739 48601
" />
<path d="M48205 48967
L48205 48657
L48233 48601
L48289 48573
L48401 48573
L48458 48601
" />
<path d="M48205 48939
L48261 48967
L48401 48967
L48458 48939
L48486 48882
L48486 48826
L48458 48770
L48401 48742
L48261 48742
L48205 48714
" />
</g>
<g style="fill:#000000; fill-opacity:1.0; 
stroke:#000000; stroke-width:0; stroke-opacity:1; 
stroke-linecap:round; stroke-linejoin:round;">
<circle cx="50984.3" cy="33826.8" r="492" /> 
</g>
<g style="fill:#000000; fill-opacity:1.0; 
stroke:#000000; stroke-width:19.685; stroke-opacity:1; 
stroke-linecap:round; stroke-linejoin:round;">
</g>
<g style="fill:#000000; fill-opacity:1.0; 
stroke:#000000; stroke-width:0; stroke-opacity:1; 
stroke-linecap:round; stroke-linejoin:round;">
<polyline style="fill-rule:evenodd;"
points="51476,38318
50492,38318
50492,37334
51476,37334
51476,38318
" /> 
<circle cx="56800" cy="36900" r="400" /> 
</g>
<g style="fill:#000000; fill-opacity:1.0; 
stroke:#000000; stroke-width:19.685; stroke-opacity:1; 
stroke-linecap:round; stroke-linejoin:round;">
</g>
<g style="fill:#000000; fill-opacity:1.0; 
stroke:#000000; stroke-width:0; stroke-opacity:1; 
stroke-linecap:round; stroke-linejoin:round;">
<circle cx="54831.5" cy="36900" r="400" /> 
</g>
<g style="fill:#000000; fill-opacity:1.0; 
stroke:#000000; stroke-width:19.685; stroke-opacity:1; 
stroke-linecap:round; stroke-linejoin:round;">
</g>
<g style="fill:#000000; fill-opacity:1.0; 
stroke:#000000; stroke-width:0; stroke-opacity:1; 
stroke-linecap:round; stroke-linejoin:round;">
<polyline style="fill-rule:evenodd;"
points="52100,42500
52100,43300
51300,43300
51300,42500
52100,42500
" /> 
<circle cx="50715.7" cy="42900" r="400" /> 
</g>
<g style="fill:#000000; fill-opacity:1.0; 
stroke:#000000; stroke-width:19.685; stroke-opacity:1; 
stroke-linecap:round; stroke-linejoin:round;">
</g>
<g style="fill:#000000; fill-opacity:1.0; 
stroke:#000000; stroke-width:0; stroke-opacity:1; 
stroke-linecap:round; stroke-linejoin:round;">
<circle cx="60000" cy="42100" r="400" /> 
</g>
<g style="fill:#000000; fill-opacity:1.0; 
stroke:#000000; stroke-width:19.685; stroke-opacity:1; 
stroke-linecap:round; stroke-linejoin:round;">
</g>
<g style="fill:#000000; fill-opacity:1.0; 
stroke:#000000; stroke-width:0; stroke-opacity:1; 
stroke-linecap:round; stroke-linejoin:round;">
<circle cx="61968.5" cy="42100" r="400" /> 
</g>
<g style="fill:#000000; fill-opacity:1.0; 
stroke:#000000; stroke-width:19.685; stroke-opacity:1; 
stroke-linecap:round; stroke-linejoin:round;">
</g>
<g style="fill:#000000; fill-opacity:1.0; 
stroke:#000000; stroke-width:0; stroke-opacity:1; 
stroke-linecap:round; stroke-linejoin:round;">
<circle cx="60000" cy="43400" r="400" /> 
</g>
<g style="fill:#000000; fill-opacity:1.0; 
stroke:#000000; stroke-width:19.685; stroke-opacity:1; 
stroke-linecap:round; stroke-linejoin:round;">
</g>
<g style="fill:#000000; fill-opacity:1.0; 
stroke:#000000; stroke-width:0; stroke-opacity:1; 
stroke-linecap:round; stroke-linejoin:round;">
<circle cx="61968.5" cy="43400" r="400" /> 
</g>
<g style="fill:#000000; fill-opacity:1.0; 
stroke:#000000; stroke-width:19.685; stroke-opacity:1; 
stroke-linecap:round; stroke-linejoin:round;">
</g>
<g style="fill:#000000; fill-opacity:1.0; 
stroke:#000000; stroke-width:0; stroke-opacity:1; 
stroke-linecap:round; stroke-linejoin:round;">
<polyline style="fill-rule:evenodd;"
points="52100,40200
52100,41000
51300,41000
51300,40200
52100,40200
" /> 
<circle cx="50715.7" cy="40600" r="400" /> 
</g>
<g style="fill:#000000; fill-opacity:1.0; 
stroke:#000000; stroke-width:19.685; stroke-opacity:1; 
stroke-linecap:round; stroke-linejoin:round;">
</g>
<g style="fill:#000000; fill-opacity:1.0; 
stroke:#000000; stroke-width:0; stroke-opacity:1; 
stroke-linecap:round; stroke-linejoin:round;">
<polyline style="fill-rule:evenodd;"
points="57100,42900
57100,43700
56300,43700
56300,42900
57100,42900
" /> 
<circle cx="54700" cy="43300" r="400" /> 
</g>
<g style="fill:#000000; fill-opacity:1.0; 
stroke:#000000; stroke-width:19.685; stroke-opacity:1; 
stroke-linecap:round; stroke-linejoin:round;">
</g>
<g style="fill:#000000; fill-opacity:1.0; 
stroke:#000000; stroke-width:0; stroke-opacity:1; 
stroke-linecap:round; stroke-linejoin:round;">
<polyline style="fill-rule:evenodd;"
points="57100,44300
57100,45100
56300,45100
56300,44300
57100,44300
" /> 
<circle cx="54700" cy="44700" r="400" /> 
</g>
<g style="fill:#000000; fill-opacity:1.0; 
stroke:#000000; stroke-width:19.685; stroke-opacity:1; 
stroke-linecap:round; stroke-linejoin:round;">
</g>
<g style="fill:#000000; fill-opacity:1.0; 
stroke:#000000; stroke-width:0; stroke-opacity:1; 
stroke-linecap:round; stroke-linejoin:round;">
<circle cx="50500" cy="46500" r="450" /> 
</g>
<g style="fill:#000000; fill-opacity:1.0; 
stroke:#000000; stroke-width:19.685; stroke-opacity:1; 
stroke-linecap:round; stroke-linejoin:round;">
</g>
<g style="fill:#000000; fill-opacity:1.0; 
stroke:#000000; stroke-width:0; stroke-opacity:1; 
stroke-linecap:round; stroke-linejoin:round;">
<circle cx="54500" cy="46500" r="450" /> 
</g>
<g style="fill:#000000; fill-opacity:1.0; 
stroke:#000000; stroke-width:19.685; stroke-opacity:1; 
stroke-linecap:round; stroke-linejoin:round;">
</g>
<g style="fill:#000000; fill-opacity:1.0; 
stroke:#000000; stroke-width:0; stroke-opacity:1; 
stroke-linecap:round; stroke-linejoin:round;">
<circle cx="59650" cy="39550" r="400" /> 
</g>
<g style="fill:#000000; fill-opacity:1.0; 
stroke:#000000; stroke-width:19.685; stroke-opacity:1; 
stroke-linecap:round; stroke-linejoin:round;">
</g>
<g style="fill:#000000; fill-opacity:1.0; 
stroke:#000000; stroke-width:0; stroke-opacity:1; 
stroke-linecap:round; stroke-linejoin:round;">
<circle cx="59650" cy="35550" r="400" /> 
</g>
<g style="fill:#000000; fill-opacity:1.0; 
stroke:#000000; stroke-width:19.685; stroke-opacity:1; 
stroke-linecap:round; stroke-linejoin:round;">
</g>
<g style="fill:#000000; fill-opacity:1.0; 
stroke:#000000; stroke-width:0; stroke-opacity:1; 
stroke-linecap:round; stroke-linejoin:round;">
<circle cx="60950" cy="35550" r="400" /> 
</g>
<g style="fill:#000000; fill-opacity:1.0; 
stroke:#000000; stroke-width:19.685; stroke-opacity:1; 
stroke-linecap:round; stroke-linejoin:round;">
</g>
<g style="fill:#000000; fill-opacity:1.0; 
stroke:#000000; stroke-width:0; stroke-opacity:1; 
stroke-linecap:round; stroke-linejoin:round;">
<circle cx="60950" cy="39550" r="400" /> 
</g>
<g style="fill:#000000; fill-opacity:1.0; 
stroke:#000000; stroke-width:19.685; stroke-opacity:1; 
stroke-linecap:round; stroke-linejoin:round;">
</g>
<g style="fill:#000000; fill-opacity:1.0; 
stroke:#000000; stroke-width:0; stroke-opacity:1; 
stroke-linecap:round; stroke-linejoin:round;">
<circle cx="62250" cy="35550" r="400" /> 
</g>
<g style="fill:#000000; fill-opacity:1.0; 
stroke:#000000; stroke-width:19.685; stroke-opacity:1; 
stroke-linecap:round; stroke-linejoin:round;">
</g>
<g style="fill:#000000; fill-opacity:1.0; 
stroke:#000000; stroke-width:0; stroke-opacity:1; 
stroke-linecap:round; stroke-linejoin:round;">
<circle cx="62250" cy="39550" r="400" /> 
</g>
<g style="fill:#000000; fill-opacity:1.0; 
stroke:#000000; stroke-width:19.685; stroke-opacity:1; 
stroke-linecap:round; stroke-linejoin:round;">
</g>
<g style="fill:#000000; fill-opacity:1.0; 
stroke:#000000; stroke-width:0; stroke-opacity:1; 
stroke-linecap:round; stroke-linejoin:round;">
<circle cx="60100" cy="48021.7" r="500" /> 
</g>
<g style="fill:#000000; fill-opacity:1.0; 
stroke:#000000; stroke-width:19.685; stroke-opacity:1; 
stroke-linecap:round; stroke-linejoin:round;">
</g>
<g style="fill:#000000; fill-opacity:1.0; 
stroke:#000000; stroke-width:0; stroke-opacity:1; 
stroke-linecap:round; stroke-linejoin:round;">
<circle cx="60100" cy="46250" r="500" /> 
</g>
<g style="fill:#000000; fill-opacity:1.0; 
stroke:#000000; stroke-width:19.685; stroke-opacity:1; 
stroke-linecap:round; stroke-linejoin:round;">
</g>
<g style="fill:#000000; fill-opacity:1.0; 
stroke:#000000; stroke-width:0; stroke-opacity:1; 
stroke-linecap:round; stroke-linejoin:round;">
<circle cx="62659.1" cy="48021.7" r="500" /> 
</g>
<g style="fill:#000000; fill-opacity:1.0; 
stroke:#000000; stroke-width:19.685; stroke-opacity:1; 
stroke-linecap:round; stroke-linejoin:round;">
</g>
<g style="fill:#000000; fill-opacity:1.0; 
stroke:#000000; stroke-width:0; stroke-opacity:1; 
stroke-linecap:round; stroke-linejoin:round;">
<circle cx="62659.1" cy="46250" r="500" /> 
</g>
<g style="fill:#000000; fill-opacity:1.0; 
stroke:#000000; stroke-width:19.685; stroke-opacity:1; 
stroke-linecap:round; stroke-linejoin:round;">
</g>
<g style="fill:#000000; fill-opacity:1.0; 
stroke:#000000; stroke-width:0; stroke-opacity:1; 
stroke-linecap:round; stroke-linejoin:round;">
<polyline style="fill-rule:evenodd;"
points="53930,38785
53930,37985
54730,37985
54730,38785
53930,38785
" /> 
<circle cx="57330.7" cy="41385.8" r="400" /> 
</g>
<g style="fill:#000000; fill-opacity:1.0; 
stroke:#000000; stroke-width:19.685; stroke-opacity:1; 
stroke-linecap:round; stroke-linejoin:round;">
</g>
<g style="fill:#000000; fill-opacity:1.0; 
stroke:#000000; stroke-width:0; stroke-opacity:1; 
stroke-linecap:round; stroke-linejoin:round;">
<circle cx="54330.7" cy="39385.8" r="400" /> 
</g>
<g style="fill:#000000; fill-opacity:1.0; 
stroke:#000000; stroke-width:19.685; stroke-opacity:1; 
stroke-linecap:round; stroke-linejoin:round;">
</g>
<g style="fill:#000000; fill-opacity:1.0; 
stroke:#000000; stroke-width:0; stroke-opacity:1; 
stroke-linecap:round; stroke-linejoin:round;">
<circle cx="57330.7" cy="40385.8" r="400" /> 
</g>
<g style="fill:#000000; fill-opacity:1.0; 
stroke:#000000; stroke-width:19.685; stroke-opacity:1; 
stroke-linecap:round; stroke-linejoin:round;">
</g>
<g style="fill:#000000; fill-opacity:1.0; 
stroke:#000000; stroke-width:0; stroke-opacity:1; 
stroke-linecap:round; stroke-linejoin:round;">
<circle cx="54330.7" cy="40385.8" r="400" /> 
</g>
<g style="fill:#000000; fill-opacity:1.0; 
stroke:#000000; stroke-width:19.685; stroke-opacity:1; 
stroke-linecap:round; stroke-linejoin:round;">
</g>
<g style="fill:#000000; fill-opacity:1.0; 
stroke:#000000; stroke-width:0; stroke-opacity:1; 
stroke-linecap:round; stroke-linejoin:round;">
<circle cx="57330.7" cy="39385.8" r="400" /> 
</g>
<g style="fill:#000000; fill-opacity:1.0; 
stroke:#000000; stroke-width:19.685; stroke-opacity:1; 
stroke-linecap:round; stroke-linejoin:round;">
</g>
<g style="fill:#000000; fill-opacity:1.0; 
stroke:#000000; stroke-width:0; stroke-opacity:1; 
stroke-linecap:round; stroke-linejoin:round;">
<circle cx="54330.7" cy="41385.8" r="400" /> 
</g>
<g style="fill:#000000; fill-opacity:1.0; 
stroke:#000000; stroke-width:19.685; stroke-opacity:1; 
stroke-linecap:round; stroke-linejoin:round;">
</g>
<g style="fill:#000000; fill-opacity:1.0; 
stroke:#000000; stroke-width:0; stroke-opacity:1; 
stroke-linecap:round; stroke-linejoin:round;">
<circle cx="57330.7" cy="38385.8" r="400" /> 
</g>
<g style="fill:#000000; fill-opacity:1.0; 
stroke:#000000; stroke-width:19.685; stroke-opacity:1; 
stroke-linecap:round; stroke-linejoin:round;">
</g>
<g style="fill:#000000; fill-opacity:1.0; 
stroke:#000000; stroke-width:800; stroke-opacity:1; 
stroke-linecap:round; stroke-linejoin:round;">
</g>
<g style="fill:#000000; fill-opacity:0.0; 
stroke:#000000; stroke-width:800; stroke-opacity:1; 
stroke-linecap:round; stroke-linejoin:round;">
<path d="M55300 34107
L55300 34492
" />
<path d="M56300 34107
L56300 34492
" />
</g>
<g style="fill:#000000; fill-opacity:0.0; 
stroke:#000000; stroke-width:400; stroke-opacity:1; 
stroke-linecap:round; stroke-linejoin:round;">
<path d="M62659 46250
L62659 45400
" />
<path d="M63300 34200
L56400 34200
" />
<path d="M63700 34600
L63300 34200
" />
<path d="M63700 44000
L63700 34600
" />
<path d="M62659 45040
L63700 44000
" />
<path d="M62659 45400
L62659 45040
" />
<path d="M56400 34200
L56300 34300
" />
<path d="M56300 34300
L56300 35400
" />
<path d="M56800 35900
L56800 36900
" />
<path d="M56300 35400
L56800 35900
" />
<path d="M59650 39550
L59650 38950
" />
<path d="M59085 38385
L57330 38385
" />
<path d="M59650 38950
L59085 38385
" />
<path d="M56800 36900
L57330 37430
" />
<path d="M57330 37430
L57330 38385
" />
<path d="M54330 41385
L54330 41730
" />
<path d="M56100 42700
L56700 43300
" />
<path d="M55300 42700
L56100 42700
" />
<path d="M54330 41730
L55300 42700
" />
<path d="M51700 42900
L51700 44300
" />
<path d="M50500 45500
L50500 46500
" />
<path d="M51700 44300
L50500 45500
" />
<path d="M54330 41385
L53914 41385
" />
<path d="M52400 42900
L51700 42900
" />
<path d="M53914 41385
L52400 42900
" />
<path d="M59600 40900
L60400 40900
" />
<path d="M61600 40250
L62250 39550
" />
<path d="M61100 40250
L61600 40250
" />
<path d="M60400 40900
L61100 40250
" />
<path d="M60000 42100
L60000 41300
" />
<path d="M60000 41300
L59600 40900
" />
<path d="M57844 40900
L57330 40385
" />
<path d="M59600 40900
L57844 40900
" />
<path d="M54330 39385
L55385 39385
" />
<path d="M56385 40385
L57330 40385
" />
<path d="M55385 39385
L56385 40385
" />
<path d="M57330 41385
L57330 41830
" />
<path d="M58900 43400
L60000 43400
" />
<path d="M57330 41830
L58900 43400
" />
<path d="M51700 40600
L53100 40600
" />
<path d="M53314 40385
L54330 40385
" />
<path d="M53100 40600
L53314 40385
" />
<path d="M50715 40600
L50715 38095
" />
<path d="M50715 38095
L50984 37826
" />
<path d="M54700 44700
L54700 45000
" />
<path d="M54700 45000
L55600 45900
" />
<path d="M58521 48021
L60100 48021
" />
<path d="M56400 45900
L58521 48021
" />
<path d="M55600 45900
L56400 45900
" />
<path d="M54700 43300
L54700 44700
" />
<path d="M56700 44700
L59800 44700
" />
<path d="M61700 34800
L60950 35550
" />
<path d="M63000 34800
L61700 34800
" />
<path d="M63100 34900
L63000 34800
" />
<path d="M63100 40300
L63100 34900
" />
<path d="M62400 40300
L63100 40300
" />
<path d="M61100 41600
L62400 40300
" />
<path d="M61100 43400
L61100 41600
" />
<path d="M59800 44700
L61100 43400
" />
<path d="M60950 35550
L59650 35550
" />
<path d="M62250 35550
L62250 37050
" />
<path d="M60950 38350
L60950 39550
" />
<path d="M62250 37050
L60950 38350
" />
<path d="M60950 39550
L60950 39650
" />
<path d="M60950 39650
L60200 40350
" />
<path d="M60200 40350
L58600 40350
" />
<path d="M58600 40350
L57785 39385
" />
<path d="M57785 39385
L57330 39385
" />
<path d="M57330 39385
L57514 39385
" />
</g>
<g style="fill:#000000; fill-opacity:1.0; 
stroke:#000000; stroke-width:100; stroke-opacity:1; 
stroke-linecap:round; stroke-linejoin:round;">
<polyline style="fill-rule:evenodd;"
points="64481,49323
55685,49323
55685,47777
47723,47777
47723,46678
49599,46678
49736,47009
49989,47262
50320,47399
50678,47400
51009,47263
51262,47010
51269,46994
54076,46994
54121,47105
54382,47203
54660,47195
54878,47105
54923,46994
54500,46570
54076,46994
51269,46994
51399,46679
51400,46382
53796,46382
53804,46660
53894,46878
54005,46923
54429,46500
54005,46076
53894,46121
53796,46382
51400,46382
51400,46321
51263,45990
51150,45877
51150,45769
52159,44759
52300,44548
52350,44300
52350,43673
52419,43628
52485,43533
52648,43500
52859,43359
53950,42269
54247,42567
54219,42578
53979,42817
53850,43130
53849,43468
53978,43780
54050,43851
54050,44147
53979,44217
53850,44530
53849,44868
53978,45180
54206,45408
54240,45459
54578,45797
54339,45804
54121,45894
54076,46005
54500,46429
54505,46423
54576,46494
54570,46500
54994,46923
55105,46878
55203,46617
55197,46397
55351,46500
55392,46508
55600,46550
56130,46550
58062,48481
58272,48622
58521,48671
59406,48671
59561,48826
59910,48971
60288,48971
60637,48827
60904,48560
61049,48211
61050,47833
60905,47484
60638,47216
60443,47135
60637,47055
60904,46788
61049,46439
61050,46061
60905,45712
60638,45445
60289,45300
60049,45299
60259,45159
61525,43893
61535,43903
61580,43858
61620,43964
61862,44054
62121,44044
62316,43964
62356,43858
61968,43470
61962,43476
61892,43405
61897,43400
62039,43400
62426,43787
62532,43747
62622,43505
62613,43247
62532,43052
62426,43012
62039,43400
61897,43400
61892,43394
61962,43323
61968,43329
62356,42941
62316,42835
62076,42746
62121,42744
62316,42664
62356,42558
61968,42170
61962,42176
61892,42105
61897,42100
62039,42100
62426,42487
62532,42447
62622,42205
62613,41947
62532,41752
62426,41712
62039,42100
61897,42100
61892,42094
61962,42023
61968,42029
62356,41641
62316,41535
62146,41472
62669,40950
63050,40950
63050,43730
62199,44581
62058,44792
62043,44868
62009,45040
62009,45556
61854,45711
61709,46060
61708,46438
61853,46787
62120,47054
62315,47135
62121,47215
61854,47482
61709,47831
61708,48209
61853,48559
62120,48826
62469,48971
62847,48971
63196,48827
63463,48560
63608,48211
63609,47833
63464,47484
63197,47216
63002,47135
63196,47055
63463,46788
63608,46439
63609,46061
63464,45712
63309,45556
63309,45310
64159,44459
64300,44248
64350,44000
64350,34600
64332,34512
64300,34351
64159,34140
63759,33740
63548,33599
63300,33550
56943,33550
56901,33486
56625,33301
56300,33237
55974,33301
55698,33486
55644,33567
55502,33487
55450,33475
55350,33522
55350,34250
55357,34250
55357,34350
55350,34350
55350,35077
55450,35124
55502,35112
55644,35032
55650,35040
55650,35400
55699,35648
55840,35859
56150,36169
56150,36347
56079,36417
55950,36730
55949,37068
56078,37380
56317,37620
56630,37749
56680,37749
56680,37833
56610,37903
56480,38216
56480,38554
56609,38866
56628,38885
56610,38903
56480,39216
56480,39554
56485,39566
55845,38926
55634,38785
55385,38735
54980,38735
54980,38498
54918,38435
54380,38435
54380,38443
54280,38443
54280,38435
53743,38435
53680,38498
53680,38833
53610,38903
53480,39216
53480,39554
53555,39735
53314,39735
53129,39772
53065,39785
52854,39926
52830,39950
52473,39950
52428,39880
52278,39777
52100,39741
51365,39741
51365,38777
51476,38777
51643,38746
51796,38647
51898,38497
51935,38318
51935,37936
53680,37936
53680,38273
53743,38335
54280,38335
54280,37798
54380,37798
54380,38335
54918,38335
54980,38273
54980,37936
54942,37844
54872,37773
54780,37735
54443,37735
54380,37798
54280,37798
54218,37735
53880,37735
53789,37773
53718,37844
53680,37936
51935,37936
51935,37358
54443,37358
54483,37464
54725,37554
54984,37544
55179,37464
55219,37358
54831,36970
54443,37358
51935,37358
51935,37334
51903,37168
51805,37014
51654,36912
51476,36875
50492,36875
50325,36907
50172,37005
50069,37156
50033,37334
50033,38318
50064,38485
50065,38486
50065,40047
49995,40117
49865,40430
49865,40768
49994,41080
50233,41320
50545,41449
50884,41450
51057,41378
51121,41422
51300,41458
52100,41458
52266,41427
52419,41328
52473,41250
53100,41250
53138,41242
52293,42087
52278,42077
52100,42041
51300,42041
51133,42072
50980,42171
50907,42277
50821,42245
50562,42255
50367,42335
50328,42441
50715,42829
50721,42823
50792,42894
50786,42900
50792,42905
50721,42976
50715,42970
50328,43358
50367,43464
50610,43554
50868,43544
50911,43527
50971,43619
51050,43673
51050,44030
50040,45040
49899,45251
49889,45300
49850,45500
49850,45877
49737,45989
49600,46320
49599,46678
47723,46678
47723,38370
47777,38370
47777,45429
49681,45429
49681,42794
50061,42794
50070,43052
50151,43247
50257,43287
50645,42900
50257,42512
50151,42552
50061,42794
49681,42794
49681,38370
47777,38370
47723,38370
47723,36794
54177,36794
54186,37052
54267,37247
54373,37287
54760,36900
54902,36900
55289,37287
55395,37247
55485,37005
55476,36747
55395,36552
55289,36512
54902,36900
54760,36900
54373,36512
54267,36552
54177,36794
47723,36794
47723,36441
54443,36441
54831,36829
55219,36441
55179,36335
54937,36245
54678,36255
54483,36335
54443,36441
47723,36441
47723,34351
50530,34351
50580,34466
50856,34572
51151,34564
51387,34466
51438,34351
51436,34350
54650,34350
54650,34542
54718,34787
54875,34987
55097,35112
55149,35124
55250,35077
55250,34350
54650,34350
51436,34350
50984,33897
50530,34351
47723,34351
47723,33699
50238,33699
50246,33994
50344,34230
50459,34280
50913,33826
51054,33826
51509,34280
51624,34230
51690,34057
54650,34057
54650,34250
55250,34250
55250,33522
55149,33475
55097,33487
54875,33612
54718,33812
54650,34057
51690,34057
51729,33954
51722,33659
51624,33423
51509,33372
51054,33826
50913,33826
50459,33372
50344,33423
50238,33699
47723,33699
47723,33301
50530,33301
50984,33756
51438,33301
51387,33186
51111,33081
50816,33089
50580,33186
50530,33301
47723,33301
47723,32566
64481,32566
64481,49323
" /> 
</g>
<g style="fill:#FFFFFF; fill-opacity:1.0; 
stroke:#FFFFFF; stroke-width:100; stroke-opacity:1; 
stroke-linecap:round; stroke-linejoin:round;">
</g>
<g style="fill:#FFFFFF; fill-opacity:1.0; 
stroke:#FFFFFF; stroke-width:0; stroke-opacity:1; 
stroke-linecap:round; stroke-linejoin:round;">
<circle cx="50984.3" cy="33826.8" r="75" /> 
</g>
<g style="fill:#FFFFFF; fill-opacity:1.0; 
stroke:#FFFFFF; stroke-width:19.685; stroke-opacity:1; 
stroke-linecap:round; stroke-linejoin:round;">
</g>
<g style="fill:#FFFFFF; fill-opacity:1.0; 
stroke:#FFFFFF; stroke-width:0; stroke-opacity:1; 
stroke-linecap:round; stroke-linejoin:round;">
<circle cx="50984.3" cy="37826.8" r="75" /> 
</g>
<g style="fill:#FFFFFF; fill-opacity:1.0; 
stroke:#FFFFFF; stroke-width:19.685; stroke-opacity:1; 
stroke-linecap:round; stroke-linejoin:round;">
</g>
<g style="fill:#FFFFFF; fill-opacity:1.0; 
stroke:#FFFFFF; stroke-width:0; stroke-opacity:1; 
stroke-linecap:round; stroke-linejoin:round;">
<circle cx="56800" cy="36900" r="75" /> 
</g>
<g style="fill:#FFFFFF; fill-opacity:1.0; 
stroke:#FFFFFF; stroke-width:19.685; stroke-opacity:1; 
stroke-linecap:round; stroke-linejoin:round;">
</g>
<g style="fill:#FFFFFF; fill-opacity:1.0; 
stroke:#FFFFFF; stroke-width:0; stroke-opacity:1; 
stroke-linecap:round; stroke-linejoin:round;">
<circle cx="54831.5" cy="36900" r="75" /> 
</g>
<g style="fill:#FFFFFF; fill-opacity:1.0; 
stroke:#FFFFFF; stroke-width:19.685; stroke-opacity:1; 
stroke-linecap:round; stroke-linejoin:round;">
</g>
<g style="fill:#FFFFFF; fill-opacity:1.0; 
stroke:#FFFFFF; stroke-width:0; stroke-opacity:1; 
stroke-linecap:round; stroke-linejoin:round;">
<circle cx="51700" cy="42900" r="75" /> 
</g>
<g style="fill:#FFFFFF; fill-opacity:1.0; 
stroke:#FFFFFF; stroke-width:19.685; stroke-opacity:1; 
stroke-linecap:round; stroke-linejoin:round;">
</g>
<g style="fill:#FFFFFF; fill-opacity:1.0; 
stroke:#FFFFFF; stroke-width:0; stroke-opacity:1; 
stroke-linecap:round; stroke-linejoin:round;">
<circle cx="50715.7" cy="42900" r="75" /> 
</g>
<g style="fill:#FFFFFF; fill-opacity:1.0; 
stroke:#FFFFFF; stroke-width:19.685; stroke-opacity:1; 
stroke-linecap:round; stroke-linejoin:round;">
</g>
<g style="fill:#FFFFFF; fill-opacity:1.0; 
stroke:#FFFFFF; stroke-width:0; stroke-opacity:1; 
stroke-linecap:round; stroke-linejoin:round;">
<circle cx="60000" cy="42100" r="75" /> 
</g>
<g style="fill:#FFFFFF; fill-opacity:1.0; 
stroke:#FFFFFF; stroke-width:19.685; stroke-opacity:1; 
stroke-linecap:round; stroke-linejoin:round;">
</g>
<g style="fill:#FFFFFF; fill-opacity:1.0; 
stroke:#FFFFFF; stroke-width:0; stroke-opacity:1; 
stroke-linecap:round; stroke-linejoin:round;">
<circle cx="61968.5" cy="42100" r="75" /> 
</g>
<g style="fill:#FFFFFF; fill-opacity:1.0; 
stroke:#FFFFFF; stroke-width:19.685; stroke-opacity:1; 
stroke-linecap:round; stroke-linejoin:round;">
</g>
<g style="fill:#FFFFFF; fill-opacity:1.0; 
stroke:#FFFFFF; stroke-width:0; stroke-opacity:1; 
stroke-linecap:round; stroke-linejoin:round;">
<circle cx="60000" cy="43400" r="75" /> 
</g>
<g style="fill:#FFFFFF; fill-opacity:1.0; 
stroke:#FFFFFF; stroke-width:19.685; stroke-opacity:1; 
stroke-linecap:round; stroke-linejoin:round;">
</g>
<g style="fill:#FFFFFF; fill-opacity:1.0; 
stroke:#FFFFFF; stroke-width:0; stroke-opacity:1; 
stroke-linecap:round; stroke-linejoin:round;">
<circle cx="61968.5" cy="43400" r="75" /> 
</g>
<g style="fill:#FFFFFF; fill-opacity:1.0; 
stroke:#FFFFFF; stroke-width:19.685; stroke-opacity:1; 
stroke-linecap:round; stroke-linejoin:round;">
</g>
<g style="fill:#FFFFFF; fill-opacity:1.0; 
stroke:#FFFFFF; stroke-width:0; stroke-opacity:1; 
stroke-linecap:round; stroke-linejoin:round;">
<circle cx="51700" cy="40600" r="75" /> 
</g>
<g style="fill:#FFFFFF; fill-opacity:1.0; 
stroke:#FFFFFF; stroke-width:19.685; stroke-opacity:1; 
stroke-linecap:round; stroke-linejoin:round;">
</g>
<g style="fill:#FFFFFF; fill-opacity:1.0; 
stroke:#FFFFFF; stroke-width:0; stroke-opacity:1; 
stroke-linecap:round; stroke-linejoin:round;">
<circle cx="50715.7" cy="40600" r="75" /> 
</g>
<g style="fill:#FFFFFF; fill-opacity:1.0; 
stroke:#FFFFFF; stroke-width:19.685; stroke-opacity:1; 
stroke-linecap:round; stroke-linejoin:round;">
</g>
<g style="fill:#FFFFFF; fill-opacity:1.0; 
stroke:#FFFFFF; stroke-width:0; stroke-opacity:1; 
stroke-linecap:round; stroke-linejoin:round;">
<circle cx="56700" cy="43300" r="75" /> 
</g>
<g style="fill:#FFFFFF; fill-opacity:1.0; 
stroke:#FFFFFF; stroke-width:19.685; stroke-opacity:1; 
stroke-linecap:round; stroke-linejoin:round;">
</g>
<g style="fill:#FFFFFF; fill-opacity:1.0; 
stroke:#FFFFFF; stroke-width:0; stroke-opacity:1; 
stroke-linecap:round; stroke-linejoin:round;">
<circle cx="54700" cy="43300" r="75" /> 
</g>
<g style="fill:#FFFFFF; fill-opacity:1.0; 
stroke:#FFFFFF; stroke-width:19.685; stroke-opacity:1; 
stroke-linecap:round; stroke-linejoin:round;">
</g>
<g style="fill:#FFFFFF; fill-opacity:1.0; 
stroke:#FFFFFF; stroke-width:0; stroke-opacity:1; 
stroke-linecap:round; stroke-linejoin:round;">
<circle cx="56700" cy="44700" r="75" /> 
</g>
<g style="fill:#FFFFFF; fill-opacity:1.0; 
stroke:#FFFFFF; stroke-width:19.685; stroke-opacity:1; 
stroke-linecap:round; stroke-linejoin:round;">
</g>
<g style="fill:#FFFFFF; fill-opacity:1.0; 
stroke:#FFFFFF; stroke-width:0; stroke-opacity:1; 
stroke-linecap:round; stroke-linejoin:round;">
<circle cx="54700" cy="44700" r="75" /> 
</g>
<g style="fill:#FFFFFF; fill-opacity:1.0; 
stroke:#FFFFFF; stroke-width:19.685; stroke-opacity:1; 
stroke-linecap:round; stroke-linejoin:round;">
</g>
<g style="fill:#FFFFFF; fill-opacity:1.0; 
stroke:#FFFFFF; stroke-width:0; stroke-opacity:1; 
stroke-linecap:round; stroke-linejoin:round;">
<circle cx="50500" cy="46500" r="75" /> 
</g>
<g style="fill:#FFFFFF; fill-opacity:1.0; 
stroke:#FFFFFF; stroke-width:19.685; stroke-opacity:1; 
stroke-linecap:round; stroke-linejoin:round;">
</g>
<g style="fill:#FFFFFF; fill-opacity:1.0; 
stroke:#FFFFFF; stroke-width:0; stroke-opacity:1; 
stroke-linecap:round; stroke-linejoin:round;">
<circle cx="54500" cy="46500" r="75" /> 
</g>
<g style="fill:#FFFFFF; fill-opacity:1.0; 
stroke:#FFFFFF; stroke-width:19.685; stroke-opacity:1; 
stroke-linecap:round; stroke-linejoin:round;">
</g>
<g style="fill:#FFFFFF; fill-opacity:1.0; 
stroke:#FFFFFF; stroke-width:0; stroke-opacity:1; 
stroke-linecap:round; stroke-linejoin:round;">
<circle cx="59650" cy="39550" r="75" /> 
</g>
<g style="fill:#FFFFFF; fill-opacity:1.0; 
stroke:#FFFFFF; stroke-width:19.685; stroke-opacity:1; 
stroke-linecap:round; stroke-linejoin:round;">
</g>
<g style="fill:#FFFFFF; fill-opacity:1.0; 
stroke:#FFFFFF; stroke-width:0; stroke-opacity:1; 
stroke-linecap:round; stroke-linejoin:round;">
<circle cx="59650" cy="35550" r="75" /> 
</g>
<g style="fill:#FFFFFF; fill-opacity:1.0; 
stroke:#FFFFFF; stroke-width:19.685; stroke-opacity:1; 
stroke-linecap:round; stroke-linejoin:round;">
</g>
<g style="fill:#FFFFFF; fill-opacity:1.0; 
stroke:#FFFFFF; stroke-width:0; stroke-opacity:1; 
stroke-linecap:round; stroke-linejoin:round;">
<circle cx="60950" cy="35550" r="75" /> 
</g>
<g style="fill:#FFFFFF; fill-opacity:1.0; 
stroke:#FFFFFF; stroke-width:19.685; stroke-opacity:1; 
stroke-linecap:round; stroke-linejoin:round;">
</g>
<g style="fill:#FFFFFF; fill-opacity:1.0; 
stroke:#FFFFFF; stroke-width:0; stroke-opacity:1; 
stroke-linecap:round; stroke-linejoin:round;">
<circle cx="60950" cy="39550" r="75" /> 
</g>
<g style="fill:#FFFFFF; fill-opacity:1.0; 
stroke:#FFFFFF; stroke-width:19.685; stroke-opacity:1; 
stroke-linecap:round; stroke-linejoin:round;">
</g>
<g style="fill:#FFFFFF; fill-opacity:1.0; 
stroke:#FFFFFF; stroke-width:0; stroke-opacity:1; 
stroke-linecap:round; stroke-linejoin:round;">
<circle cx="62250" cy="35550" r="75" /> 
</g>
<g style="fill:#FFFFFF; fill-opacity:1.0; 
stroke:#FFFFFF; stroke-width:19.685; stroke-opacity:1; 
stroke-linecap:round; stroke-linejoin:round;">
</g>
<g style="fill:#FFFFFF; fill-opacity:1.0; 
stroke:#FFFFFF; stroke-width:0; stroke-opacity:1; 
stroke-linecap:round; stroke-linejoin:round;">
<circle cx="62250" cy="39550" r="75" /> 
</g>
<g style="fill:#FFFFFF; fill-opacity:1.0; 
stroke:#FFFFFF; stroke-width:19.685; stroke-opacity:1; 
stroke-linecap:round; stroke-linejoin:round;">
</g>
<g style="fill:#FFFFFF; fill-opacity:1.0; 
stroke:#FFFFFF; stroke-width:0; stroke-opacity:1; 
stroke-linecap:round; stroke-linejoin:round;">
<circle cx="60100" cy="48021.7" r="75" /> 
</g>
<g style="fill:#FFFFFF; fill-opacity:1.0; 
stroke:#FFFFFF; stroke-width:19.685; stroke-opacity:1; 
stroke-linecap:round; stroke-linejoin:round;">
</g>
<g style="fill:#FFFFFF; fill-opacity:1.0; 
stroke:#FFFFFF; stroke-width:0; stroke-opacity:1; 
stroke-linecap:round; stroke-linejoin:round;">
<circle cx="60100" cy="46250" r="75" /> 
</g>
<g style="fill:#FFFFFF; fill-opacity:1.0; 
stroke:#FFFFFF; stroke-width:19.685; stroke-opacity:1; 
stroke-linecap:round; stroke-linejoin:round;">
</g>
<g style="fill:#FFFFFF; fill-opacity:1.0; 
stroke:#FFFFFF; stroke-width:0; stroke-opacity:1; 
stroke-linecap:round; stroke-linejoin:round;">
<circle cx="62659.1" cy="48021.7" r="75" /> 
</g>
<g style="fill:#FFFFFF; fill-opacity:1.0; 
stroke:#FFFFFF; stroke-width:19.685; stroke-opacity:1; 
stroke-linecap:round; stroke-linejoin:round;">
</g>
<g style="fill:#FFFFFF; fill-opacity:1.0; 
stroke:#FFFFFF; stroke-width:0; stroke-opacity:1; 
stroke-linecap:round; stroke-linejoin:round;">
<circle cx="62659.1" cy="46250" r="75" /> 
</g>
<g style="fill:#FFFFFF; fill-opacity:1.0; 
stroke:#FFFFFF; stroke-width:19.685; stroke-opacity:1; 
stroke-linecap:round; stroke-linejoin:round;">
</g>
<g style="fill:#FFFFFF; fill-opacity:1.0; 
stroke:#FFFFFF; stroke-width:0; stroke-opacity:1; 
stroke-linecap:round; stroke-linejoin:round;">
<circle cx="54330.7" cy="38385.8" r="75" /> 
</g>
<g style="fill:#FFFFFF; fill-opacity:1.0; 
stroke:#FFFFFF; stroke-width:19.685; stroke-opacity:1; 
stroke-linecap:round; stroke-linejoin:round;">
</g>
<g style="fill:#FFFFFF; fill-opacity:1.0; 
stroke:#FFFFFF; stroke-width:0; stroke-opacity:1; 
stroke-linecap:round; stroke-linejoin:round;">
<circle cx="57330.7" cy="41385.8" r="75" /> 
</g>
<g style="fill:#FFFFFF; fill-opacity:1.0; 
stroke:#FFFFFF; stroke-width:19.685; stroke-opacity:1; 
stroke-linecap:round; stroke-linejoin:round;">
</g>
<g style="fill:#FFFFFF; fill-opacity:1.0; 
stroke:#FFFFFF; stroke-width:0; stroke-opacity:1; 
stroke-linecap:round; stroke-linejoin:round;">
<circle cx="54330.7" cy="39385.8" r="75" /> 
</g>
<g style="fill:#FFFFFF; fill-opacity:1.0; 
stroke:#FFFFFF; stroke-width:19.685; stroke-opacity:1; 
stroke-linecap:round; stroke-linejoin:round;">
</g>
<g style="fill:#FFFFFF; fill-opacity:1.0; 
stroke:#FFFFFF; stroke-width:0; stroke-opacity:1; 
stroke-linecap:round; stroke-linejoin:round;">
<circle cx="57330.7" cy="40385.8" r="75" /> 
</g>
<g style="fill:#FFFFFF; fill-opacity:1.0; 
stroke:#FFFFFF; stroke-width:19.685; stroke-opacity:1; 
stroke-linecap:round; stroke-linejoin:round;">
</g>
<g style="fill:#FFFFFF; fill-opacity:1.0; 
stroke:#FFFFFF; stroke-width:0; stroke-opacity:1; 
stroke-linecap:round; stroke-linejoin:round;">
<circle cx="54330.7" cy="40385.8" r="75" /> 
</g>
<g style="fill:#FFFFFF; fill-opacity:1.0; 
stroke:#FFFFFF; stroke-width:19.685; stroke-opacity:1; 
stroke-linecap:round; stroke-linejoin:round;">
</g>
<g style="fill:#FFFFFF; fill-opacity:1.0; 
stroke:#FFFFFF; stroke-width:0; stroke-opacity:1; 
stroke-linecap:round; stroke-linejoin:round;">
<circle cx="57330.7" cy="39385.8" r="75" /> 
</g>
<g style="fill:#FFFFFF; fill-opacity:1.0; 
stroke:#FFFFFF; stroke-width:19.685; stroke-opacity:1; 
stroke-linecap:round; stroke-linejoin:round;">
</g>
<g style="fill:#FFFFFF; fill-opacity:1.0; 
stroke:#FFFFFF; stroke-width:0; stroke-opacity:1; 
stroke-linecap:round; stroke-linejoin:round;">
<circle cx="54330.7" cy="41385.8" r="75" /> 
</g>
<g style="fill:#FFFFFF; fill-opacity:1.0; 
stroke:#FFFFFF; stroke-width:19.685; stroke-opacity:1; 
stroke-linecap:round; stroke-linejoin:round;">
</g>
<g style="fill:#FFFFFF; fill-opacity:1.0; 
stroke:#FFFFFF; stroke-width:0; stroke-opacity:1; 
stroke-linecap:round; stroke-linejoin:round;">
<circle cx="57330.7" cy="38385.8" r="75" /> 
</g>
<g style="fill:#FFFFFF; fill-opacity:1.0; 
stroke:#FFFFFF; stroke-width:19.685; stroke-opacity:1; 
stroke-linecap:round; stroke-linejoin:round;">
</g>
<g style="fill:#FFFFFF; fill-opacity:1.0; 
stroke:#FFFFFF; stroke-width:0; stroke-opacity:1; 
stroke-linecap:round; stroke-linejoin:round;">
<circle cx="55300" cy="34300" r="75" /> 
</g>
<g style="fill:#FFFFFF; fill-opacity:1.0; 
stroke:#FFFFFF; stroke-width:19.685; stroke-opacity:1; 
stroke-linecap:round; stroke-linejoin:round;">
</g>
<g style="fill:#FFFFFF; fill-opacity:1.0; 
stroke:#FFFFFF; stroke-width:0; stroke-opacity:1; 
stroke-linecap:round; stroke-linejoin:round;">
<circle cx="56300" cy="34300" r="75" /> 
</g>
<g style="fill:#FFFFFF; fill-opacity:1.0; 
stroke:#FFFFFF; stroke-width:19.685; stroke-opacity:1; 
stroke-linecap:round; stroke-linejoin:round;">
</g>
<g style="fill:#000000; fill-opacity:1.0; 
stroke:#000000; stroke-width:19.685; stroke-opacity:1; 
stroke-linecap:round; stroke-linejoin:round;">
</g>
<g style="fill:#000000; fill-opacity:1.0; 
stroke:#000000; stroke-width:59.0551; stroke-opacity:1; 
stroke-linecap:round; stroke-linejoin:round;">
</g>
<g style="fill:#000000; fill-opacity:0.0; 
stroke:#000000; stroke-width:59.0551; stroke-opacity:1; 
stroke-linecap:round; stroke-linejoin:round;">
<path d="M47244 49803
L47244 32086
" />
<path d="M64960 49803
L47244 49803
" />
<path d="M64960 32086
L64960 49803
" />
<path d="M64960 32086
L47244 32086
" />
</g> 
</svg>
