<?xml version="1.0" standalone="no"?>
 <!DOCTYPE svg PUBLIC "-//W3C//DTD SVG 1.1//EN" 
 "http://www.w3.org/Graphics/SVG/1.1/DTD/svg11.dtd"> 
<svg xmlns="http://www.w3.org/2000/svg" version="1.1" 
    width="29.7002cm" height="21.0007cm" viewBox="0 0 116930 82680 ">
<title>SVG Picture created as 555-doorbell-brd.svg date 2017/06/04 00:28:57 </title>
  <desc>Picture generated by PCBNEW </desc>
<g style="fill:#000000; fill-opacity:1;stroke:#000000; stroke-opacity:1;
stroke-linecap:round; stroke-linejoin:round; "
 transform="translate(0 0) scale(1 1)">
</g>
<g style="fill:#000000; fill-opacity:0.0; 
stroke:#000000; stroke-width:-0.000393701; stroke-opacity:1; 
stroke-linecap:round; stroke-linejoin:round;">
</g>
<g style="fill:#000000; fill-opacity:0.0; 
stroke:#000000; stroke-width:19.685; stroke-opacity:1; 
stroke-linecap:round; stroke-linejoin:round;">
</g>
<g style="fill:#000000; fill-opacity:0.0; 
stroke:#000000; stroke-width:59.0551; stroke-opacity:1; 
stroke-linecap:round; stroke-linejoin:round;">
<rect x="69685.9" y="65357.2" width="42519.7" height="12598.4" rx="0" />
</g>
<g style="fill:#000000; fill-opacity:0.0; 
stroke:#000000; stroke-width:19.685; stroke-opacity:1; 
stroke-linecap:round; stroke-linejoin:round;">
</g>
<g style="fill:#000000; fill-opacity:0.0; 
stroke:#000000; stroke-width:59.0551; stroke-opacity:1; 
stroke-linecap:round; stroke-linejoin:round;">
<rect x="3937.01" y="3937.01" width="109056" height="74806" rx="0" />
</g>
<g style="fill:#000000; fill-opacity:0.0; 
stroke:#000000; stroke-width:19.685; stroke-opacity:1; 
stroke-linecap:round; stroke-linejoin:round;">
</g>
<g style="fill:#000000; fill-opacity:0.0; 
stroke:#000000; stroke-width:59.0551; stroke-opacity:1; 
stroke-linecap:round; stroke-linejoin:round;">
<rect x="4724.41" y="4724.41" width="107481" height="73231.2" rx="0" />
</g>
<g style="fill:#000000; fill-opacity:0.0; 
stroke:#000000; stroke-width:19.685; stroke-opacity:1; 
stroke-linecap:round; stroke-linejoin:round;">
</g>
<g style="fill:#000000; fill-opacity:0.0; 
stroke:#000000; stroke-width:59.0551; stroke-opacity:1; 
stroke-linecap:round; stroke-linejoin:round;">
<path d="M23622 4724
L23622 3937
" />
</g>
<g style="fill:#000000; fill-opacity:0.0; 
stroke:#000000; stroke-width:19.685; stroke-opacity:1; 
stroke-linecap:round; stroke-linejoin:round;">
</g>
<g style="fill:#000000; fill-opacity:0.0; 
stroke:#000000; stroke-width:59.0551; stroke-opacity:1; 
stroke-linecap:round; stroke-linejoin:round;">
<path d="M43307 4724
L43307 3937
" />
</g>
<g style="fill:#000000; fill-opacity:0.0; 
stroke:#000000; stroke-width:19.685; stroke-opacity:1; 
stroke-linecap:round; stroke-linejoin:round;">
</g>
<g style="fill:#000000; fill-opacity:0.0; 
stroke:#000000; stroke-width:59.0551; stroke-opacity:1; 
stroke-linecap:round; stroke-linejoin:round;">
<path d="M62992 4724
L62992 3937
" />
</g>
<g style="fill:#000000; fill-opacity:0.0; 
stroke:#000000; stroke-width:19.685; stroke-opacity:1; 
stroke-linecap:round; stroke-linejoin:round;">
</g>
<g style="fill:#000000; fill-opacity:0.0; 
stroke:#000000; stroke-width:59.0551; stroke-opacity:1; 
stroke-linecap:round; stroke-linejoin:round;">
<path d="M82677 4724
L82677 3937
" />
</g>
<g style="fill:#000000; fill-opacity:0.0; 
stroke:#000000; stroke-width:19.685; stroke-opacity:1; 
stroke-linecap:round; stroke-linejoin:round;">
</g>
<g style="fill:#000000; fill-opacity:0.0; 
stroke:#000000; stroke-width:59.0551; stroke-opacity:1; 
stroke-linecap:round; stroke-linejoin:round;">
<path d="M102362 4724
L102362 3937
" />
</g>
<g style="fill:#000000; fill-opacity:0.0; 
stroke:#000000; stroke-width:19.685; stroke-opacity:1; 
stroke-linecap:round; stroke-linejoin:round;">
</g>
<g style="fill:#000000; fill-opacity:0.0; 
stroke:#000000; stroke-width:59.0551; stroke-opacity:1; 
stroke-linecap:round; stroke-linejoin:round;">
<path d="M14169 4562
L13877 4562
" />
<path d="M14023 4562
L14023 4050
L13974 4123
L13925 4172
L13877 4196
" />
</g>
<g style="fill:#000000; fill-opacity:0.0; 
stroke:#000000; stroke-width:19.685; stroke-opacity:1; 
stroke-linecap:round; stroke-linejoin:round;">
</g>
<g style="fill:#000000; fill-opacity:0.0; 
stroke:#000000; stroke-width:59.0551; stroke-opacity:1; 
stroke-linecap:round; stroke-linejoin:round;">
<path d="M33562 4099
L33586 4074
L33635 4050
L33757 4050
L33805 4074
L33830 4099
L33854 4147
L33854 4196
L33830 4269
L33537 4562
L33854 4562
" />
</g>
<g style="fill:#000000; fill-opacity:0.0; 
stroke:#000000; stroke-width:19.685; stroke-opacity:1; 
stroke-linecap:round; stroke-linejoin:round;">
</g>
<g style="fill:#000000; fill-opacity:0.0; 
stroke:#000000; stroke-width:59.0551; stroke-opacity:1; 
stroke-linecap:round; stroke-linejoin:round;">
<path d="M53222 4050
L53539 4050
L53368 4245
L53442 4245
L53490 4269
L53515 4294
L53539 4342
L53539 4464
L53515 4513
L53490 4537
L53442 4562
L53295 4562
L53247 4537
L53222 4513
" />
</g>
<g style="fill:#000000; fill-opacity:0.0; 
stroke:#000000; stroke-width:19.685; stroke-opacity:1; 
stroke-linecap:round; stroke-linejoin:round;">
</g>
<g style="fill:#000000; fill-opacity:0.0; 
stroke:#000000; stroke-width:59.0551; stroke-opacity:1; 
stroke-linecap:round; stroke-linejoin:round;">
<path d="M73175 4221
L73175 4562
" />
<path d="M73053 4026
L72932 4391
L73248 4391
" />
</g>
<g style="fill:#000000; fill-opacity:0.0; 
stroke:#000000; stroke-width:19.685; stroke-opacity:1; 
stroke-linecap:round; stroke-linejoin:round;">
</g>
<g style="fill:#000000; fill-opacity:0.0; 
stroke:#000000; stroke-width:59.0551; stroke-opacity:1; 
stroke-linecap:round; stroke-linejoin:round;">
<path d="M92885 4050
L92641 4050
L92617 4294
L92641 4269
L92690 4245
L92812 4245
L92860 4269
L92885 4294
L92909 4342
L92909 4464
L92885 4513
L92860 4537
L92812 4562
L92690 4562
L92641 4537
L92617 4513
" />
</g>
<g style="fill:#000000; fill-opacity:0.0; 
stroke:#000000; stroke-width:19.685; stroke-opacity:1; 
stroke-linecap:round; stroke-linejoin:round;">
</g>
<g style="fill:#000000; fill-opacity:0.0; 
stroke:#000000; stroke-width:59.0551; stroke-opacity:1; 
stroke-linecap:round; stroke-linejoin:round;">
<path d="M112545 4050
L112448 4050
L112399 4074
L112375 4099
L112326 4172
L112302 4269
L112302 4464
L112326 4513
L112350 4537
L112399 4562
L112497 4562
L112545 4537
L112570 4513
L112594 4464
L112594 4342
L112570 4294
L112545 4269
L112497 4245
L112399 4245
L112350 4269
L112326 4294
L112302 4342
" />
</g>
<g style="fill:#000000; fill-opacity:0.0; 
stroke:#000000; stroke-width:19.685; stroke-opacity:1; 
stroke-linecap:round; stroke-linejoin:round;">
</g>
<g style="fill:#000000; fill-opacity:0.0; 
stroke:#000000; stroke-width:59.0551; stroke-opacity:1; 
stroke-linecap:round; stroke-linejoin:round;">
<path d="M23622 77955
L23622 78742
" />
</g>
<g style="fill:#000000; fill-opacity:0.0; 
stroke:#000000; stroke-width:19.685; stroke-opacity:1; 
stroke-linecap:round; stroke-linejoin:round;">
</g>
<g style="fill:#000000; fill-opacity:0.0; 
stroke:#000000; stroke-width:59.0551; stroke-opacity:1; 
stroke-linecap:round; stroke-linejoin:round;">
<path d="M43307 77955
L43307 78742
" />
</g>
<g style="fill:#000000; fill-opacity:0.0; 
stroke:#000000; stroke-width:19.685; stroke-opacity:1; 
stroke-linecap:round; stroke-linejoin:round;">
</g>
<g style="fill:#000000; fill-opacity:0.0; 
stroke:#000000; stroke-width:59.0551; stroke-opacity:1; 
stroke-linecap:round; stroke-linejoin:round;">
<path d="M62992 77955
L62992 78742
" />
</g>
<g style="fill:#000000; fill-opacity:0.0; 
stroke:#000000; stroke-width:19.685; stroke-opacity:1; 
stroke-linecap:round; stroke-linejoin:round;">
</g>
<g style="fill:#000000; fill-opacity:0.0; 
stroke:#000000; stroke-width:59.0551; stroke-opacity:1; 
stroke-linecap:round; stroke-linejoin:round;">
<path d="M82677 77955
L82677 78742
" />
</g>
<g style="fill:#000000; fill-opacity:0.0; 
stroke:#000000; stroke-width:19.685; stroke-opacity:1; 
stroke-linecap:round; stroke-linejoin:round;">
</g>
<g style="fill:#000000; fill-opacity:0.0; 
stroke:#000000; stroke-width:59.0551; stroke-opacity:1; 
stroke-linecap:round; stroke-linejoin:round;">
<path d="M102362 77955
L102362 78742
" />
</g>
<g style="fill:#000000; fill-opacity:0.0; 
stroke:#000000; stroke-width:19.685; stroke-opacity:1; 
stroke-linecap:round; stroke-linejoin:round;">
</g>
<g style="fill:#000000; fill-opacity:0.0; 
stroke:#000000; stroke-width:59.0551; stroke-opacity:1; 
stroke-linecap:round; stroke-linejoin:round;">
<path d="M14169 78580
L13877 78580
" />
<path d="M14023 78580
L14023 78069
L13974 78142
L13925 78190
L13877 78215
" />
</g>
<g style="fill:#000000; fill-opacity:0.0; 
stroke:#000000; stroke-width:19.685; stroke-opacity:1; 
stroke-linecap:round; stroke-linejoin:round;">
</g>
<g style="fill:#000000; fill-opacity:0.0; 
stroke:#000000; stroke-width:59.0551; stroke-opacity:1; 
stroke-linecap:round; stroke-linejoin:round;">
<path d="M33562 78117
L33586 78093
L33635 78069
L33757 78069
L33805 78093
L33830 78117
L33854 78166
L33854 78215
L33830 78288
L33537 78580
L33854 78580
" />
</g>
<g style="fill:#000000; fill-opacity:0.0; 
stroke:#000000; stroke-width:19.685; stroke-opacity:1; 
stroke-linecap:round; stroke-linejoin:round;">
</g>
<g style="fill:#000000; fill-opacity:0.0; 
stroke:#000000; stroke-width:59.0551; stroke-opacity:1; 
stroke-linecap:round; stroke-linejoin:round;">
<path d="M53222 78069
L53539 78069
L53368 78263
L53442 78263
L53490 78288
L53515 78312
L53539 78361
L53539 78483
L53515 78532
L53490 78556
L53442 78580
L53295 78580
L53247 78556
L53222 78532
" />
</g>
<g style="fill:#000000; fill-opacity:0.0; 
stroke:#000000; stroke-width:19.685; stroke-opacity:1; 
stroke-linecap:round; stroke-linejoin:round;">
</g>
<g style="fill:#000000; fill-opacity:0.0; 
stroke:#000000; stroke-width:59.0551; stroke-opacity:1; 
stroke-linecap:round; stroke-linejoin:round;">
<path d="M73175 78239
L73175 78580
" />
<path d="M73053 78044
L72932 78410
L73248 78410
" />
</g>
<g style="fill:#000000; fill-opacity:0.0; 
stroke:#000000; stroke-width:19.685; stroke-opacity:1; 
stroke-linecap:round; stroke-linejoin:round;">
</g>
<g style="fill:#000000; fill-opacity:0.0; 
stroke:#000000; stroke-width:59.0551; stroke-opacity:1; 
stroke-linecap:round; stroke-linejoin:round;">
<path d="M92885 78069
L92641 78069
L92617 78312
L92641 78288
L92690 78263
L92812 78263
L92860 78288
L92885 78312
L92909 78361
L92909 78483
L92885 78532
L92860 78556
L92812 78580
L92690 78580
L92641 78556
L92617 78532
" />
</g>
<g style="fill:#000000; fill-opacity:0.0; 
stroke:#000000; stroke-width:19.685; stroke-opacity:1; 
stroke-linecap:round; stroke-linejoin:round;">
</g>
<g style="fill:#000000; fill-opacity:0.0; 
stroke:#000000; stroke-width:59.0551; stroke-opacity:1; 
stroke-linecap:round; stroke-linejoin:round;">
<path d="M112545 78069
L112448 78069
L112399 78093
L112375 78117
L112326 78190
L112302 78288
L112302 78483
L112326 78532
L112350 78556
L112399 78580
L112497 78580
L112545 78556
L112570 78532
L112594 78483
L112594 78361
L112570 78312
L112545 78288
L112497 78263
L112399 78263
L112350 78288
L112326 78312
L112302 78361
" />
</g>
<g style="fill:#000000; fill-opacity:0.0; 
stroke:#000000; stroke-width:19.685; stroke-opacity:1; 
stroke-linecap:round; stroke-linejoin:round;">
</g>
<g style="fill:#000000; fill-opacity:0.0; 
stroke:#000000; stroke-width:59.0551; stroke-opacity:1; 
stroke-linecap:round; stroke-linejoin:round;">
<path d="M3937 23622
L4724 23622
" />
</g>
<g style="fill:#000000; fill-opacity:0.0; 
stroke:#000000; stroke-width:19.685; stroke-opacity:1; 
stroke-linecap:round; stroke-linejoin:round;">
</g>
<g style="fill:#000000; fill-opacity:0.0; 
stroke:#000000; stroke-width:59.0551; stroke-opacity:1; 
stroke-linecap:round; stroke-linejoin:round;">
<path d="M3937 43307
L4724 43307
" />
</g>
<g style="fill:#000000; fill-opacity:0.0; 
stroke:#000000; stroke-width:19.685; stroke-opacity:1; 
stroke-linecap:round; stroke-linejoin:round;">
</g>
<g style="fill:#000000; fill-opacity:0.0; 
stroke:#000000; stroke-width:59.0551; stroke-opacity:1; 
stroke-linecap:round; stroke-linejoin:round;">
<path d="M3937 62992
L4724 62992
" />
</g>
<g style="fill:#000000; fill-opacity:0.0; 
stroke:#000000; stroke-width:19.685; stroke-opacity:1; 
stroke-linecap:round; stroke-linejoin:round;">
</g>
<g style="fill:#000000; fill-opacity:0.0; 
stroke:#000000; stroke-width:59.0551; stroke-opacity:1; 
stroke-linecap:round; stroke-linejoin:round;">
<path d="M4208 13864
L4452 13864
" />
<path d="M4160 14011
L4330 13499
L4501 14011
" />
</g>
<g style="fill:#000000; fill-opacity:0.0; 
stroke:#000000; stroke-width:19.685; stroke-opacity:1; 
stroke-linecap:round; stroke-linejoin:round;">
</g>
<g style="fill:#000000; fill-opacity:0.0; 
stroke:#000000; stroke-width:59.0551; stroke-opacity:1; 
stroke-linecap:round; stroke-linejoin:round;">
<path d="M4367 33428
L4440 33452
L4464 33476
L4489 33525
L4489 33598
L4464 33647
L4440 33671
L4391 33696
L4196 33696
L4196 33184
L4367 33184
L4416 33208
L4440 33233
L4464 33281
L4464 33330
L4440 33379
L4416 33403
L4367 33428
L4196 33428
" />
</g>
<g style="fill:#000000; fill-opacity:0.0; 
stroke:#000000; stroke-width:19.685; stroke-opacity:1; 
stroke-linecap:round; stroke-linejoin:round;">
</g>
<g style="fill:#000000; fill-opacity:0.0; 
stroke:#000000; stroke-width:59.0551; stroke-opacity:1; 
stroke-linecap:round; stroke-linejoin:round;">
<path d="M4489 53332
L4464 53356
L4391 53381
L4342 53381
L4269 53356
L4221 53308
L4196 53259
L4172 53161
L4172 53088
L4196 52991
L4221 52942
L4269 52893
L4342 52869
L4391 52869
L4464 52893
L4489 52918
" />
</g>
<g style="fill:#000000; fill-opacity:0.0; 
stroke:#000000; stroke-width:19.685; stroke-opacity:1; 
stroke-linecap:round; stroke-linejoin:round;">
</g>
<g style="fill:#000000; fill-opacity:0.0; 
stroke:#000000; stroke-width:59.0551; stroke-opacity:1; 
stroke-linecap:round; stroke-linejoin:round;">
<path d="M4196 73066
L4196 72554
L4318 72554
L4391 72578
L4440 72627
L4464 72676
L4489 72773
L4489 72846
L4464 72944
L4440 72993
L4391 73041
L4318 73066
L4196 73066
" />
</g>
<g style="fill:#000000; fill-opacity:0.0; 
stroke:#000000; stroke-width:19.685; stroke-opacity:1; 
stroke-linecap:round; stroke-linejoin:round;">
</g>
<g style="fill:#000000; fill-opacity:0.0; 
stroke:#000000; stroke-width:59.0551; stroke-opacity:1; 
stroke-linecap:round; stroke-linejoin:round;">
<path d="M112992 23622
L112205 23622
" />
</g>
<g style="fill:#000000; fill-opacity:0.0; 
stroke:#000000; stroke-width:19.685; stroke-opacity:1; 
stroke-linecap:round; stroke-linejoin:round;">
</g>
<g style="fill:#000000; fill-opacity:0.0; 
stroke:#000000; stroke-width:59.0551; stroke-opacity:1; 
stroke-linecap:round; stroke-linejoin:round;">
<path d="M112992 43307
L112205 43307
" />
</g>
<g style="fill:#000000; fill-opacity:0.0; 
stroke:#000000; stroke-width:19.685; stroke-opacity:1; 
stroke-linecap:round; stroke-linejoin:round;">
</g>
<g style="fill:#000000; fill-opacity:0.0; 
stroke:#000000; stroke-width:59.0551; stroke-opacity:1; 
stroke-linecap:round; stroke-linejoin:round;">
<path d="M112992 62992
L112205 62992
" />
</g>
<g style="fill:#000000; fill-opacity:0.0; 
stroke:#000000; stroke-width:19.685; stroke-opacity:1; 
stroke-linecap:round; stroke-linejoin:round;">
</g>
<g style="fill:#000000; fill-opacity:0.0; 
stroke:#000000; stroke-width:59.0551; stroke-opacity:1; 
stroke-linecap:round; stroke-linejoin:round;">
<path d="M112477 13864
L112721 13864
" />
<path d="M112428 14011
L112599 13499
L112769 14011
" />
</g>
<g style="fill:#000000; fill-opacity:0.0; 
stroke:#000000; stroke-width:19.685; stroke-opacity:1; 
stroke-linecap:round; stroke-linejoin:round;">
</g>
<g style="fill:#000000; fill-opacity:0.0; 
stroke:#000000; stroke-width:59.0551; stroke-opacity:1; 
stroke-linecap:round; stroke-linejoin:round;">
<path d="M112635 33428
L112708 33452
L112733 33476
L112757 33525
L112757 33598
L112733 33647
L112708 33671
L112660 33696
L112465 33696
L112465 33184
L112635 33184
L112684 33208
L112708 33233
L112733 33281
L112733 33330
L112708 33379
L112684 33403
L112635 33428
L112465 33428
" />
</g>
<g style="fill:#000000; fill-opacity:0.0; 
stroke:#000000; stroke-width:19.685; stroke-opacity:1; 
stroke-linecap:round; stroke-linejoin:round;">
</g>
<g style="fill:#000000; fill-opacity:0.0; 
stroke:#000000; stroke-width:59.0551; stroke-opacity:1; 
stroke-linecap:round; stroke-linejoin:round;">
<path d="M112757 53332
L112733 53356
L112660 53381
L112611 53381
L112538 53356
L112489 53308
L112465 53259
L112440 53161
L112440 53088
L112465 52991
L112489 52942
L112538 52893
L112611 52869
L112660 52869
L112733 52893
L112757 52918
" />
</g>
<g style="fill:#000000; fill-opacity:0.0; 
stroke:#000000; stroke-width:19.685; stroke-opacity:1; 
stroke-linecap:round; stroke-linejoin:round;">
</g>
<g style="fill:#000000; fill-opacity:0.0; 
stroke:#000000; stroke-width:59.0551; stroke-opacity:1; 
stroke-linecap:round; stroke-linejoin:round;">
<path d="M112465 73066
L112465 72554
L112587 72554
L112660 72578
L112708 72627
L112733 72676
L112757 72773
L112757 72846
L112733 72944
L112708 72993
L112660 73041
L112587 73066
L112465 73066
" />
</g>
<g style="fill:#000000; fill-opacity:0.0; 
stroke:#000000; stroke-width:19.685; stroke-opacity:1; 
stroke-linecap:round; stroke-linejoin:round;">
</g>
<g style="fill:#000000; fill-opacity:0.0; 
stroke:#000000; stroke-width:59.0551; stroke-opacity:1; 
stroke-linecap:round; stroke-linejoin:round;">
<path d="M78881 76293
L78881 75703
L79022 75703
L79106 75731
L79162 75787
L79190 75843
L79219 75956
L79219 76040
L79190 76153
L79162 76209
L79106 76265
L79022 76293
L78881 76293
" />
<path d="M79725 76293
L79725 75984
L79697 75928
L79640 75899
L79528 75899
L79472 75928
" />
<path d="M79725 76265
L79669 76293
L79528 76293
L79472 76265
L79444 76209
L79444 76153
L79472 76096
L79528 76068
L79669 76068
L79725 76040
" />
<path d="M79922 75899
L80147 75899
" />
<path d="M80006 75703
L80006 76209
L80034 76265
L80090 76293
L80147 76293
" />
<path d="M80568 76265
L80512 76293
L80400 76293
L80343 76265
L80315 76209
L80315 75984
L80343 75928
L80400 75899
L80512 75899
L80568 75928
L80597 75984
L80597 76040
L80315 76096
" />
<path d="M80850 76237
L80878 76265
L80850 76293
L80822 76265
L80850 76237
L80850 76293
" />
<path d="M80850 75928
L80878 75956
L80850 75984
L80822 75956
L80850 75928
L80850 75984
" />
<path d="M81553 75759
L81581 75731
L81637 75703
L81778 75703
L81834 75731
L81862 75759
L81890 75815
L81890 75871
L81862 75956
L81525 76293
L81890 76293
" />
<path d="M82256 75703
L82312 75703
L82368 75731
L82396 75759
L82424 75815
L82453 75928
L82453 76068
L82424 76181
L82396 76237
L82368 76265
L82312 76293
L82256 76293
L82199 76265
L82171 76237
L82143 76181
L82115 76068
L82115 75928
L82143 75815
L82171 75759
L82199 75731
L82256 75703
" />
<path d="M83015 76293
L82678 76293
" />
<path d="M82846 76293
L82846 75703
L82790 75787
L82734 75843
L82678 75871
" />
<path d="M83212 75703
L83606 75703
L83352 76293
" />
<path d="M83831 76068
L84280 76068
" />
<path d="M84674 75703
L84730 75703
L84787 75731
L84815 75759
L84843 75815
L84871 75928
L84871 76068
L84843 76181
L84815 76237
L84787 76265
L84730 76293
L84674 76293
L84618 76265
L84590 76237
L84562 76181
L84534 76068
L84534 75928
L84562 75815
L84590 75759
L84618 75731
L84674 75703
" />
<path d="M85405 75703
L85124 75703
L85096 75984
L85124 75956
L85180 75928
L85321 75928
L85377 75956
L85405 75984
L85433 76040
L85433 76181
L85405 76237
L85377 76265
L85321 76293
L85180 76293
L85124 76265
L85096 76237
" />
<path d="M85687 76068
L86136 76068
" />
<path d="M86390 75759
L86418 75731
L86474 75703
L86615 75703
L86671 75731
L86699 75759
L86727 75815
L86727 75871
L86699 75956
L86361 76293
L86727 76293
" />
<path d="M86924 75703
L87318 75703
L87064 76293
" />
</g>
<g style="fill:#000000; fill-opacity:0.0; 
stroke:#000000; stroke-width:19.685; stroke-opacity:1; 
stroke-linecap:round; stroke-linejoin:round;">
</g>
<g style="fill:#000000; fill-opacity:0.0; 
stroke:#000000; stroke-width:59.0551; stroke-opacity:1; 
stroke-linecap:round; stroke-linejoin:round;">
<path d="M69685 76577
L112205 76577
" />
</g>
<g style="fill:#000000; fill-opacity:0.0; 
stroke:#000000; stroke-width:19.685; stroke-opacity:1; 
stroke-linecap:round; stroke-linejoin:round;">
</g>
<g style="fill:#000000; fill-opacity:0.0; 
stroke:#000000; stroke-width:59.0551; stroke-opacity:1; 
stroke-linecap:round; stroke-linejoin:round;">
<path d="M70220 77395
L70220 76805
" />
<path d="M70557 77395
L70304 77058
" />
<path d="M70557 76805
L70220 77142
" />
<path d="M70810 77395
L70810 77002
" />
<path d="M70810 76805
L70782 76833
L70810 76861
L70838 76833
L70810 76805
L70810 76861
" />
<path d="M71429 77339
L71401 77367
L71316 77395
L71260 77395
L71176 77367
L71120 77311
L71091 77255
L71063 77142
L71063 77058
L71091 76946
L71120 76889
L71176 76833
L71260 76805
L71316 76805
L71401 76833
L71429 76861
" />
<path d="M71935 77395
L71935 77086
L71907 77030
L71851 77002
L71738 77002
L71682 77030
" />
<path d="M71935 77367
L71879 77395
L71738 77395
L71682 77367
L71654 77311
L71654 77255
L71682 77199
L71738 77171
L71879 77171
L71935 77142
" />
<path d="M72469 77395
L72469 76805
" />
<path d="M72469 77367
L72413 77395
L72301 77395
L72244 77367
L72216 77339
L72188 77283
L72188 77114
L72216 77058
L72244 77030
L72301 77002
L72413 77002
L72469 77030
" />
<path d="M73201 77086
L73397 77086
" />
<path d="M73482 77395
L73201 77395
L73201 76805
L73482 76805
" />
<path d="M73735 77339
L73763 77367
L73735 77395
L73707 77367
L73735 77339
L73735 77395
" />
<path d="M74016 77395
L74016 76805
L74157 76805
L74241 76833
L74297 76889
L74325 76946
L74354 77058
L74354 77142
L74325 77255
L74297 77311
L74241 77367
L74157 77395
L74016 77395
" />
<path d="M74607 77339
L74635 77367
L74607 77395
L74579 77367
L74607 77339
L74607 77395
" />
<path d="M74860 77227
L75141 77227
" />
<path d="M74804 77395
L75000 76805
L75197 77395
" />
<path d="M75394 77339
L75422 77367
L75394 77395
L75366 77367
L75394 77339
L75394 77395
" />
<path d="M76575 77395
L76575 76805
" />
<path d="M76631 77171
L76800 77395
" />
<path d="M76800 77002
L76575 77227
" />
<path d="M77053 77395
L77053 77002
" />
<path d="M77053 76805
L77025 76833
L77053 76861
L77081 76833
L77053 76805
L77053 76861
" />
<path d="M77588 77367
L77531 77395
L77419 77395
L77363 77367
L77334 77339
L77306 77283
L77306 77114
L77334 77058
L77363 77030
L77419 77002
L77531 77002
L77588 77030
" />
<path d="M78094 77395
L78094 77086
L78066 77030
L78009 77002
L77897 77002
L77841 77030
" />
<path d="M78094 77367
L78037 77395
L77897 77395
L77841 77367
L77813 77311
L77813 77255
L77841 77199
L77897 77171
L78037 77171
L78094 77142
" />
<path d="M78628 77395
L78628 76805
" />
<path d="M78628 77367
L78572 77395
L78459 77395
L78403 77367
L78375 77339
L78347 77283
L78347 77114
L78375 77058
L78403 77030
L78459 77002
L78572 77002
L78628 77030
" />
<path d="M79612 77002
L79612 77395
" />
<path d="M79472 76777
L79331 77199
L79697 77199
" />
<path d="M79922 77339
L79950 77367
L79922 77395
L79894 77367
L79922 77339
L79922 77395
" />
<path d="M80315 76805
L80372 76805
L80428 76833
L80456 76861
L80484 76917
L80512 77030
L80512 77171
L80484 77283
L80456 77339
L80428 77367
L80372 77395
L80315 77395
L80259 77367
L80231 77339
L80203 77283
L80175 77171
L80175 77030
L80203 76917
L80231 76861
L80259 76833
L80315 76805
" />
<path d="M80765 77339
L80793 77367
L80765 77395
L80737 77367
L80765 77339
L80765 77395
" />
<path d="M81300 77002
L81300 77395
" />
<path d="M81159 76777
L81018 77199
L81384 77199
" />
<path d="M81609 77171
L82059 77171
" />
<path d="M82312 77367
L82368 77395
L82481 77395
L82537 77367
L82565 77311
L82565 77283
L82537 77227
L82481 77199
L82396 77199
L82340 77171
L82312 77114
L82312 77086
L82340 77030
L82396 77002
L82481 77002
L82537 77030
" />
<path d="M82734 77002
L82959 77002
" />
<path d="M82818 76805
L82818 77311
L82846 77367
L82903 77395
L82959 77395
" />
<path d="M83409 77395
L83409 77086
L83381 77030
L83324 77002
L83212 77002
L83156 77030
" />
<path d="M83409 77367
L83352 77395
L83212 77395
L83156 77367
L83127 77311
L83127 77255
L83156 77199
L83212 77171
L83352 77171
L83409 77142
" />
<path d="M83690 77395
L83690 76805
" />
<path d="M83690 77030
L83746 77002
L83859 77002
L83915 77030
L83943 77058
L83971 77114
L83971 77283
L83943 77339
L83915 77367
L83859 77395
L83746 77395
L83690 77367
" />
<path d="M84309 77395
L84252 77367
L84224 77311
L84224 76805
" />
<path d="M84759 77367
L84702 77395
L84590 77395
L84534 77367
L84505 77311
L84505 77086
L84534 77030
L84590 77002
L84702 77002
L84759 77030
L84787 77086
L84787 77142
L84505 77199
" />
</g>
<g style="fill:#000000; fill-opacity:0.0; 
stroke:#000000; stroke-width:19.685; stroke-opacity:1; 
stroke-linecap:round; stroke-linejoin:round;">
</g>
<g style="fill:#000000; fill-opacity:0.0; 
stroke:#000000; stroke-width:59.0551; stroke-opacity:1; 
stroke-linecap:round; stroke-linejoin:round;">
<path d="M69685 75396
L112205 75396
" />
</g>
<g style="fill:#000000; fill-opacity:0.0; 
stroke:#000000; stroke-width:19.685; stroke-opacity:1; 
stroke-linecap:round; stroke-linejoin:round;">
</g>
<g style="fill:#000000; fill-opacity:0.0; 
stroke:#000000; stroke-width:118.11; stroke-opacity:1; 
stroke-linecap:round; stroke-linejoin:round;">
<path d="M104022 76293
L103825 76012
" />
<path d="M103684 76293
L103684 75703
L103909 75703
L103965 75731
L103994 75759
L104022 75815
L104022 75899
L103994 75956
L103965 75984
L103909 76012
L103684 76012
" />
<path d="M104500 76265
L104444 76293
L104331 76293
L104275 76265
L104247 76209
L104247 75984
L104275 75928
L104331 75899
L104444 75899
L104500 75928
L104528 75984
L104528 76040
L104247 76096
" />
<path d="M104725 75899
L104865 76293
L105006 75899
" />
<path d="M105231 76237
L105259 76265
L105231 76293
L105203 76265
L105231 76237
L105231 76293
" />
<path d="M105231 75928
L105259 75956
L105231 75984
L105203 75956
L105231 75928
L105231 75984
" />
<path d="M105906 75899
L106046 76293
L106187 75899
" />
<path d="M106721 76293
L106384 76293
" />
<path d="M106553 76293
L106553 75703
L106496 75787
L106440 75843
L106384 75871
" />
</g>
<g style="fill:#000000; fill-opacity:0.0; 
stroke:#000000; stroke-width:19.685; stroke-opacity:1; 
stroke-linecap:round; stroke-linejoin:round;">
</g>
<g style="fill:#000000; fill-opacity:0.0; 
stroke:#000000; stroke-width:59.0551; stroke-opacity:1; 
stroke-linecap:round; stroke-linejoin:round;">
<path d="M70192 76265
L70276 76293
L70417 76293
L70473 76265
L70501 76237
L70529 76181
L70529 76124
L70501 76068
L70473 76040
L70417 76012
L70304 75984
L70248 75956
L70220 75928
L70192 75871
L70192 75815
L70220 75759
L70248 75731
L70304 75703
L70445 75703
L70529 75731
" />
<path d="M70782 76293
L70782 75899
" />
<path d="M70782 75703
L70754 75731
L70782 75759
L70810 75731
L70782 75703
L70782 75759
" />
<path d="M71007 75899
L71316 75899
L71007 76293
L71316 76293
" />
<path d="M71766 76265
L71710 76293
L71598 76293
L71541 76265
L71513 76209
L71513 75984
L71541 75928
L71598 75899
L71710 75899
L71766 75928
L71795 75984
L71795 76040
L71513 76096
" />
<path d="M72048 76237
L72076 76265
L72048 76293
L72019 76265
L72048 76237
L72048 76293
" />
<path d="M72048 75928
L72076 75956
L72048 75984
L72019 75956
L72048 75928
L72048 75984
" />
<path d="M72751 76124
L73032 76124
" />
<path d="M72694 76293
L72891 75703
L73088 76293
" />
<path d="M73538 75899
L73538 76293
" />
<path d="M73397 75674
L73257 76096
L73622 76096
" />
</g>
<g style="fill:#000000; fill-opacity:0.0; 
stroke:#000000; stroke-width:19.685; stroke-opacity:1; 
stroke-linecap:round; stroke-linejoin:round;">
</g>
<g style="fill:#000000; fill-opacity:0.0; 
stroke:#000000; stroke-width:59.0551; stroke-opacity:1; 
stroke-linecap:round; stroke-linejoin:round;">
<path d="M103684 77395
L103684 76805
" />
<path d="M104219 77395
L104219 76805
" />
<path d="M104219 77367
L104162 77395
L104050 77395
L103994 77367
L103965 77339
L103937 77283
L103937 77114
L103965 77058
L103994 77030
L104050 77002
L104162 77002
L104219 77030
" />
<path d="M104500 77339
L104528 77367
L104500 77395
L104472 77367
L104500 77339
L104500 77395
" />
<path d="M104500 77030
L104528 77058
L104500 77086
L104472 77058
L104500 77030
L104500 77086
" />
<path d="M105540 77395
L105203 77395
" />
<path d="M105372 77395
L105372 76805
L105315 76889
L105259 76946
L105203 76974
" />
<path d="M106215 76777
L105709 77536
" />
<path d="M106721 77395
L106384 77395
" />
<path d="M106553 77395
L106553 76805
L106496 76889
L106440 76946
L106384 76974
" />
</g>
<g style="fill:#000000; fill-opacity:0.0; 
stroke:#000000; stroke-width:19.685; stroke-opacity:1; 
stroke-linecap:round; stroke-linejoin:round;">
</g>
<g style="fill:#000000; fill-opacity:0.0; 
stroke:#000000; stroke-width:59.0551; stroke-opacity:1; 
stroke-linecap:round; stroke-linejoin:round;">
<path d="M69685 73821
L112205 73821
" />
</g>
<g style="fill:#000000; fill-opacity:0.0; 
stroke:#000000; stroke-width:19.685; stroke-opacity:1; 
stroke-linecap:round; stroke-linejoin:round;">
</g>
<g style="fill:#000000; fill-opacity:0.0; 
stroke:#000000; stroke-width:157.48; stroke-opacity:1; 
stroke-linecap:round; stroke-linejoin:round;">
<path d="M70257 74099
L70707 74099
" />
<path d="M70384 74886
L70482 74099
" />
<path d="M70871 74886
L70937 74361
" />
<path d="M70970 74099
L70927 74136
L70960 74174
L71002 74136
L70970 74099
L70960 74174
" />
<path d="M71199 74361
L71499 74361
" />
<path d="M71345 74099
L71260 74774
L71288 74849
L71359 74886
L71434 74886
" />
<path d="M71809 74886
L71738 74849
L71710 74774
L71795 74099
" />
<path d="M72413 74849
L72334 74886
L72184 74886
L72113 74849
L72085 74774
L72123 74474
L72169 74399
L72249 74361
L72399 74361
L72469 74399
L72498 74474
L72488 74549
L72104 74624
" />
<path d="M72793 74811
L72826 74849
L72783 74886
L72751 74849
L72793 74811
L72783 74886
" />
<path d="M72844 74399
L72877 74436
L72835 74474
L72802 74436
L72844 74399
L72835 74474
" />
<path d="M74232 74099
L73857 74099
L73772 74474
L73815 74436
L73894 74399
L74082 74399
L74152 74436
L74185 74474
L74213 74549
L74190 74736
L74143 74811
L74100 74849
L74021 74886
L73833 74886
L73763 74849
L73730 74811
" />
<path d="M74982 74099
L74607 74099
L74522 74474
L74564 74436
L74644 74399
L74832 74399
L74902 74436
L74935 74474
L74963 74549
L74939 74736
L74893 74811
L74850 74849
L74771 74886
L74583 74886
L74513 74849
L74480 74811
" />
<path d="M75732 74099
L75357 74099
L75272 74474
L75314 74436
L75394 74399
L75582 74399
L75652 74436
L75685 74474
L75713 74549
L75689 74736
L75642 74811
L75600 74849
L75521 74886
L75333 74886
L75263 74849
L75230 74811
" />
<path d="M76608 74886
L76706 74099
L76894 74099
L77002 74136
L77067 74211
L77095 74286
L77114 74436
L77100 74549
L77044 74699
L76997 74774
L76913 74849
L76795 74886
L76608 74886
" />
<path d="M77644 74099
L77794 74099
L77864 74136
L77930 74211
L77948 74361
L77916 74624
L77859 74774
L77775 74849
L77695 74886
L77545 74886
L77475 74849
L77409 74774
L77391 74624
L77424 74361
L77480 74211
L77564 74136
L77644 74099
" />
<path d="M78469 74099
L78619 74099
L78689 74136
L78755 74211
L78773 74361
L78741 74624
L78684 74774
L78600 74849
L78520 74886
L78370 74886
L78300 74849
L78234 74774
L78216 74624
L78248 74361
L78305 74211
L78389 74136
L78469 74099
" />
<path d="M79495 74886
L79280 74511
" />
<path d="M79045 74886
L79144 74099
L79444 74099
L79514 74136
L79547 74174
L79575 74249
L79561 74361
L79514 74436
L79472 74474
L79392 74511
L79092 74511
" />
<path d="M80147 74474
L80254 74511
L80287 74549
L80315 74624
L80301 74736
L80254 74811
L80212 74849
L80133 74886
L79833 74886
L79931 74099
L80193 74099
L80264 74136
L80297 74174
L80325 74249
L80315 74324
L80268 74399
L80226 74436
L80147 74474
L79884 74474
" />
<path d="M80672 74474
L80934 74474
" />
<path d="M80995 74886
L80620 74886
L80718 74099
L81093 74099
" />
<path d="M81707 74886
L81332 74886
L81431 74099
" />
<path d="M82345 74886
L81970 74886
L82068 74099
" />
</g>
<g style="fill:#000000; fill-opacity:0.0; 
stroke:#000000; stroke-width:19.685; stroke-opacity:1; 
stroke-linecap:round; stroke-linejoin:round;">
</g>
<g style="fill:#000000; fill-opacity:0.0; 
stroke:#000000; stroke-width:59.0551; stroke-opacity:1; 
stroke-linecap:round; stroke-linejoin:round;">
<path d="M70417 73070
L70220 73070
" />
<path d="M70220 73380
L70220 72789
L70501 72789
" />
<path d="M70726 73380
L70726 72986
" />
<path d="M70726 72789
L70698 72817
L70726 72845
L70754 72817
L70726 72789
L70726 72845
" />
<path d="M71091 73380
L71035 73352
L71007 73295
L71007 72789
" />
<path d="M71541 73352
L71485 73380
L71373 73380
L71316 73352
L71288 73295
L71288 73070
L71316 73014
L71373 72986
L71485 72986
L71541 73014
L71570 73070
L71570 73127
L71288 73183
" />
<path d="M71823 73323
L71851 73352
L71823 73380
L71795 73352
L71823 73323
L71823 73380
" />
<path d="M71823 73014
L71851 73042
L71823 73070
L71795 73042
L71823 73014
L71823 73070
" />
<path d="M72835 72789
L72554 72789
L72526 73070
L72554 73042
L72610 73014
L72751 73014
L72807 73042
L72835 73070
L72863 73127
L72863 73267
L72835 73323
L72807 73352
L72751 73380
L72610 73380
L72554 73352
L72526 73323
" />
<path d="M73397 72789
L73116 72789
L73088 73070
L73116 73042
L73172 73014
L73313 73014
L73369 73042
L73397 73070
L73426 73127
L73426 73267
L73397 73323
L73369 73352
L73313 73380
L73172 73380
L73116 73352
L73088 73323
" />
<path d="M73960 72789
L73679 72789
L73651 73070
L73679 73042
L73735 73014
L73876 73014
L73932 73042
L73960 73070
L73988 73127
L73988 73267
L73960 73323
L73932 73352
L73876 73380
L73735 73380
L73679 73352
L73651 73323
" />
<path d="M74241 73155
L74691 73155
" />
<path d="M75225 73380
L75225 72789
" />
<path d="M75225 73352
L75169 73380
L75057 73380
L75000 73352
L74972 73323
L74944 73267
L74944 73099
L74972 73042
L75000 73014
L75057 72986
L75169 72986
L75225 73014
" />
<path d="M75591 73380
L75535 73352
L75507 73323
L75478 73267
L75478 73099
L75507 73042
L75535 73014
L75591 72986
L75675 72986
L75732 73014
L75760 73042
L75788 73099
L75788 73267
L75760 73323
L75732 73352
L75675 73380
L75591 73380
" />
<path d="M76125 73380
L76069 73352
L76041 73323
L76013 73267
L76013 73099
L76041 73042
L76069 73014
L76125 72986
L76210 72986
L76266 73014
L76294 73042
L76322 73099
L76322 73267
L76294 73323
L76266 73352
L76210 73380
L76125 73380
" />
<path d="M76575 73380
L76575 72986
" />
<path d="M76575 73099
L76603 73042
L76631 73014
L76688 72986
L76744 72986
" />
<path d="M76941 73380
L76941 72789
" />
<path d="M76941 73014
L76997 72986
L77109 72986
L77166 73014
L77194 73042
L77222 73099
L77222 73267
L77194 73323
L77166 73352
L77109 73380
L76997 73380
L76941 73352
" />
<path d="M77700 73352
L77644 73380
L77531 73380
L77475 73352
L77447 73295
L77447 73070
L77475 73014
L77531 72986
L77644 72986
L77700 73014
L77728 73070
L77728 73127
L77447 73183
" />
<path d="M78066 73380
L78009 73352
L77981 73295
L77981 72789
" />
<path d="M78375 73380
L78319 73352
L78291 73295
L78291 72789
" />
<path d="M78600 73323
L78628 73352
L78600 73380
L78572 73352
L78600 73323
L78600 73380
" />
<path d="M78881 73380
L78881 72789
" />
<path d="M78937 73155
L79106 73380
" />
<path d="M79106 72986
L78881 73211
" />
<path d="M79359 73380
L79359 72986
" />
<path d="M79359 72789
L79331 72817
L79359 72845
L79387 72817
L79359 72789
L79359 72845
" />
<path d="M79894 73352
L79837 73380
L79725 73380
L79669 73352
L79640 73323
L79612 73267
L79612 73099
L79640 73042
L79669 73014
L79725 72986
L79837 72986
L79894 73014
" />
<path d="M80400 73380
L80400 73070
L80372 73014
L80315 72986
L80203 72986
L80147 73014
" />
<path d="M80400 73352
L80343 73380
L80203 73380
L80147 73352
L80118 73295
L80118 73239
L80147 73183
L80203 73155
L80343 73155
L80400 73127
" />
<path d="M80934 73380
L80934 72789
" />
<path d="M80934 73352
L80878 73380
L80765 73380
L80709 73352
L80681 73323
L80653 73267
L80653 73099
L80681 73042
L80709 73014
L80765 72986
L80878 72986
L80934 73014
" />
<path d="M81075 73436
L81525 73436
" />
<path d="M81665 72986
L81665 73577
" />
<path d="M81665 73014
L81721 72986
L81834 72986
L81890 73014
L81918 73042
L81946 73099
L81946 73267
L81918 73323
L81890 73352
L81834 73380
L81721 73380
L81665 73352
" />
<path d="M82453 73352
L82396 73380
L82284 73380
L82228 73352
L82199 73323
L82171 73267
L82171 73099
L82199 73042
L82228 73014
L82284 72986
L82396 72986
L82453 73014
" />
<path d="M82706 73380
L82706 72789
" />
<path d="M82706 73014
L82762 72986
L82874 72986
L82931 73014
L82959 73042
L82987 73099
L82987 73267
L82959 73323
L82931 73352
L82874 73380
L82762 73380
L82706 73352
" />
</g>
<g style="fill:#000000; fill-opacity:0.0; 
stroke:#000000; stroke-width:19.685; stroke-opacity:1; 
stroke-linecap:round; stroke-linejoin:round;">
</g>
<g style="fill:#000000; fill-opacity:0.0; 
stroke:#000000; stroke-width:59.0551; stroke-opacity:1; 
stroke-linecap:round; stroke-linejoin:round;">
<path d="M69685 71459
L112205 71459
" />
</g>
<g style="fill:#000000; fill-opacity:0.0; 
stroke:#000000; stroke-width:19.685; stroke-opacity:1; 
stroke-linecap:round; stroke-linejoin:round;">
</g>
<g style="fill:#000000; fill-opacity:0.0; 
stroke:#000000; stroke-width:59.0551; stroke-opacity:1; 
stroke-linecap:round; stroke-linejoin:round;">
<path d="M70192 72289
L70276 72317
L70417 72317
L70473 72289
L70501 72260
L70529 72204
L70529 72148
L70501 72092
L70473 72064
L70417 72036
L70304 72007
L70248 71979
L70220 71951
L70192 71895
L70192 71839
L70220 71782
L70248 71754
L70304 71726
L70445 71726
L70529 71754
" />
<path d="M70782 72317
L70782 71726
" />
<path d="M71035 72317
L71035 72007
L71007 71951
L70951 71923
L70867 71923
L70810 71951
L70782 71979
" />
<path d="M71541 72289
L71485 72317
L71373 72317
L71316 72289
L71288 72232
L71288 72007
L71316 71951
L71373 71923
L71485 71923
L71541 71951
L71570 72007
L71570 72064
L71288 72120
" />
<path d="M72048 72289
L71991 72317
L71879 72317
L71823 72289
L71795 72232
L71795 72007
L71823 71951
L71879 71923
L71991 71923
L72048 71951
L72076 72007
L72076 72064
L71795 72120
" />
<path d="M72244 71923
L72469 71923
" />
<path d="M72329 71726
L72329 72232
L72357 72289
L72413 72317
L72469 72317
" />
<path d="M72666 72260
L72694 72289
L72666 72317
L72638 72289
L72666 72260
L72666 72317
" />
<path d="M72666 71951
L72694 71979
L72666 72007
L72638 71979
L72666 71951
L72666 72007
" />
</g>
<g style="fill:#000000; fill-opacity:0.0; 
stroke:#000000; stroke-width:19.685; stroke-opacity:1; 
stroke-linecap:round; stroke-linejoin:round;">
</g>
<g style="fill:#000000; fill-opacity:0.0; 
stroke:#000000; stroke-width:118.11; stroke-opacity:1; 
stroke-linecap:round; stroke-linejoin:round;">
<path d="M70388 70545
L70388 70967
L70360 71051
L70304 71108
L70220 71136
L70163 71136
" />
<path d="M70642 70967
L70923 70967
" />
<path d="M70585 71136
L70782 70545
L70979 71136
" />
<path d="M71176 71136
L71176 70545
" />
<path d="M71457 71136
L71457 70545
L71654 70967
L71851 70545
L71851 71136
" />
<path d="M72132 70826
L72329 70826
" />
<path d="M72413 71136
L72132 71136
L72132 70545
L72413 70545
" />
<path d="M73397 71136
L73116 71136
L73116 70545
" />
<path d="M73566 70967
L73847 70967
" />
<path d="M73510 71136
L73707 70545
L73904 71136
" />
<path d="M74297 70826
L74382 70854
L74410 70883
L74438 70939
L74438 71023
L74410 71079
L74382 71108
L74325 71136
L74100 71136
L74100 70545
L74297 70545
L74354 70573
L74382 70601
L74410 70658
L74410 70714
L74382 70770
L74354 70798
L74297 70826
L74100 70826
" />
<path d="M74804 70545
L74916 70545
L74972 70573
L75028 70629
L75057 70742
L75057 70939
L75028 71051
L74972 71108
L74916 71136
L74804 71136
L74747 71108
L74691 71051
L74663 70939
L74663 70742
L74691 70629
L74747 70573
L74804 70545
" />
<path d="M75647 71136
L75450 70854
" />
<path d="M75310 71136
L75310 70545
L75535 70545
L75591 70573
L75619 70601
L75647 70658
L75647 70742
L75619 70798
L75591 70826
L75535 70854
L75310 70854
" />
<path d="M75900 71136
L75900 70545
L76041 70545
L76125 70573
L76181 70629
L76210 70686
L76238 70798
L76238 70883
L76210 70995
L76181 71051
L76125 71108
L76041 71136
L75900 71136
" />
<path d="M76463 70967
L76744 70967
" />
<path d="M76406 71136
L76603 70545
L76800 71136
" />
</g>
<g style="fill:#000000; fill-opacity:0.0; 
stroke:#000000; stroke-width:19.685; stroke-opacity:1; 
stroke-linecap:round; stroke-linejoin:round;">
</g>
<g style="fill:#000000; fill-opacity:0.0; 
stroke:#000000; stroke-width:59.0551; stroke-opacity:1; 
stroke-linecap:round; stroke-linejoin:round;">
<path d="M77559 75396
L77559 76577
" />
</g>
<g style="fill:#000000; fill-opacity:0.0; 
stroke:#000000; stroke-width:19.685; stroke-opacity:1; 
stroke-linecap:round; stroke-linejoin:round;">
</g>
<g style="fill:#000000; fill-opacity:0.0; 
stroke:#000000; stroke-width:59.0551; stroke-opacity:1; 
stroke-linecap:round; stroke-linejoin:round;">
<path d="M102756 75396
L102756 77955
" />
</g>
<g style="fill:#840000; fill-opacity:0.0; 
stroke:#840000; stroke-width:59.0551; stroke-opacity:1; 
stroke-linecap:round; stroke-linejoin:round;">
</g>
<g style="fill:#840000; fill-opacity:1.0; 
stroke:#840000; stroke-width:0; stroke-opacity:1; 
stroke-linecap:round; stroke-linejoin:round;">
<circle cx="50984.3" cy="33826.8" r="570.74" /> 
</g>
<g style="fill:#840000; fill-opacity:1.0; 
stroke:#840000; stroke-width:19.685; stroke-opacity:1; 
stroke-linecap:round; stroke-linejoin:round;">
</g>
<g style="fill:#840000; fill-opacity:1.0; 
stroke:#840000; stroke-width:0; stroke-opacity:1; 
stroke-linecap:round; stroke-linejoin:round;">
<polyline style="fill-rule:evenodd;"
points="51554,38397
50413,38397
50413,37256
51554,37256
51554,38397
" /> 
<circle cx="56800" cy="36900" r="478.74" /> 
</g>
<g style="fill:#840000; fill-opacity:1.0; 
stroke:#840000; stroke-width:19.685; stroke-opacity:1; 
stroke-linecap:round; stroke-linejoin:round;">
</g>
<g style="fill:#840000; fill-opacity:1.0; 
stroke:#840000; stroke-width:0; stroke-opacity:1; 
stroke-linecap:round; stroke-linejoin:round;">
<circle cx="54831.5" cy="36900" r="478.74" /> 
</g>
<g style="fill:#840000; fill-opacity:1.0; 
stroke:#840000; stroke-width:19.685; stroke-opacity:1; 
stroke-linecap:round; stroke-linejoin:round;">
</g>
<g style="fill:#840000; fill-opacity:1.0; 
stroke:#840000; stroke-width:0; stroke-opacity:1; 
stroke-linecap:round; stroke-linejoin:round;">
<polyline style="fill-rule:evenodd;"
points="52178,42421
52178,43378
51221,43378
51221,42421
52178,42421
" /> 
<circle cx="50715.7" cy="42900" r="478.74" /> 
</g>
<g style="fill:#840000; fill-opacity:1.0; 
stroke:#840000; stroke-width:19.685; stroke-opacity:1; 
stroke-linecap:round; stroke-linejoin:round;">
</g>
<g style="fill:#840000; fill-opacity:1.0; 
stroke:#840000; stroke-width:0; stroke-opacity:1; 
stroke-linecap:round; stroke-linejoin:round;">
<circle cx="60000" cy="42100" r="478.74" /> 
</g>
<g style="fill:#840000; fill-opacity:1.0; 
stroke:#840000; stroke-width:19.685; stroke-opacity:1; 
stroke-linecap:round; stroke-linejoin:round;">
</g>
<g style="fill:#840000; fill-opacity:1.0; 
stroke:#840000; stroke-width:0; stroke-opacity:1; 
stroke-linecap:round; stroke-linejoin:round;">
<circle cx="61968.5" cy="42100" r="478.74" /> 
</g>
<g style="fill:#840000; fill-opacity:1.0; 
stroke:#840000; stroke-width:19.685; stroke-opacity:1; 
stroke-linecap:round; stroke-linejoin:round;">
</g>
<g style="fill:#840000; fill-opacity:1.0; 
stroke:#840000; stroke-width:0; stroke-opacity:1; 
stroke-linecap:round; stroke-linejoin:round;">
<circle cx="60000" cy="43400" r="478.74" /> 
</g>
<g style="fill:#840000; fill-opacity:1.0; 
stroke:#840000; stroke-width:19.685; stroke-opacity:1; 
stroke-linecap:round; stroke-linejoin:round;">
</g>
<g style="fill:#840000; fill-opacity:1.0; 
stroke:#840000; stroke-width:0; stroke-opacity:1; 
stroke-linecap:round; stroke-linejoin:round;">
<circle cx="61968.5" cy="43400" r="478.74" /> 
</g>
<g style="fill:#840000; fill-opacity:1.0; 
stroke:#840000; stroke-width:19.685; stroke-opacity:1; 
stroke-linecap:round; stroke-linejoin:round;">
</g>
<g style="fill:#840000; fill-opacity:1.0; 
stroke:#840000; stroke-width:0; stroke-opacity:1; 
stroke-linecap:round; stroke-linejoin:round;">
<polyline style="fill-rule:evenodd;"
points="52178,40121
52178,41078
51221,41078
51221,40121
52178,40121
" /> 
<circle cx="50715.7" cy="40600" r="478.74" /> 
</g>
<g style="fill:#840000; fill-opacity:1.0; 
stroke:#840000; stroke-width:19.685; stroke-opacity:1; 
stroke-linecap:round; stroke-linejoin:round;">
</g>
<g style="fill:#840000; fill-opacity:1.0; 
stroke:#840000; stroke-width:0; stroke-opacity:1; 
stroke-linecap:round; stroke-linejoin:round;">
<polyline style="fill-rule:evenodd;"
points="57178,42821
57178,43778
56221,43778
56221,42821
57178,42821
" /> 
<circle cx="54700" cy="43300" r="478.74" /> 
</g>
<g style="fill:#840000; fill-opacity:1.0; 
stroke:#840000; stroke-width:19.685; stroke-opacity:1; 
stroke-linecap:round; stroke-linejoin:round;">
</g>
<g style="fill:#840000; fill-opacity:1.0; 
stroke:#840000; stroke-width:0; stroke-opacity:1; 
stroke-linecap:round; stroke-linejoin:round;">
<polyline style="fill-rule:evenodd;"
points="57178,44221
57178,45178
56221,45178
56221,44221
57178,44221
" /> 
<circle cx="54700" cy="44700" r="478.74" /> 
</g>
<g style="fill:#840000; fill-opacity:1.0; 
stroke:#840000; stroke-width:19.685; stroke-opacity:1; 
stroke-linecap:round; stroke-linejoin:round;">
</g>
<g style="fill:#840000; fill-opacity:1.0; 
stroke:#840000; stroke-width:0; stroke-opacity:1; 
stroke-linecap:round; stroke-linejoin:round;">
<circle cx="50500" cy="46500" r="528.74" /> 
</g>
<g style="fill:#840000; fill-opacity:1.0; 
stroke:#840000; stroke-width:19.685; stroke-opacity:1; 
stroke-linecap:round; stroke-linejoin:round;">
</g>
<g style="fill:#840000; fill-opacity:1.0; 
stroke:#840000; stroke-width:0; stroke-opacity:1; 
stroke-linecap:round; stroke-linejoin:round;">
<circle cx="54500" cy="46500" r="528.74" /> 
</g>
<g style="fill:#840000; fill-opacity:1.0; 
stroke:#840000; stroke-width:19.685; stroke-opacity:1; 
stroke-linecap:round; stroke-linejoin:round;">
</g>
<g style="fill:#840000; fill-opacity:1.0; 
stroke:#840000; stroke-width:0; stroke-opacity:1; 
stroke-linecap:round; stroke-linejoin:round;">
<circle cx="59650" cy="39550" r="478.74" /> 
</g>
<g style="fill:#840000; fill-opacity:1.0; 
stroke:#840000; stroke-width:19.685; stroke-opacity:1; 
stroke-linecap:round; stroke-linejoin:round;">
</g>
<g style="fill:#840000; fill-opacity:1.0; 
stroke:#840000; stroke-width:0; stroke-opacity:1; 
stroke-linecap:round; stroke-linejoin:round;">
<circle cx="59650" cy="35550" r="478.74" /> 
</g>
<g style="fill:#840000; fill-opacity:1.0; 
stroke:#840000; stroke-width:19.685; stroke-opacity:1; 
stroke-linecap:round; stroke-linejoin:round;">
</g>
<g style="fill:#840000; fill-opacity:1.0; 
stroke:#840000; stroke-width:0; stroke-opacity:1; 
stroke-linecap:round; stroke-linejoin:round;">
<circle cx="60950" cy="35550" r="478.74" /> 
</g>
<g style="fill:#840000; fill-opacity:1.0; 
stroke:#840000; stroke-width:19.685; stroke-opacity:1; 
stroke-linecap:round; stroke-linejoin:round;">
</g>
<g style="fill:#840000; fill-opacity:1.0; 
stroke:#840000; stroke-width:0; stroke-opacity:1; 
stroke-linecap:round; stroke-linejoin:round;">
<circle cx="60950" cy="39550" r="478.74" /> 
</g>
<g style="fill:#840000; fill-opacity:1.0; 
stroke:#840000; stroke-width:19.685; stroke-opacity:1; 
stroke-linecap:round; stroke-linejoin:round;">
</g>
<g style="fill:#840000; fill-opacity:1.0; 
stroke:#840000; stroke-width:0; stroke-opacity:1; 
stroke-linecap:round; stroke-linejoin:round;">
<circle cx="62250" cy="35550" r="478.74" /> 
</g>
<g style="fill:#840000; fill-opacity:1.0; 
stroke:#840000; stroke-width:19.685; stroke-opacity:1; 
stroke-linecap:round; stroke-linejoin:round;">
</g>
<g style="fill:#840000; fill-opacity:1.0; 
stroke:#840000; stroke-width:0; stroke-opacity:1; 
stroke-linecap:round; stroke-linejoin:round;">
<circle cx="62250" cy="39550" r="478.74" /> 
</g>
<g style="fill:#840000; fill-opacity:1.0; 
stroke:#840000; stroke-width:19.685; stroke-opacity:1; 
stroke-linecap:round; stroke-linejoin:round;">
</g>
<g style="fill:#840000; fill-opacity:1.0; 
stroke:#840000; stroke-width:0; stroke-opacity:1; 
stroke-linecap:round; stroke-linejoin:round;">
<circle cx="60100" cy="48021.7" r="578.74" /> 
</g>
<g style="fill:#840000; fill-opacity:1.0; 
stroke:#840000; stroke-width:19.685; stroke-opacity:1; 
stroke-linecap:round; stroke-linejoin:round;">
</g>
<g style="fill:#840000; fill-opacity:1.0; 
stroke:#840000; stroke-width:0; stroke-opacity:1; 
stroke-linecap:round; stroke-linejoin:round;">
<circle cx="60100" cy="46250" r="578.74" /> 
</g>
<g style="fill:#840000; fill-opacity:1.0; 
stroke:#840000; stroke-width:19.685; stroke-opacity:1; 
stroke-linecap:round; stroke-linejoin:round;">
</g>
<g style="fill:#840000; fill-opacity:1.0; 
stroke:#840000; stroke-width:0; stroke-opacity:1; 
stroke-linecap:round; stroke-linejoin:round;">
<circle cx="62659.1" cy="48021.7" r="578.74" /> 
</g>
<g style="fill:#840000; fill-opacity:1.0; 
stroke:#840000; stroke-width:19.685; stroke-opacity:1; 
stroke-linecap:round; stroke-linejoin:round;">
</g>
<g style="fill:#840000; fill-opacity:1.0; 
stroke:#840000; stroke-width:0; stroke-opacity:1; 
stroke-linecap:round; stroke-linejoin:round;">
<circle cx="62659.1" cy="46250" r="578.74" /> 
</g>
<g style="fill:#840000; fill-opacity:1.0; 
stroke:#840000; stroke-width:19.685; stroke-opacity:1; 
stroke-linecap:round; stroke-linejoin:round;">
</g>
<g style="fill:#840000; fill-opacity:1.0; 
stroke:#840000; stroke-width:0; stroke-opacity:1; 
stroke-linecap:round; stroke-linejoin:round;">
<polyline style="fill-rule:evenodd;"
points="53851,38864
53851,37907
54809,37907
54809,38864
53851,38864
" /> 
<circle cx="57330.7" cy="41385.8" r="478.74" /> 
</g>
<g style="fill:#840000; fill-opacity:1.0; 
stroke:#840000; stroke-width:19.685; stroke-opacity:1; 
stroke-linecap:round; stroke-linejoin:round;">
</g>
<g style="fill:#840000; fill-opacity:1.0; 
stroke:#840000; stroke-width:0; stroke-opacity:1; 
stroke-linecap:round; stroke-linejoin:round;">
<circle cx="54330.7" cy="39385.8" r="478.74" /> 
</g>
<g style="fill:#840000; fill-opacity:1.0; 
stroke:#840000; stroke-width:19.685; stroke-opacity:1; 
stroke-linecap:round; stroke-linejoin:round;">
</g>
<g style="fill:#840000; fill-opacity:1.0; 
stroke:#840000; stroke-width:0; stroke-opacity:1; 
stroke-linecap:round; stroke-linejoin:round;">
<circle cx="57330.7" cy="40385.8" r="478.74" /> 
</g>
<g style="fill:#840000; fill-opacity:1.0; 
stroke:#840000; stroke-width:19.685; stroke-opacity:1; 
stroke-linecap:round; stroke-linejoin:round;">
</g>
<g style="fill:#840000; fill-opacity:1.0; 
stroke:#840000; stroke-width:0; stroke-opacity:1; 
stroke-linecap:round; stroke-linejoin:round;">
<circle cx="54330.7" cy="40385.8" r="478.74" /> 
</g>
<g style="fill:#840000; fill-opacity:1.0; 
stroke:#840000; stroke-width:19.685; stroke-opacity:1; 
stroke-linecap:round; stroke-linejoin:round;">
</g>
<g style="fill:#840000; fill-opacity:1.0; 
stroke:#840000; stroke-width:0; stroke-opacity:1; 
stroke-linecap:round; stroke-linejoin:round;">
<circle cx="57330.7" cy="39385.8" r="478.74" /> 
</g>
<g style="fill:#840000; fill-opacity:1.0; 
stroke:#840000; stroke-width:19.685; stroke-opacity:1; 
stroke-linecap:round; stroke-linejoin:round;">
</g>
<g style="fill:#840000; fill-opacity:1.0; 
stroke:#840000; stroke-width:0; stroke-opacity:1; 
stroke-linecap:round; stroke-linejoin:round;">
<circle cx="54330.7" cy="41385.8" r="478.74" /> 
</g>
<g style="fill:#840000; fill-opacity:1.0; 
stroke:#840000; stroke-width:19.685; stroke-opacity:1; 
stroke-linecap:round; stroke-linejoin:round;">
</g>
<g style="fill:#840000; fill-opacity:1.0; 
stroke:#840000; stroke-width:0; stroke-opacity:1; 
stroke-linecap:round; stroke-linejoin:round;">
<circle cx="57330.7" cy="38385.8" r="478.74" /> 
</g>
<g style="fill:#840000; fill-opacity:1.0; 
stroke:#840000; stroke-width:19.685; stroke-opacity:1; 
stroke-linecap:round; stroke-linejoin:round;">
</g>
<g style="fill:#840000; fill-opacity:1.0; 
stroke:#840000; stroke-width:957.48; stroke-opacity:1; 
stroke-linecap:round; stroke-linejoin:round;">
</g>
<g style="fill:#840000; fill-opacity:0.0; 
stroke:#840000; stroke-width:957.48; stroke-opacity:1; 
stroke-linecap:round; stroke-linejoin:round;">
<path d="M55300 34107
L55300 34492
" />
<path d="M56300 34107
L56300 34492
" />
</g>
<g style="fill:#000000; fill-opacity:0.0; 
stroke:#000000; stroke-width:957.48; stroke-opacity:1; 
stroke-linecap:round; stroke-linejoin:round;">
</g>
<g style="fill:#008484; fill-opacity:0.0; 
stroke:#008484; stroke-width:957.48; stroke-opacity:1; 
stroke-linecap:round; stroke-linejoin:round;">
</g>
<g style="fill:#008484; fill-opacity:0.0; 
stroke:#008484; stroke-width:47.2441; stroke-opacity:1; 
stroke-linecap:round; stroke-linejoin:round;">
<circle cx="50984.3" cy="35826.8" r="3151.52" /> 
<path d="M57315 37415
L54315 37415
" />
<path d="M57315 36384
L54315 36384
" />
<path d="M57315 37415
L57315 36384
" />
<path d="M54315 37415
L54315 36384
" />
<path d="M51207 43903
L51207 41896
" />
<path d="M51192 43903
L51192 41896
" />
<path d="M51176 43903
L51176 41896
" />
<path d="M51160 43903
L51160 41896
" />
<path d="M51144 43902
L51144 41897
" />
<path d="M51129 43901
L51129 41898
" />
<path d="M51113 43899
L51113 41900
" />
<path d="M51097 43898
L51097 43285
" />
<path d="M51097 42514
L51097 41901
" />
<path d="M51081 43896
L51081 43285
" />
<path d="M51081 42514
L51081 41903
" />
<path d="M51066 43894
L51066 43285
" />
<path d="M51066 42514
L51066 41905
" />
<path d="M51050 43891
L51050 43285
" />
<path d="M51050 42514
L51050 41908
" />
<path d="M51034 43889
L51034 43285
" />
<path d="M51034 42514
L51034 41910
" />
<path d="M51018 43886
L51018 43285
" />
<path d="M51018 42514
L51018 41913
" />
<path d="M51003 43883
L51003 43285
" />
<path d="M51003 42514
L51003 41916
" />
<path d="M50987 43879
L50987 43285
" />
<path d="M50987 42514
L50987 41920
" />
<path d="M50971 43876
L50971 43285
" />
<path d="M50971 42514
L50971 41923
" />
<path d="M50955 43872
L50955 43285
" />
<path d="M50955 42514
L50955 41927
" />
<path d="M50940 43868
L50940 43285
" />
<path d="M50940 42514
L50940 41931
" />
<path d="M50924 43863
L50924 43285
" />
<path d="M50924 42514
L50924 41936
" />
<path d="M50908 43859
L50908 43285
" />
<path d="M50908 42514
L50908 41940
" />
<path d="M50892 43854
L50892 43285
" />
<path d="M50892 42514
L50892 41945
" />
<path d="M50876 43848
L50876 43285
" />
<path d="M50876 42514
L50876 41951
" />
<path d="M50861 43843
L50861 43285
" />
<path d="M50861 42514
L50861 41956
" />
<path d="M50845 43837
L50845 43285
" />
<path d="M50845 42514
L50845 41962
" />
<path d="M50829 43831
L50829 43285
" />
<path d="M50829 42514
L50829 41968
" />
<path d="M50813 43825
L50813 43285
" />
<path d="M50813 42514
L50813 41974
" />
<path d="M50798 43818
L50798 43285
" />
<path d="M50798 42514
L50798 41981
" />
<path d="M50782 43811
L50782 43285
" />
<path d="M50782 42514
L50782 41988
" />
<path d="M50766 43803
L50766 43285
" />
<path d="M50766 42514
L50766 41996
" />
<path d="M50750 43796
L50750 43285
" />
<path d="M50750 42514
L50750 42003
" />
<path d="M50735 43788
L50735 43285
" />
<path d="M50735 42514
L50735 42011
" />
<path d="M50719 43779
L50719 43285
" />
<path d="M50719 42514
L50719 42020
" />
<path d="M50703 43770
L50703 43285
" />
<path d="M50703 42514
L50703 42029
" />
<path d="M50687 43761
L50687 43285
" />
<path d="M50687 42514
L50687 42038
" />
<path d="M50672 43752
L50672 43285
" />
<path d="M50672 42514
L50672 42047
" />
<path d="M50656 43742
L50656 43285
" />
<path d="M50656 42514
L50656 42057
" />
<path d="M50640 43731
L50640 43285
" />
<path d="M50640 42514
L50640 42068
" />
<path d="M50624 43721
L50624 43285
" />
<path d="M50624 42514
L50624 42078
" />
<path d="M50609 43710
L50609 43285
" />
<path d="M50609 42514
L50609 42089
" />
<path d="M50593 43698
L50593 43285
" />
<path d="M50593 42514
L50593 42101
" />
<path d="M50577 43686
L50577 43285
" />
<path d="M50577 42514
L50577 42113
" />
<path d="M50561 43673
L50561 43285
" />
<path d="M50561 42514
L50561 42126
" />
<path d="M50546 43660
L50546 43285
" />
<path d="M50546 42514
L50546 42139
" />
<path d="M50530 43646
L50530 43285
" />
<path d="M50530 42514
L50530 42153
" />
<path d="M50514 43632
L50514 43285
" />
<path d="M50514 42514
L50514 42167
" />
<path d="M50498 43617
L50498 43285
" />
<path d="M50498 42514
L50498 42182
" />
<path d="M50483 43601
L50483 43285
" />
<path d="M50483 42514
L50483 42198
" />
<path d="M50467 43585
L50467 43285
" />
<path d="M50467 42514
L50467 42214
" />
<path d="M50451 43568
L50451 43285
" />
<path d="M50451 42514
L50451 42231
" />
<path d="M50435 43551
L50435 43285
" />
<path d="M50435 42514
L50435 42248
" />
<path d="M50420 43532
L50420 43285
" />
<path d="M50420 42514
L50420 42267
" />
<path d="M50404 43512
L50404 43285
" />
<path d="M50404 42514
L50404 42287
" />
<path d="M50388 43492
L50388 43285
" />
<path d="M50388 42514
L50388 42307
" />
<path d="M50372 43470
L50372 43285
" />
<path d="M50372 42514
L50372 42329
" />
<path d="M50357 43447
L50357 43285
" />
<path d="M50357 42514
L50357 42352
" />
<path d="M50341 43422
L50341 43285
" />
<path d="M50341 42514
L50341 42377
" />
<path d="M50325 43396
L50325 42403
" />
<path d="M50309 43368
L50309 42431
" />
<path d="M50294 43337
L50294 42462
" />
<path d="M50278 43304
L50278 42495
" />
<path d="M50262 43267
L50262 42532
" />
<path d="M50246 43226
L50246 42573
" />
<path d="M50231 43178
L50231 42621
" />
<path d="M50215 43120
L50215 42679
" />
<path d="M50199 43039
L50199 42760
" />
<path d="M52566 42900
L52093 42900
" />
<path d="M52329 43155
L52329 42644
" />
<path d="M50264.2 43286.4 A1019.69 1019.69 0.0 0 0 52151.7 43285.8 " />
<path d="M52151.7 42514.2 A1019.69 1019.69 0.0 0 0 50264.2 42513.6 " />
<path d="M50264.2 42513.6 A1019.69 1019.69 0.0 0 0 50264 43285.8 " />
<path d="M59484 41584
L62484 41584
" />
<path d="M59484 42615
L62484 42615
" />
<path d="M59484 41584
L59484 42615
" />
<path d="M62484 41584
L62484 42615
" />
<path d="M59484 42884
L62484 42884
" />
<path d="M59484 43915
L62484 43915
" />
<path d="M59484 42884
L59484 43915
" />
<path d="M62484 42884
L62484 43915
" />
<path d="M51207 41603
L51207 39596
" />
<path d="M51192 41603
L51192 39596
" />
<path d="M51176 41603
L51176 39596
" />
<path d="M51160 41603
L51160 39596
" />
<path d="M51144 41602
L51144 39597
" />
<path d="M51129 41601
L51129 39598
" />
<path d="M51113 41599
L51113 39600
" />
<path d="M51097 41598
L51097 40985
" />
<path d="M51097 40214
L51097 39601
" />
<path d="M51081 41596
L51081 40985
" />
<path d="M51081 40214
L51081 39603
" />
<path d="M51066 41594
L51066 40985
" />
<path d="M51066 40214
L51066 39605
" />
<path d="M51050 41591
L51050 40985
" />
<path d="M51050 40214
L51050 39608
" />
<path d="M51034 41589
L51034 40985
" />
<path d="M51034 40214
L51034 39610
" />
<path d="M51018 41586
L51018 40985
" />
<path d="M51018 40214
L51018 39613
" />
<path d="M51003 41583
L51003 40985
" />
<path d="M51003 40214
L51003 39616
" />
<path d="M50987 41579
L50987 40985
" />
<path d="M50987 40214
L50987 39620
" />
<path d="M50971 41576
L50971 40985
" />
<path d="M50971 40214
L50971 39623
" />
<path d="M50955 41572
L50955 40985
" />
<path d="M50955 40214
L50955 39627
" />
<path d="M50940 41568
L50940 40985
" />
<path d="M50940 40214
L50940 39631
" />
<path d="M50924 41563
L50924 40985
" />
<path d="M50924 40214
L50924 39636
" />
<path d="M50908 41559
L50908 40985
" />
<path d="M50908 40214
L50908 39640
" />
<path d="M50892 41554
L50892 40985
" />
<path d="M50892 40214
L50892 39645
" />
<path d="M50876 41548
L50876 40985
" />
<path d="M50876 40214
L50876 39651
" />
<path d="M50861 41543
L50861 40985
" />
<path d="M50861 40214
L50861 39656
" />
<path d="M50845 41537
L50845 40985
" />
<path d="M50845 40214
L50845 39662
" />
<path d="M50829 41531
L50829 40985
" />
<path d="M50829 40214
L50829 39668
" />
<path d="M50813 41525
L50813 40985
" />
<path d="M50813 40214
L50813 39674
" />
<path d="M50798 41518
L50798 40985
" />
<path d="M50798 40214
L50798 39681
" />
<path d="M50782 41511
L50782 40985
" />
<path d="M50782 40214
L50782 39688
" />
<path d="M50766 41503
L50766 40985
" />
<path d="M50766 40214
L50766 39696
" />
<path d="M50750 41496
L50750 40985
" />
<path d="M50750 40214
L50750 39703
" />
<path d="M50735 41488
L50735 40985
" />
<path d="M50735 40214
L50735 39711
" />
<path d="M50719 41479
L50719 40985
" />
<path d="M50719 40214
L50719 39720
" />
<path d="M50703 41470
L50703 40985
" />
<path d="M50703 40214
L50703 39729
" />
<path d="M50687 41461
L50687 40985
" />
<path d="M50687 40214
L50687 39738
" />
<path d="M50672 41452
L50672 40985
" />
<path d="M50672 40214
L50672 39747
" />
<path d="M50656 41442
L50656 40985
" />
<path d="M50656 40214
L50656 39757
" />
<path d="M50640 41431
L50640 40985
" />
<path d="M50640 40214
L50640 39768
" />
<path d="M50624 41421
L50624 40985
" />
<path d="M50624 40214
L50624 39778
" />
<path d="M50609 41410
L50609 40985
" />
<path d="M50609 40214
L50609 39789
" />
<path d="M50593 41398
L50593 40985
" />
<path d="M50593 40214
L50593 39801
" />
<path d="M50577 41386
L50577 40985
" />
<path d="M50577 40214
L50577 39813
" />
<path d="M50561 41373
L50561 40985
" />
<path d="M50561 40214
L50561 39826
" />
<path d="M50546 41360
L50546 40985
" />
<path d="M50546 40214
L50546 39839
" />
<path d="M50530 41346
L50530 40985
" />
<path d="M50530 40214
L50530 39853
" />
<path d="M50514 41332
L50514 40985
" />
<path d="M50514 40214
L50514 39867
" />
<path d="M50498 41317
L50498 40985
" />
<path d="M50498 40214
L50498 39882
" />
<path d="M50483 41301
L50483 40985
" />
<path d="M50483 40214
L50483 39898
" />
<path d="M50467 41285
L50467 40985
" />
<path d="M50467 40214
L50467 39914
" />
<path d="M50451 41268
L50451 40985
" />
<path d="M50451 40214
L50451 39931
" />
<path d="M50435 41251
L50435 40985
" />
<path d="M50435 40214
L50435 39948
" />
<path d="M50420 41232
L50420 40985
" />
<path d="M50420 40214
L50420 39967
" />
<path d="M50404 41212
L50404 40985
" />
<path d="M50404 40214
L50404 39987
" />
<path d="M50388 41192
L50388 40985
" />
<path d="M50388 40214
L50388 40007
" />
<path d="M50372 41170
L50372 40985
" />
<path d="M50372 40214
L50372 40029
" />
<path d="M50357 41147
L50357 40985
" />
<path d="M50357 40214
L50357 40052
" />
<path d="M50341 41122
L50341 40985
" />
<path d="M50341 40214
L50341 40077
" />
<path d="M50325 41096
L50325 40103
" />
<path d="M50309 41068
L50309 40131
" />
<path d="M50294 41037
L50294 40162
" />
<path d="M50278 41004
L50278 40195
" />
<path d="M50262 40967
L50262 40232
" />
<path d="M50246 40926
L50246 40273
" />
<path d="M50231 40878
L50231 40321
" />
<path d="M50215 40820
L50215 40379
" />
<path d="M50199 40739
L50199 40460
" />
<path d="M52566 40600
L52093 40600
" />
<path d="M52329 40855
L52329 40344
" />
<path d="M50264.2 40986.4 A1019.69 1019.69 0.0 0 0 52151.7 40985.8 " />
<path d="M52151.7 40214.2 A1019.69 1019.69 0.0 0 0 50264.2 40213.6 " />
<path d="M50264.2 40213.6 A1019.69 1019.69 0.0 0 0 50264 40985.8 " />
<path d="M56144 43300
L55172 43300
" />
<path d="M55933 43650
L55933 42950
" />
<path d="M55933 43300
L55466 43650
" />
<path d="M55466 43650
L55466 42950
" />
<path d="M55466 42950
L55933 43300
" />
<circle cx="56700" cy="43300" r="555.118" /> 
<path d="M56144 44700
L55172 44700
" />
<path d="M55933 45050
L55933 44350
" />
<path d="M55933 44700
L55466 45050
" />
<path d="M55466 45050
L55466 44350
" />
<path d="M55466 44350
L55933 44700
" />
<circle cx="56700" cy="44700" r="555.118" /> 
<path d="M51236 45984
L51236 47015
" />
<path d="M51236 47015
L53763 47015
" />
<path d="M53763 47015
L53763 45984
" />
<path d="M53763 45984
L51236 45984
" />
<path d="M50885 46500
L51236 46500
" />
<path d="M54114 46500
L53763 46500
" />
<path d="M59134 38813
L60165 38813
" />
<path d="M60165 38813
L60165 36286
" />
<path d="M60165 36286
L59134 36286
" />
<path d="M59134 36286
L59134 38813
" />
<path d="M59650 39164
L59650 38813
" />
<path d="M59650 35935
L59650 36286
" />
<path d="M61465 36286
L60434 36286
" />
<path d="M60434 36286
L60434 38813
" />
<path d="M60434 38813
L61465 38813
" />
<path d="M61465 38813
L61465 36286
" />
<path d="M60950 35935
L60950 36286
" />
<path d="M60950 39164
L60950 38813
" />
<path d="M62765 36286
L61734 36286
" />
<path d="M61734 36286
L61734 38813
" />
<path d="M61734 38813
L62765 38813
" />
<path d="M62765 38813
L62765 36286
" />
<path d="M62250 35935
L62250 36286
" />
<path d="M62250 39164
L62250 38813
" />
<path d="M60493 48415
L62265 48415
" />
<path d="M60001 46840
L60001 47431
" />
<path d="M62265 45856
L60493 45856
" />
<path d="M62757 47431
L62757 46840
" />
<path d="M55437 37838
L54740 37838
" />
<path d="M54740 37838
L54740 41933
" />
<path d="M54740 41933
L56921 41933
" />
<path d="M56921 41933
L56921 37838
" />
<path d="M56921 37838
L56224 37838
" />
<path d="M55437 37838.6 A393.701 393.701 0.0 0 0 56224.4 37838.6 " />
<path d="M56800 33800
L54800 33800
" />
<path d="M56800 35548
L54800 35548
" />
<path d="M54800 33051
L56800 33051
" />
<path d="M54800 33051
L54800 35548
" />
<path d="M56800 33051
L56800 35548
" />
</g>
<g style="fill:#C2C200; fill-opacity:0.0; 
stroke:#C2C200; stroke-width:47.2441; stroke-opacity:1; 
stroke-linecap:round; stroke-linejoin:round;">
</g>
<g style="fill:#C2C200; fill-opacity:0.0; 
stroke:#C2C200; stroke-width:59.0551; stroke-opacity:1; 
stroke-linecap:round; stroke-linejoin:round;">
<path d="M50454 36225
L50473 36169
L50473 36075
L50454 36038
L50435 36019
L50398 36000
L50360 36000
L50323 36019
L50304 36038
L50285 36075
L50267 36150
L50248 36188
L50229 36206
L50192 36225
L50154 36225
L50117 36206
L50098 36188
L50079 36150
L50079 36056
L50098 36000
" />
<path d="M50473 35831
L50079 35831
L50079 35681
L50098 35644
L50117 35625
L50154 35606
L50210 35606
L50248 35625
L50267 35644
L50285 35681
L50285 35831
" />
<path d="M50473 35231
L50473 35456
" />
<path d="M50473 35344
L50079 35344
L50135 35381
L50173 35419
L50192 35456
" />
<path d="M55750 37950
L55731 37968
L55675 37987
L55637 37987
L55581 37968
L55543 37931
L55525 37893
L55506 37818
L55506 37762
L55525 37687
L55543 37650
L55581 37612
L55637 37593
L55675 37593
L55731 37612
L55750 37631
" />
<path d="M56125 37987
L55900 37987
" />
<path d="M56012 37987
L56012 37593
L55975 37650
L55937 37687
L55900 37706
" />
<path d="M51142 44442
L51123 44460
L51067 44479
L51029 44479
L50973 44460
L50936 44423
L50917 44385
L50898 44310
L50898 44254
L50917 44179
L50936 44142
L50973 44104
L51029 44085
L51067 44085
L51123 44104
L51142 44123
" />
<path d="M51292 44123
L51310 44104
L51348 44085
L51442 44085
L51479 44104
L51498 44123
L51517 44160
L51517 44198
L51498 44254
L51273 44479
L51517 44479
" />
<path d="M60918 41331
L60899 41349
L60843 41368
L60806 41368
L60749 41349
L60712 41312
L60693 41274
L60674 41199
L60674 41143
L60693 41068
L60712 41031
L60749 40993
L60806 40974
L60843 40974
L60899 40993
L60918 41012
" />
<path d="M61049 40974
L61293 40974
L61162 41124
L61218 41124
L61256 41143
L61274 41162
L61293 41199
L61293 41293
L61274 41331
L61256 41349
L61218 41368
L61106 41368
L61068 41349
L61049 41331
" />
<path d="M60918 42631
L60899 42649
L60843 42668
L60806 42668
L60749 42649
L60712 42612
L60693 42574
L60674 42499
L60674 42443
L60693 42368
L60712 42331
L60749 42293
L60806 42274
L60843 42274
L60899 42293
L60918 42312
" />
<path d="M61256 42406
L61256 42668
" />
<path d="M61162 42256
L61068 42537
L61312 42537
" />
<path d="M51142 42142
L51123 42160
L51067 42179
L51029 42179
L50973 42160
L50936 42123
L50917 42085
L50898 42010
L50898 41954
L50917 41879
L50936 41842
L50973 41804
L51029 41785
L51067 41785
L51123 41804
L51142 41823
" />
<path d="M51498 41785
L51310 41785
L51292 41973
L51310 41954
L51348 41935
L51442 41935
L51479 41954
L51498 41973
L51517 42010
L51517 42104
L51498 42142
L51479 42160
L51442 42179
L51348 42179
L51310 42160
L51292 42142
" />
<path d="M55409 44426
L55409 44033
L55503 44033
L55559 44051
L55596 44089
L55615 44126
L55634 44201
L55634 44258
L55615 44333
L55596 44370
L55559 44408
L55503 44426
L55409 44426
" />
<path d="M56009 44426
L55784 44426
" />
<path d="M55896 44426
L55896 44033
L55859 44089
L55821 44126
L55784 44145
" />
<path d="M55409 45826
L55409 45433
L55503 45433
L55559 45451
L55596 45489
L55615 45526
L55634 45601
L55634 45658
L55615 45733
L55596 45770
L55559 45808
L55503 45826
L55409 45826
" />
<path d="M55784 45470
L55803 45451
L55840 45433
L55934 45433
L55971 45451
L55990 45470
L56009 45508
L56009 45545
L55990 45601
L55765 45826
L56009 45826
" />
<path d="M52434 45768
L52303 45581
" />
<path d="M52209 45768
L52209 45374
L52359 45374
L52396 45393
L52415 45412
L52434 45449
L52434 45506
L52415 45543
L52396 45562
L52359 45581
L52209 45581
" />
<path d="M52809 45768
L52584 45768
" />
<path d="M52696 45768
L52696 45374
L52659 45431
L52621 45468
L52584 45487
" />
<path d="M58918 37615
L58731 37746
" />
<path d="M58918 37840
L58524 37840
L58524 37690
L58543 37653
L58562 37634
L58599 37615
L58656 37615
L58693 37634
L58712 37653
L58731 37690
L58731 37840
" />
<path d="M58562 37465
L58543 37446
L58524 37409
L58524 37315
L58543 37278
L58562 37259
L58599 37240
L58637 37240
L58693 37259
L58918 37484
L58918 37240
" />
<path d="M62037 37615
L61850 37746
" />
<path d="M62037 37840
L61643 37840
L61643 37690
L61662 37653
L61681 37634
L61718 37615
L61775 37615
L61812 37634
L61831 37653
L61850 37690
L61850 37840
" />
<path d="M61643 37484
L61643 37240
L61793 37371
L61793 37315
L61812 37278
L61831 37259
L61868 37240
L61962 37240
L62000 37259
L62018 37278
L62037 37315
L62037 37428
L62018 37465
L62000 37484
" />
<path d="M63337 37615
L63150 37746
" />
<path d="M63337 37840
L62943 37840
L62943 37690
L62962 37653
L62981 37634
L63018 37615
L63075 37615
L63112 37634
L63131 37653
L63150 37690
L63150 37840
" />
<path d="M63075 37278
L63337 37278
" />
<path d="M62925 37371
L63206 37465
L63206 37221
" />
<path d="M60854 45621
L60910 45640
L61004 45640
L61042 45621
L61060 45603
L61079 45565
L61079 45528
L61060 45490
L61042 45471
L61004 45453
L60929 45434
L60892 45415
L60873 45396
L60854 45359
L60854 45321
L60873 45284
L60892 45265
L60929 45247
L61023 45247
L61079 45265
" />
<path d="M61210 45247
L61304 45640
L61379 45359
L61454 45640
L61548 45247
" />
<path d="M61904 45640
L61679 45640
" />
<path d="M61791 45640
L61791 45247
L61754 45303
L61716 45340
L61679 45359
" />
<path d="M55530 37229
L55530 37547
L55549 37585
L55568 37604
L55605 37622
L55680 37622
L55718 37604
L55736 37585
L55755 37547
L55755 37229
" />
<path d="M56149 37622
L55924 37622
" />
<path d="M56036 37622
L56036 37229
L55999 37285
L55961 37323
L55924 37341
" />
<path d="M55509 32942
L55509 32548
L55659 32548
L55696 32567
L55715 32586
L55734 32623
L55734 32680
L55715 32717
L55696 32736
L55659 32755
L55509 32755
" />
<path d="M56109 32942
L55884 32942
" />
<path d="M55996 32942
L55996 32548
L55959 32605
L55921 32642
L55884 32661
" />
</g>
<g style="fill:#000000; fill-opacity:0.0; 
stroke:#000000; stroke-width:59.0551; stroke-opacity:1; 
stroke-linecap:round; stroke-linejoin:round;">
</g>
<g style="fill:#C2C200; fill-opacity:0.0; 
stroke:#C2C200; stroke-width:59.0551; stroke-opacity:1; 
stroke-linecap:round; stroke-linejoin:round;">
<path d="M47244 49803
L47244 32086
" />
<path d="M64960 49803
L47244 49803
" />
<path d="M64960 32086
L64960 49803
" />
<path d="M64960 32086
L47244 32086
" />
</g> 
</svg>
